<?xml version="1.0" encoding="UTF-8"?>
<svg id="Layer_1" data-name="Layer 1" xmlns="http://www.w3.org/2000/svg" viewBox="0 0 500 500">
  <defs>
    <style>
      .cls-1 {
        fill: #fff;
      }
    </style>
  </defs>
  <path class="cls-1" d="m274.55,84.35h-49.11v-21.35h49.11v21.35Zm-42.11-7h35.11v-7.35h-35.11v7.35Z"/>
  <path class="cls-1" d="m376.47,470H123.53V99.36h71.59v29.67h109.75v-29.67h71.59v370.64Zm-245.93-7h238.93V106.36h-57.59v29.67h-123.75v-29.67h-57.59v356.64Zm186.01-40.79l-13.41-16.15,5.38-4.47,8.04,9.69,31.56-37.76,5.37,4.49-36.94,44.21Zm-28.9-106.28h-123.45v-7h123.45v7Zm0-25.84h-123.45v-7h123.45v7Zm1.91-23.92h-123.45v-7h123.45v7Zm-1.91-22.97h-123.45v-7h123.45v7Zm1.44-21.05h-123.45v-7h123.45v7Z"/>
  <path class="cls-1" d="m311.39,136.03h-122.79v-49.11h122.79v49.11Zm-115.79-7h108.79v-35.11h-108.79v35.11Z"/>
</svg>