<?xml version="1.0" encoding="UTF-8"?>
<svg id="Layer_1" data-name="Layer 1" xmlns="http://www.w3.org/2000/svg" viewBox="0 0 500 500">
  <defs>
    <style>
      .cls-1 {
        fill: #fff;
      }
    </style>
  </defs>
  <g id="l4O2pa">
    <path class="cls-1" d="m50.05,264.2c0-19.44.09-38.87-.05-58.31-.04-6.03,1.85-10.92,7.01-14.09,4.91-3.02,10.11-3.04,15.18-.17,5.47,3.1,7.52,8.08,7.52,14.13,0,13.26.07,26.53-.06,39.79-.03,2.86.55,4.13,3.74,3.85,3.52-.31,7.09-.22,10.62-.02,2.43.14,3.06-.63,3.05-3.04-.1-17.38.18-34.76-.16-52.13-.13-6.88,7.36-13.99,13.67-13.63,9,.52,18.06.13,27.09.13,4.09,0,4.61-.49,4.63-4.47.02-4,.36-8.04-.08-12-.89-7.97,6.61-14.8,14.7-14.66,15.66.28,31.33-.03,46.99.14,3.39.04,4.77-.73,4.32-4.31-.32-2.59-.25-5.27,0-7.88.26-2.69-.88-3.32-3.3-3.3-9.95.09-19.89.08-29.84.07-4.68,0-9.37-.19-14.05-.16-5.48.04-12.71-6.07-12.87-14.28-.13-6.26,4.09-13.29,11.99-14.68,2.39-.42,4.75-.53,7.14-.53,37.96,0,75.92.02,113.88,0,6.85,0,12.47,2.21,15.48,8.68,4.14,8.91-1.18,20.12-11.04,20.61-13.69.68-27.42.3-41.14.35-6.12.02-6.12,0-6.12,6.13,0,1.94.19,3.91-.05,5.83-.34,2.78.74,3.47,3.41,3.45,15.89-.09,31.78-.03,47.68,0,5.53.01,9.82,2.26,12.6,7.17,1.33,2.35,1.68,4.9,1.69,7.53.02,8.57.11,17.15.03,25.72-.03,3.08,1.08,4.2,4.24,4.17,11.2-.11,22.41-.12,33.61.11,7.28.15,12.43,5.38,12.77,12.77.26,5.71.18,11.43.09,17.15-.04,2.72.85,3.94,3.77,3.87,6.06-.16,12.12-.11,18.18,0,2.44.04,3.49-.71,3.42-3.35-.16-6.06.07-12.12-.08-18.18-.22-8.72,5.69-16.31,15.84-15.82,5.7.28,11.44.26,17.15,0,8.02-.37,13.16,3.27,16.35,10.42,5.6,12.56,10.33,25.38,14.04,38.67,6.27,22.43,7.89,45.23,6.42,68.26-.6,9.33-2.57,18.58-4.99,27.72-3.81,14.37-9.46,27.89-16.78,40.76-2.51,4.41-6,7.26-11.3,7.29-6.63.04-13.26-.1-19.89.06-7.23.18-13.4-6.09-13.4-13.81,0-8.46-.09-16.92.05-25.38.05-3.08-.99-4.33-4.16-4.28-8.12.13-16.24.17-24.35-.03-3.25-.08-4.11,1.21-4.09,4.21.1,11.77.05,23.55.02,35.33-.02,6.13-2.23,11.08-8,13.91-2.28,1.12-4.78,1.4-7.3,1.4-37.96,0-75.92,0-113.88.01-4.76,0-8.67-1.65-12.37-4.73-16.49-13.74-33.14-27.28-49.72-40.9-1.4-1.15-2.91-1.49-4.73-1.49-15.31.03-30.63-.17-45.94-.05-5.28.04-11.77-7.01-11.73-12.52.14-17.61,0-35.22.11-52.82.02-2.68-.62-3.62-3.39-3.43-3.53.25-7.09.22-10.63.02-2.63-.15-3.48.6-3.45,3.39.15,13.49.08,26.98.02,40.47-.01,3.42-.46,6.76-2.64,9.64-4.35,5.77-10.3,7.73-17.12,5.56-5.98-1.9-9.86-7.75-9.86-14.97-.01-19.78,0-39.56,0-59.34.02,0,.03,0,.05,0Zm58.56.25h.02c0,22.75.05,45.51-.05,68.26-.01,3.3,1.14,4.38,4.4,4.36,14.29-.12,28.58.05,42.87-.07,4.34-.04,7.85,1.29,11.18,4.04,16.46,13.59,33.04,27.06,49.55,40.59,1.62,1.32,3.21,2.22,5.47,2.22,37.39-.07,74.78-.05,112.16-.06,4.24,0,4.3-.09,4.3-4.51,0-12.12-.05-24.24.01-36.36.04-7.55,6.71-14.28,14.07-14.07,9.6.28,19.21.05,28.81.08,7.38.02,13.32,6.06,13.33,13.5.01,8.8.09,17.61-.03,26.41-.04,2.86,1.18,3.92,3.85,3.9,4.92-.04,9.84-.11,14.75.03,2.39.07,3.71-.89,4.85-2.93,7.78-13.95,13.37-28.66,16.67-44.32,2.1-9.96,3.52-19.99,3.74-30.1.37-17.49-2.13-34.65-6.54-51.62-3.48-13.39-8.44-26.15-14.22-38.65-.74-1.61-1.72-2.63-3.87-2.57-6.28.19-12.58.17-18.86.03-2.39-.05-3.22.73-3.18,3.12.11,6.4-.04,12.81.04,19.21.11,8.15-6.47,15.4-14.64,14.87-6.83-.44-13.73-.39-20.57,0-8.12.47-14.54-7.46-14.17-14.24.28-5.24-.1-10.52.11-15.77.14-3.41-1.32-4.34-4.47-4.3-10.52.12-21.04.07-31.56.05-9.27-.02-14.79-5.57-14.8-14.83,0-8.69-.07-17.38.04-26.07.03-2.36-.68-3.21-3.11-3.21-43.91.06-87.81.07-131.72.02-2.68,0-3.36,1.21-3.33,3.53.07,4.12.06,8.23.05,12.35-.04,9.29-5.75,14.97-15.1,14.98-8.23.01-16.46-.01-24.7-.01q-5.39,0-5.4,5.26c0,22.3,0,44.59,0,66.89Zm-40.44.09c0-19.07,0-38.15,0-57.22,0-.91.08-1.84-.04-2.74-.26-1.86-1.19-3.2-3.26-3.28-2.12-.08-2.97,1.42-3.45,3.12-.24.85-.09,1.82-.09,2.73,0,38.15,0,76.3.02,114.45,0,1.35-.23,2.72.48,4.02.72,1.3,1.57,2.05,3.21,1.98,1.72-.07,2.48-1.16,2.9-2.44.34-1.05.23-2.25.23-3.39.01-19.07,0-38.15,0-57.22ZM223.6,116.23c-10.86,0-21.72,0-32.58,0-8.92,0-17.83.01-26.75,0-2.34,0-4.1.77-4.16,3.37-.07,2.77,1.95,3.25,4.15,3.36.46.02.91,0,1.37,0,38.29,0,76.58,0,114.87,0,1.02,0,2.11.11,3.06-.2,1.56-.5,2.9-1.39,2.8-3.39-.1-1.99-1.54-2.66-3.11-3.08-.75-.2-1.59-.07-2.39-.07-19.09,0-38.18,0-57.26,0Zm-135.19,151.63s0-.01,0-.02c2.05,0,4.11-.16,6.14.04,3.14.3,2.42-1.87,2.45-3.56.03-1.64.55-3.45-2.36-3.3-4.08.22-8.19.13-12.28-.03-2.13-.08-2.6.77-2.77,2.76-.28,3.22.68,4.63,4.05,4.15,1.56-.22,3.18-.04,4.77-.04Zm131.36-126.19c0,1.82.12,3.65-.03,5.46-.2,2.38,1.2,2.57,2.97,2.49,1.78-.08,3.84.38,3.79-2.53-.06-3.41-.05-6.83.02-10.24.03-1.66-.53-2.45-2.3-2.62-4.06-.38-4.46-.09-4.46,4.02,0,1.14,0,2.28,0,3.41Z"/>
  </g>
</svg>