<svg width="180" height="114" viewBox="0 0 180 114" fill="none" xmlns="http://www.w3.org/2000/svg">
<path d="M174.801 110V114H5.19856V110H174.801ZM177.401 106V8C177.401 5.79087 176.237 4 174.801 4H5.19856C3.76301 4 2.59928 5.79086 2.59928 8V106C2.59928 108.209 3.76301 110 5.19856 110V114C2.41729 114 0.146359 110.639 0.00698048 106.412L0 106V8C0 3.71994 2.18414 0.22523 4.93076 0.0107422L5.19856 0H174.801L175.069 0.0107422C177.816 0.225234 180 3.71995 180 8V106C180 110.418 177.673 114 174.801 114V110C176.237 110 177.401 108.209 177.401 106Z" fill="white"/>
<path d="M78.5 81.6182L78.5 31.3818L113.565 56.5L78.5 81.6182Z" fill="white" stroke="white" stroke-width="4"/>
</svg>
