<?xml version="1.0" encoding="utf-8"?>
<!-- Generator: Adobe Illustrator 27.6.1, SVG Export Plug-In . SVG Version: 6.00 Build 0)  -->
<svg version="1.1" id="Layer_1" xmlns="http://www.w3.org/2000/svg" xmlns:xlink="http://www.w3.org/1999/xlink" x="0px" y="0px"
	 viewBox="0 0 200 200" style="enable-background:new 0 0 200 200;" xml:space="preserve">
<style>
  svg * {
    fill: #499BCC; /* o #15439A si prefieres fijo */
  }
</style>

<path class="st0" d="M56.2,115H66l10.5,0.2l-0.5,1l0.5,0.2v0.5l-0.8,0.5l10.5,0.2v0.2h-29l-1.8-0.2L55,116l0.2-0.8L56.2,115z"/>
<path class="st1" d="M23,112l0.5,0.8l0.5,2.5h7.8l-0.8,2.5l-0.2,0.2h-3.2l-4-0.5l-0.2-1.2h0.5L23,113V112z"/>
<g>
	<polygon class="st2" points="64.2,48 64.5,46.8 63.8,44.8 62.2,43 54.5,42.8 44,42.8 38.8,43 37.2,44.5 36.2,47 36.5,48 	"/>
	<polygon class="st2" points="50.2,115 48.2,113.5 45.2,112.2 41,112.2 39.5,112.8 36.7,114.5 35,116.8 33.7,119.8 33.7,123.5 
		34,124.5 35.2,127 36.7,128.8 39.2,130.5 41.7,131.2 44.7,131.2 45.7,131 48.5,129.8 50.2,128.2 52,125.8 52.7,123.2 52.7,120 
		52,117.8 	"/>
	<polygon class="st2" points="163.8,115 162.2,113.2 160,111.5 157.5,110.5 153.8,110.5 151.5,111.2 149,113 147.5,115 146.2,118 
		146,120.8 146.5,122.8 147.8,125.5 149.8,127.5 151.8,128.8 154.2,129.5 157.2,129.5 158.2,129.2 161,128 163.2,125.8 164.2,124 
		165,121.2 165,118.5 164.8,117.5 	"/>
	<path class="st2" d="M175.2,99.5l-1.8-2l-2-1L168,95l-8.8-3.5l-3.5-1.8l-1.2-1.5l-2-3l-3-4.2l-3.2-4.5l-2.8-4l-1.8-2H121l-0.2,9.5
		v37.2l0.2,0.8h23.5l1.5-3.8l1.8-2.2l2.2-1.8l3.2-1.2h5l0.8,0.2l2.5,1.2l2,1.5l2,2.8l1.2,3.2h7.2l1-0.5l0.8-2v-14.8L175.2,99.5z
		 M148.5,89.2l-1,0.8H125l-1.2-1.2L123,87v-9.2l0.2-2.8l1.5-1.8l0.8-0.2h14.2l1.5,1l3,4.2l3.2,4.8l1.8,2.8l0.2,1.8L148.5,89.2z"/>
	<path class="st2" d="M152.8,68l2.5-1.2l2.5-1.5l2.2-2l3-3.5l1.2-2.5v-3.5l-0.8-1.8l-2-2.2l-3.8-3.5l-3.2-2.5l-2.8-1h-58l-3,0.2
		l-0.2,0.5L89,44.2l-6.8,4l-2,1.2l-47.8,0.2l-3.2,0.5l-2.5,1.5L25,54.5l-0.8,4.8l-1,6l-1,6.5L21,79.2l-1.8,12.5V94l0.2,2.2l1.5,7.5
		l2,9.2l0.8,3.2h-0.5l0.2,1.2l4,0.5h3.2l1-2.2l1.2-2l2-2l2.8-1.8l3.5-1H45l1.5,0.2l2.2,0.8l2.8,1.8l2.2,2.5l1.8,3.5l1.8,0.2
		l29.8,0.2l1.2-0.2l0.2-53l0.2-0.8L90,63l2-0.5h15.8l2,0.2l1,1l0.8,2l0.2,52.2h8.2V68.8h28.8L152.8,68z M80,86.8l-0.8,1.8L78,90
		l-4,0.2H38l-1.8-0.8L35,88l-0.2-0.8V71.8l0.5-1.2l1.2-1.5l0.5-0.2h40.5l1.8,1.5L80,72V86.8z M146.8,61h-21.2l-1.5-1.2l-0.2-0.8
		v-6.8l0.8-1.2l1.5-0.8h17.8L145,51l3,4.5l1,1.8V59l-1.5,1.8L146.8,61z"/>
	<path class="st2" d="M109,64.2H90.8l-0.5,0.2L90,66v51.8l0.2,0.5h17.2l2.5-0.2V65.8l-0.2-1L109,64.2z M100,90h-6v-1.8h6V90z"/>
</g>
</svg>
