<?xml version="1.0" encoding="utf-8"?>
<!-- Generator: Adobe Illustrator 27.6.1, SVG Export Plug-In . SVG Version: 6.00 Build 0)  -->
<svg version="1.1" id="Layer_1" xmlns="http://www.w3.org/2000/svg" xmlns:xlink="http://www.w3.org/1999/xlink" x="0px" y="0px"
	 viewBox="0 0 200 200" style="enable-background:new 0 0 200 200;" xml:space="preserve">
<style type="text/css">
  svg * {
    fill: #499BCC; /* o #15439A si prefieres fijo */
  }
</style>
<path class="st0" d="M186.5,113.8l1.2,0.2l0.5,1v5.8l-0.2,0.8l-2.2,0.2l-1.5-0.2l0.8-2.5L186.5,113.8z"/>
<path class="st0" d="M175.2,118h1.2l0.8,1.2L177,121l-1.5,1.8H175v-4.5L175.2,118z"/>
<path class="st0" d="M189,114.5l0.8,0.2v2.2H189l-0.5-1.2L189,114.5z"/>
<g>
	<path class="st1" d="M40.8,106.3c-7.6,0-13.8,6.5-13.8,14.4c0,8,6.2,14.4,13.8,14.4c7.6,0,13.8-6.5,13.8-14.4
		C54.6,112.7,48.4,106.3,40.8,106.3z M40.8,131.7c-5.8,0-10.5-4.9-10.5-11c0-6.1,4.7-11,10.5-11c5.8,0,10.5,4.9,10.5,11
		C51.3,126.8,46.6,131.7,40.8,131.7z"/>
	<path class="st1" d="M152.4,105.5c-7.6,0-13.8,6.5-13.8,14.4c0,8,6.2,14.4,13.8,14.4c7.6,0,13.8-6.5,13.8-14.4
		C166.2,112,160.1,105.5,152.4,105.5z M152.4,130.9c-5.8,0-10.5-4.9-10.5-11c0-6.1,4.7-11,10.5-11c5.8,0,10.5,4.9,10.5,11
		C163,126,158.2,130.9,152.4,130.9z"/>
	<path class="st1" d="M112.1,85.3l-2.2-0.2l-2.2,1l-1,1.2v1.8l0.5,1.8l0.5,0.5l4.5,1.5l6.2,2.8l7.2,2.5l0.2,0.5l-2,0.2h-7.5
		l-8.2-0.2l-11.5-0.8l-8.5-1l-2.5-0.8l-1-1l-1.5-3.5l-0.8-2.2l-0.8-0.2l-3.8,1l-3,0.8l-15.8,2.8l-4,0.5l-17.5,0.5l-5.5,0.2l-6.5,0.5
		l-7,1l-2.5,0.8l-1,1l-1.5,6.5l-0.8,4.2l-1.8,0.2v8l0.5,3.8l1,2l2.2,2l2.8,1l4.8,1l2.2,0.5l-0.1-0.6c-0.6-1.8-0.9-3.6-0.9-5.6
		c0-4.3,1.5-8.3,4-11.4v-0.2l0.6-0.5c3.1-3.5,7.5-5.7,12.4-5.7c4.7,0,9,2,12.1,5.3l0.5,0.4l0.3,0.5c2.6,3.1,4.1,7.1,4.1,11.6
		c0,2.3-0.4,4.4-1.2,6.4l30,0.2h21.2l28.6-0.2c-0.7-1.9-1.1-4-1.1-6.2c0-4.4,1.5-8.4,4.1-11.5l-0.1-0.8h0.8
		c3.1-3.3,7.4-5.4,12.2-5.4c3.5,0,6.8,1.1,9.6,3.1l0.2,0.1l2.8,2l1.5,2.2l2,4l0.8,3v0.9c0.1,0.8,0.2,1.6,0.2,2.4s-0.1,1.6-0.2,2.4
		v0.3l-0.2,1.2l-0.5,2.2h5.2l8.2-0.5l4-0.5l1.5-0.5l1-0.8l1.8-2l1-0.5l0.8-2l0.5-3.8l-0.2-3.2l-0.5-0.5l-1.5-0.5l-2-1.2l-2.2-0.8
		l0.2-0.5l1-0.2l-1.2-0.8l-4-2.2l-2-0.5l-5.5-2.5l-5.2-1.8l-6.2-1.8l-0.2-0.2h1.2l1-0.2l-3-0.8l-7.8-1.2l-5.5-0.2h-5.5l-1-0.5
		l-3-0.8l-7-2.5l-2.5-0.5"/>
</g>
</svg>
