<?xml version="1.0" encoding="utf-8"?>
<!-- Generator: Adobe Illustrator 27.6.1, SVG Export Plug-In . SVG Version: 6.00 Build 0)  -->
<svg version="1.1" id="Layer_1" xmlns="http://www.w3.org/2000/svg" xmlns:xlink="http://www.w3.org/1999/xlink" x="0px" y="0px"
	 viewBox="0 0 200 200" style="enable-background:new 0 0 200 200;" xml:space="preserve">
<style type="text/css">
  svg * {
    fill: #499BCC; /* o #15439A si prefieres fijo */
  }
</style>
<path class="st0" d="M63.2,121l5.8,0.2l23.2,0.2h19.5l11-0.2h19.8l4.2,0.2l0.2-0.5l0.2,1.8h-84l-0.2-1L63.2,121z"/>
<path class="st1" d="M146.8,121l0.2,0.8l-0.2,0.2H141l-11-0.2v-0.5h12.5l4.2,0.2V121z"/>
<path d="M146.8,121.8h0.5v1h-5v-0.5h-18.8V122L146.8,121.8z"/>
<path class="st2" d="M63,121.8l24.5,0.2v0.2L63,122.5V121.8z"/>
<path class="st3" d="M146.8,121.8h0.5v1h-5V122L146.8,121.8z"/>
<path class="st4" d="M185.2,96.2l1.2,0.2l0.2,1.2l-1.5-0.2l-0.2-0.8L185.2,96.2z"/>
<g>
	<path class="st5" d="M162.6,99.6c-8.4,0-15.2,6.8-15.2,15.2s6.8,15.2,15.2,15.2s15.2-6.8,15.2-15.2S170.9,99.6,162.6,99.6z
		 M155.1,108.5l4.3,4.3c-0.2,0.3-0.4,0.7-0.5,1.1h-6C153.1,111.8,153.9,110,155.1,108.5z M152.9,115.5h6c0.1,0.4,0.2,0.8,0.5,1.1
		l-4.2,4.2C153.9,119.4,153.1,117.5,152.9,115.5z M161.6,124.2c-2-0.2-3.9-1-5.4-2.2l4.2-4.2c0.4,0.2,0.8,0.4,1.2,0.5V124.2z
		 M161.6,111.1c-0.4,0.1-0.8,0.3-1.2,0.5l-4.2-4.2c1.5-1.3,3.3-2.1,5.4-2.2V111.1z M163.2,105.2c2,0.2,3.9,1,5.4,2.2l-4.1,4.1
		c-0.4-0.2-0.8-0.4-1.3-0.5V105.2z M163.2,124.2v-5.8c0.5-0.1,0.9-0.3,1.3-0.5l4.1,4.1C167.1,123.2,165.3,124.1,163.2,124.2z
		 M169.7,120.9l-4.1-4.1c0.3-0.4,0.5-0.8,0.6-1.3h5.7C171.8,117.5,171,119.4,169.7,120.9z M166.2,113.9c-0.1-0.5-0.3-0.9-0.6-1.3
		l4.1-4.1c1.3,1.5,2.1,3.3,2.2,5.4H166.2z"/>
	<path class="st5" d="M47.3,99.8c-8.4,0-15.2,6.8-15.2,15.2s6.8,15.2,15.2,15.2s15.2-6.8,15.2-15.2S55.7,99.8,47.3,99.8z
		 M39.9,108.8l4.3,4.3c-0.2,0.3-0.4,0.7-0.5,1.1h-6C37.8,112.1,38.6,110.2,39.9,108.8z M37.6,115.7h6c0.1,0.4,0.2,0.8,0.5,1.1
		l-4.2,4.2C38.6,119.6,37.8,117.8,37.6,115.7z M46.4,124.5c-2-0.2-3.9-1-5.4-2.2l4.2-4.2c0.4,0.2,0.8,0.4,1.2,0.5V124.5z
		 M46.4,111.4c-0.4,0.1-0.8,0.3-1.2,0.5l-4.2-4.2c1.5-1.3,3.3-2.1,5.4-2.2V111.4z M48,105.4c2,0.2,3.9,1,5.4,2.2l-4.1,4.1
		c-0.4-0.2-0.8-0.4-1.3-0.5V105.4z M48,124.5v-5.8c0.5-0.1,0.9-0.3,1.3-0.5l4.1,4.1C51.9,123.5,50,124.3,48,124.5z M54.5,121.1
		l-4.1-4.1c0.3-0.4,0.5-0.8,0.6-1.3h5.7C56.5,117.8,55.7,119.6,54.5,121.1z M50.9,114.1c-0.1-0.5-0.3-0.9-0.6-1.3l4.1-4.1
		c1.3,1.5,2.1,3.3,2.2,5.4H50.9z"/>
	<path class="st5" d="M193.2,106.2l-1.8-4.8L190,101v-0.5l-2.5-2.5l-2.2-0.8v-1l-2.8-1.2l-7.5-2l-7.8-1.8L159,90l-6.5-0.5l-18.5-1
		l-1.8-1l-2-1.5l-2.5-1.2l-2.2-0.8l-2.2-1l-1.5-0.5l-8.2-4l-4-1.2l-1.2-0.8l-4-1L96,74.2l-5.5-0.5H82L77.2,74l-10,1.2l-7,1.2
		L55.5,78l-7,2l-5.2,1.8L41,83l-4.5,2l-2.8,1L27,86.5v0.2h6l0.2,0.5l-8,0.5L18,88.2l-1,0.5l-2,0.8l-0.8,1.8l-1.8,6.5l-1,2.2
		l-1.5,0.5l-1,4.8v4.2l0.5,1.8l0.8,2.5h1.2l0.2,1l1,1.2l0.8,1.8l0.8,0.5l3.2,0.8l10.8,1.2l2.7,0.2c-0.7-1.8-1.1-3.8-1.1-5.9
		c0-9.4,7.9-17.1,17.7-17.1c9.8,0,17.7,7.6,17.7,17.1c0,2.9-0.8,5.6-2.1,8l0,0.1h83.7c-1.4-2.4-2.2-5.2-2.2-8.2
		c0-9.4,7.9-17.1,17.7-17.1c9.8,0,17.7,7.6,17.7,17.1c0,2.9-0.7,5.5-2,7.9l3.8-0.2l0.5-0.5l2.2-0.2l6-1l1.8-0.8l0.8-1.2l0.5-4l0.2-3
		L193.2,106.2z M118.8,89l-0.2,0.2H56c-0.7,0-1.3-0.3-1.7-0.8l-0.9-1c-0.1-0.1-0.2-0.3-0.3-0.5l0,0c-0.6-1.2,0-2.7,1.2-3.2l10.2-4
		c0.1-0.1,0.3-0.1,0.5-0.1l7.3-1.2l9.6-1.2c0.1,0,0.2,0,0.3,0h8c0.1,0,0.2,0,0.3,0l7.6,1l8.1,1.5c0.1,0,0.2,0,0.3,0.1l3.8,1.2
		c0.1,0,0.1,0.1,0.2,0.1l1.6,0.7v0.5l2,0.5c0.1,0,0.3,0.1,0.4,0.1l5.1,2.2l0.2,0.8L118.8,89z"/>
</g>
</svg>
