<?xml version="1.0" encoding="utf-8"?>
<!-- Generator: Adobe Illustrator 27.6.1, SVG Export Plug-In . SVG Version: 6.00 Build 0)  -->
<svg version="1.1" id="Layer_1" xmlns="http://www.w3.org/2000/svg" xmlns:xlink="http://www.w3.org/1999/xlink" x="0px" y="0px"
	 viewBox="0 0 200 200" style="enable-background:new 0 0 200 200;" xml:space="preserve">
<style>
  svg * {
    fill: #499BCC; /* o #15439A si prefieres fijo */
  }
</style>
<g>
	<path d="M183.8,103.8l-0.5-1l-1.5-1.8l-1.8-2.8l-1.5-2l-2-1.8l-5.2-3.2l-2.8-1.8l-4.8-1.5l-6.8-2.2l-5.2-1.5l-4.5-1l-1.2-1l-3-2
		l-1-0.5v-0.5l-3-1.2l-4.2-3l-4.2-2.2l-2.8-1.8l-7-3.2l-3.2-2l-2.5-1l-5.5-1l-11.8-1.2L92,62.2H59.2l-12.5,0.5l-12.2,0.8l-2.8,0.8
		L30.5,65l-1,1.5l-2,2.8L26,71.8l-2.5,4.5L21.8,79l-2.5,5l-2,4.5l-0.5,3l-0.2,6L16,107v4l0.2,0.8l1,1.5l2.5,2.2l2.5,1l5,1.2l0.6-0.2
		c-0.1-0.7-0.2-1.4-0.2-2.1c0-4.9,2.4-9.3,6-12l0,0l0,0c2.5-1.8,5.5-2.9,8.8-2.9c3.4,0,6.5,1.1,8.9,3l0.7,0.4l0.2,0.3
		c3.1,2.7,5.1,6.7,5.1,11.2c0,1-0.1,2-0.3,3L77,119l5.2,0.2l17,0.5l12.2,0.5l18,0.5h7.8c-0.6-1.6-0.9-3.2-0.9-5
		c0-8.2,6.7-14.9,14.9-14.9c0.7,0,1.3,0.1,2,0.2h1.2l1.2,0.2l4,1.5l1.8,1.2l2.5,2.8l1.5,3l0.8,3.8v3.8l-0.2,2l1.5-0.2l8.2-1.2
		l3.8-0.5l1.8-1l1.2-1.5l0.8-1.5l0.8-5.2v-2.5L183.8,103.8z M54.8,71.8L54,79.2l-0.2,4.2L53.2,84L38,83.8l-5.2-0.2l-2-0.5l-1.5-2.2
		l-0.5-1.2v-2l1.5-3.8l2.2-4l2.5-2.5l0.5-0.2L46,66.5l5.5-0.2h3.8L54.8,71.8z M90,85.8L89,86l-26.5-1.2l-1-0.2l0.2-4l1-14L63,66
		l2.5-0.2h24.2L90,66V85.8z M128.5,82.8l-0.2,0.2l-4,0.8l-0.8,0.8l-1,3H118l-14-0.8l-6.2-0.2l-0.2-1.2v-19h2.5l6,0.8l3.8,0.8
		l6.5,2.2l2,1l2.5,1.5l4,2l3.5,2.2l0.2,1.8V82.8z M138.5,87.5h-4l-1-1.2v-0.5H133l-0.5-1.8v-3.8l1,0.2l4,2.8l2,1.5l0.2,0.8
		L138.5,87.5z"/>
	<path d="M151.6,102.4c-7.4,0-13.5,6-13.5,13.5s6,13.5,13.5,13.5s13.5-6,13.5-13.5S159,102.4,151.6,102.4z M145,110.3l3.8,3.8
		c-0.2,0.3-0.3,0.6-0.4,1H143C143.1,113.3,143.9,111.6,145,110.3z M143,116.5h5.3c0.1,0.4,0.2,0.7,0.4,1l-3.8,3.8
		C143.9,120,143.1,118.3,143,116.5z M150.8,124.3c-1.8-0.1-3.5-0.9-4.8-2l3.7-3.7c0.3,0.2,0.7,0.4,1.1,0.5V124.3z M150.8,112.6
		c-0.4,0.1-0.7,0.2-1,0.4l-3.8-3.8c1.3-1.1,3-1.8,4.8-2V112.6z M152.2,107.4c1.8,0.1,3.5,0.9,4.8,2l-3.7,3.7
		c-0.3-0.2-0.7-0.3-1.1-0.4V107.4z M152.2,124.3v-5.2c0.4-0.1,0.8-0.2,1.2-0.4l3.6,3.6C155.6,123.4,154,124.1,152.2,124.3z
		 M157.9,121.3l-3.6-3.6c0.2-0.4,0.4-0.8,0.5-1.2h5.1C159.8,118.3,159.1,120,157.9,121.3z M154.8,115.1c-0.1-0.4-0.3-0.8-0.5-1.2
		l3.6-3.6c1.1,1.3,1.8,3,2,4.8H154.8z"/>
	<path d="M42.9,102.4c-7.4,0-13.5,6-13.5,13.5s6,13.5,13.5,13.5s13.5-6,13.5-13.5S50.3,102.4,42.9,102.4z M36.3,110.3l3.8,3.8
		c-0.2,0.3-0.3,0.6-0.4,1h-5.4C34.4,113.3,35.2,111.6,36.3,110.3z M34.3,116.5h5.3c0.1,0.4,0.2,0.7,0.4,1l-3.8,3.8
		C35.2,120,34.4,118.3,34.3,116.5z M42,124.3c-1.8-0.1-3.5-0.9-4.8-2l3.7-3.7c0.3,0.2,0.7,0.4,1.1,0.5V124.3z M42,112.6
		c-0.4,0.1-0.7,0.2-1,0.4l-3.8-3.8c1.3-1.1,3-1.8,4.8-2V112.6z M43.5,107.4c1.8,0.1,3.5,0.9,4.8,2l-3.7,3.7
		c-0.3-0.2-0.7-0.3-1.1-0.4V107.4z M43.5,124.3v-5.2c0.4-0.1,0.8-0.2,1.2-0.4l3.6,3.6C46.9,123.4,45.3,124.1,43.5,124.3z
		 M49.2,121.3l-3.6-3.6c0.2-0.4,0.4-0.8,0.5-1.2h5.1C51.1,118.3,50.4,120,49.2,121.3z M46.1,115.1c-0.1-0.4-0.3-0.8-0.5-1.2l3.6-3.6
		c1.1,1.3,1.8,3,2,4.8H46.1z"/>
</g>
</svg>
