<?xml version="1.0" encoding="utf-8"?>
<!-- Generator: Adobe Illustrator 27.6.1, SVG Export Plug-In . SVG Version: 6.00 Build 0)  -->
<svg version="1.1" id="Layer_1" xmlns="http://www.w3.org/2000/svg" xmlns:xlink="http://www.w3.org/1999/xlink" x="0px" y="0px"
	 viewBox="0 0 200 200" style="enable-background:new 0 0 200 200;" xml:space="preserve">
<style type="text/css">
  svg * {
    fill: #499BCC; /* o #15439A si prefieres fijo */
  }
</style>
<g>
	<path class="st0" d="M176.5,95.8l-1-1l-3-1l-3-1.2l-4-2L160,89l-7.2-1.2l-10.8-1l-10.8-0.5l-1-1L126,79l-7-11.8l-1.2-1.5l-2.5-1.2
		H44.8l-0.5,0.2L43,66.5l-1,4.2l-2.8,7.8l-1.2,4l-1,6v24l0.2,0.2l0.8,2l2.2,0.8h1c1.7-9.1,9.9-15.9,19.7-15.9
		c7.1,0,13.3,3.6,16.8,8.9l0,0v0c1.9,2.9,3,6.3,3.2,9.9l0.6,0.8H131l0.4-0.7c0.2-10.5,9.1-19,20-19c9.1,0,16.7,5.9,19.2,13.9
		l2.9-0.4l1.2-0.5l2-1.5V96.2L176.5,95.8z M83.2,86l-0.5,0.5H47.5l-0.8-0.2v-2l1.8-5l2.2-8l0.8-2.2l0.2-0.8h30.8l0.8,0.5V86z
		 M125.2,86.5H89.8L89.2,85l0.2-16.5l0.2-0.2h24.8l0.8,0.8l10,17V86.5z"/>
	<polygon class="st0" points="31.8,77.8 27.5,77.5 24.8,77.5 23.2,77.8 22.2,78.5 22,87.2 22,94.2 22.2,104.8 23,107 23.5,107.2 
		31.2,107.2 32.2,107 32.2,105.8 34,105.2 34.2,104 34.2,79.8 33.8,78.2 	"/>
</g>
<path class="st0" d="M61.6,101.9c-8.9,0-16.1,7.2-16.1,16.1c0,8.9,7.2,16.1,16.1,16.1c8.9,0,16.1-7.2,16.1-16.1
	C77.7,109.1,70.5,101.9,61.6,101.9z M61.6,124.5c-3.6,0-6.5-2.9-6.5-6.5s2.9-6.5,6.5-6.5s6.5,2.9,6.5,6.5S65.2,124.5,61.6,124.5z"/>
<path class="st0" d="M151.4,102.4c-8.9,0-16.1,7.2-16.1,16.1c0,8.9,7.2,16.1,16.1,16.1c8.9,0,16.1-7.2,16.1-16.1
	C167.5,109.6,160.3,102.4,151.4,102.4z M151.4,125c-3.6,0-6.5-2.9-6.5-6.5s2.9-6.5,6.5-6.5s6.5,2.9,6.5,6.5S155,125,151.4,125z"/>
</svg>
