<?xml version="1.0" encoding="UTF-8"?>
<svg id="Layer_1" data-name="Layer 1" xmlns="http://www.w3.org/2000/svg" viewBox="0 0 500 500">
  <defs>
    <style>
      .cls-1 {
        fill: #fff;
      }
    </style>
  </defs>
  <g>
    <path class="cls-1" d="m494.37,238.09l-3.17-3.18-9.5-3.18-9.5-3.81-12.67-6.36-17.42-5.09-22.81-3.81-34.22-3.18-34.22-1.59-3.17-3.18-13.31-20.03-22.18-37.51-3.8-4.77-7.92-3.81H77.13l-1.58.64-4.12,5.72-3.17,13.35-8.87,24.79-3.8,12.71-3.17,19.07v74.69l.63.68,2.53,6.84,6.95,2.73h3.16c5.37-31.1,31.3-54.34,62.28-54.34,22.45,0,42.05,12.3,53.11,30.42h0c6.01,9.91,9.48,21.53,10.12,33.83l1.9,2.73h157.12l1.27-2.23c.63-33.38,28.83-60.39,63.36-60.39,28.83,0,52.91,18.75,60.83,44.18l9.19-1.27,3.8-1.59,6.34-4.77v-47.04l-.63-1.27Zm-294.33-29.94l-1.58,3.16h-111.87l-2.56-.66v-6.6l5.75-16.5,7.03-26.4,2.56-7.26.64-2.64h98.43l2.56,1.65v55.25h-.96Zm133.73,0h-111.91l-1.9-4.69.63-51.59.63-.63h78.4l2.53,2.5,31.61,53.15v1.25Z"/>
    <polygon class="cls-1" points="38.51 180.65 24.92 179.7 13.94 179.7 8.83 180.65 5.64 182.89 5 210.67 5 233.02 5.64 266.87 8.19 273.9 9.79 274.53 36.61 274.53 39.77 273.9 39.77 270.06 45.46 268.15 46.1 264.32 46.1 187.04 44.83 181.93 38.51 180.65"/>
  </g>
  <path class="cls-1" d="m131.76,258.03c-28.14,0-50.9,22.76-50.9,50.9s22.76,50.9,50.9,50.9,50.9-22.76,50.9-50.9-22.76-50.9-50.9-50.9Zm0,71.45c-11.38,0-20.55-9.17-20.55-20.55s9.17-20.55,20.55-20.55,20.55,9.17,20.55,20.55-9.17,20.55-20.55,20.55Z"/>
  <path class="cls-1" d="m415.64,259.61c-28.14,0-50.9,22.76-50.9,50.9s22.76,50.9,50.9,50.9,50.9-22.76,50.9-50.9-22.76-50.9-50.9-50.9Zm0,71.45c-11.38,0-20.55-9.17-20.55-20.55s9.17-20.55,20.55-20.55,20.55,9.17,20.55,20.55-9.17,20.55-20.55,20.55Z"/>
</svg>