<?xml version="1.0" encoding="UTF-8"?>
<svg id="Layer_1" data-name="Layer 1" xmlns="http://www.w3.org/2000/svg" viewBox="0 0 500 500">
  <defs>
    <style>
      .cls-1 {
        fill: #fff;
      }
    </style>
  </defs>
  <path class="cls-1" d="m148.1,300.22l15.41-.04,61.62,2.66h51.8l29.22-2.66h52.59l11.16,1.1.53-1.33.53,5.54h-223.12l-.53-3.42.8-1.86Z"/>
  <path class="cls-1" d="m371.83,300.18l.53,2.12-.53.53h-17.08l-28.35-.49v-2.16h32.33l12.83,1.37v-1.37h.27Z"/>
  <path class="cls-1" d="m370.16,302.84h1.4v2.66h-13.28v-2.66h-50.47v-2.66l62.35,2.66Z"/>
  <path class="cls-1" d="m145.78,302.84h66.41v2.66h-66.41v-2.66Z"/>
  <path class="cls-1" d="m370.23,302.84h1.33v2.66h-13.28v-2.12l11.95-.53Z"/>
  <path class="cls-1" d="m472.16,234.35l3.19.53.53,3.19-3.98-.53-.53-2.12.8-1.06Z"/>
  <g>
    <path class="cls-1" d="m412.13,243.38c-22.31,0-40.37,18.06-40.37,40.37s18.06,40.37,40.37,40.37,40.37-18.06,40.37-40.37-18.33-40.37-40.37-40.37Zm-19.92,23.87l11.42,11.42c-.53.8-1.06,1.86-1.33,2.92h-15.94c.53-5.58,2.66-10.36,5.84-14.34Zm-5.84,19.66h15.94c.27,1.06.53,2.12,1.33,2.92l-11.16,11.16c-3.45-3.72-5.58-8.77-6.11-14.08Zm22.39,21.82c-5.31-.53-10.36-2.66-14.34-5.84l11.16-11.16c1.06.53,2.12,1.06,3.19,1.33v15.67Zm0-34.8c-1.06.27-2.12.8-3.19,1.33l-11.16-11.16c3.98-3.45,8.77-5.58,14.34-5.84v15.67Zm5.31-15.67c5.31.53,10.36,2.66,14.34,5.84l-10.89,10.89c-1.06-.53-2.12-1.06-3.45-1.33v-15.41h0Zm0,50.47v-15.41c1.33-.27,2.39-.8,3.45-1.33l10.89,10.89c-3.98,3.19-8.77,5.58-14.34,5.84Zm16.92-7.48l-10.89-10.89c.8-1.06,1.33-2.12,1.59-3.45h15.14c-.27,5.31-2.39,10.36-5.84,14.34Zm-9.3-19.66c-.27-1.33-.8-2.39-1.59-3.45l10.89-10.89c3.45,3.98,5.58,8.77,5.84,14.34h-15.14Z"/>
    <path class="cls-1" d="m105.86,243.91c-22.31,0-40.37,18.06-40.37,40.37s18.06,40.37,40.37,40.37,40.37-18.06,40.37-40.37-18.06-40.37-40.37-40.37Zm-19.66,23.34l11.42,11.42c-.53.8-1.06,1.86-1.33,2.92h-15.94c.27-5.58,2.39-10.62,5.84-14.34Zm-6.11,19.66h15.94c.27,1.06.53,2.12,1.33,2.92l-11.16,11.16c-3.45-3.72-5.58-8.5-6.11-14.08Zm23.19,22.62c-5.31-.53-10.36-2.66-14.34-5.84l11.16-11.16c1.06.53,2.12,1.06,3.19,1.33v15.67Zm0-34.8c-1.06.27-2.12.8-3.19,1.33l-11.16-11.16c3.98-3.45,8.77-5.58,14.34-5.84v15.67Zm5.31-15.94c5.31.53,10.36,2.66,14.34,5.84l-10.89,10.89c-1.06-.53-2.12-1.06-3.45-1.33,0,0,0-15.41,0-15.41Zm0,50.73v-15.41c1.33-.27,2.39-.8,3.45-1.33l10.89,10.89c-3.98,3.19-9.03,5.31-14.34,5.84Zm16.39-8.27l-10.89-10.89c.8-1.06,1.33-2.12,1.59-3.45h15.14c-.53,5.58-2.66,10.36-5.84,14.34Zm-9.56-19.66c-.27-1.33-.8-2.39-1.59-3.45l10.89-10.89c3.45,3.98,5.58,8.77,5.84,14.34h-15.14Z"/>
    <path class="cls-1" d="m493.41,260.91l-4.78-12.75-2.85-1.06v-1.33l-7.51-6.64-5.77-2.12v-2.66l-7.51-3.19-19.92-5.31-20.72-4.78-21.78-3.19-17.27-1.33-49.14-2.66-4.78-2.66-5.31-3.98-6.64-3.19-5.84-2.12-5.84-2.66-3.98-1.33-21.78-10.62-10.62-3.19-3.19-2.12-10.62-2.66-22.31-3.45-14.61-.57h-22.51l-12.68.8-26.42,3.19-18.49,3.19-12.42,4.25-18.49,5.31-13.74,4.78-6.08,3.19-11.89,5.31-7.4,2.66-17.7,1.33v.53h15.85l.53,1.33-21.13,1.33-19.02,1.33-2.64,1.33-5.28,2.12-2.11,4.78-4.75,17.27-2.64,5.84-3.96,1.33-2.64,12.75v10.76l1.32,4.83,2.12,6.72h3.18l.53,2.69,2.65,3.22,2.12,4.83,2.12,1.34,8.47,2.15,28.58,3.22,7.15.54c-1.85-4.83-2.91-10.21-2.91-15.85,0-25.25,20.91-45.93,46.84-45.93s46.84,20.41,46.84,45.93c0,7.79-2.12,15.04-5.56,21.49v.27h221.72s-5.84-14.57-5.84-22.54c0-24.97,20.98-45.42,47.02-45.42s47.02,20.19,47.02,45.42c0,7.7-1.86,14.61-5.31,20.98l10.09-.53,1.33-1.33,5.84-.53,15.94-2.66,4.78-2.12,2.12-3.19,1.33-10.62.53-7.97-1.59-14.08Zm-197.02-46.26l-.53.53h-166.28c-1.86,0-3.45-.8-4.52-2.12l-2.39-2.66c-.27-.27-.53-.8-.8-1.33h0c-1.59-3.19,0-7.17,3.19-8.5l27.09-10.62c.27-.27.8-.27,1.33-.27l19.39-3.19,25.5-3.19h22.84l20.19,2.66,21.52,3.98c.27,0,.53,0,.8.27l10.09,3.19c.27,0,.27.27.53.27l4.25,1.86v1.33l5.31,1.33c.27,0,.8.27,1.06.27l13.55,5.84.53,2.12-2.66,8.23Z"/>
  </g>
</svg>