<?xml version="1.0" encoding="UTF-8"?>
<svg id="Layer_1" data-name="Layer 1" xmlns="http://www.w3.org/2000/svg" viewBox="0 0 500 500">
  <defs>
    <style>
      .cls-1 {
        fill: #fff;
      }
    </style>
  </defs>
  <path class="cls-1" d="m419.47,271.07c-12.32,0-22.17,9.85-22.17,22.17s9.85,22.17,22.17,22.17,22.17-9.85,22.17-22.17-10.13-22.17-22.17-22.17Zm10.13,25.73l2.46,13.96-12.59-6.3-12.32,6.57,2.19-13.96-10.13-9.85,13.96-2.19,6.02-12.59,6.3,12.59,13.96,1.92-9.85,9.85Z"/>
  <path class="cls-1" d="m362.81,222.61l-1.37-5.47-.55-1.64-.55-1.62h-.27l.8-1.94v-1.34l-1.37-2.74-2.19-1.92-1.09-1.37-1.92-1.37-2.19-1.92-.82-.27-3.28-2.46-10.95-7.66-12.32-7.66-1.37-.55-9.58-4.93-1.37-.55-5.47-1.37-12.32-4.11-13.14-2.19-16.42-2.19h-76.1l-7.66.55-2.19.55-3.28,2.19-2.19,3.28-2.74,13.69-2.74,9.58-2.74,16.15-.27,10.13,1.09,6.84,3.28,10.4,3.28,15.06,4.11,14.23.27,1.09.27,1.09.82,1.92,2.74,7.12.55.27,1.64,3.83,2.46,2.46h144.29l27.37,1.07.55-.55,2.19-6.02,3.53-28.74v-24.64l-.8-6.3Zm-1.94,30.69l-.5,8.21-2.49,21.35-1.99,4.93h-104.52v-76.67l1.94-38.3h-1.37l.55,6,1.62,21.9v73.81l-.55,13.26h-66.79l-2.19-.55-2.19-4.97-6.57-19.62c-.82-2.21-1.37-4.42-1.92-6.63l-2.74-11.88-3.56-12.71c-.82-3.04-1.09-6.08-1.09-9.12v-5.25l2.19-11.61,2.46-13.26h0l1.37-7.74,1.92-7.46,1.64-4.7.55-.28,5.75-1.11.82-.83h68.74l.55,2.16.55-1.37,2.19.55,15.88.55,21.9,2.74,5.47,1.37.55-.52h1.62v1.07l2.76,1.37,10.4,4.11,15.06,8.21,7.66,4.93,9.58,6.84,1.07.55v.3l4.98,3.56,1.24,1.09,3.48,3.83.5.82.5.82.5,3.28,2.49,15.88v21.08h0Z"/>
  <g>
    <path class="cls-1" d="m285.34,234.66c3.28,0,6.3-.55,6.3-1.09s-2.74-1.09-6.3-1.09c-3.28,0-6.3.55-6.3,1.09.27.55,3.01,1.09,6.3,1.09Z"/>
    <rect class="cls-1" x="273.27" y="235.78" width="21.9" height="2.74"/>
  </g>
  <g>
    <path class="cls-1" d="m110.14,271.61c-12.32,0-22.17,9.85-22.17,22.17s9.85,22.17,22.17,22.17,22.17-9.85,22.17-22.17-9.85-22.17-22.17-22.17Zm10.4,25.46l2.46,13.96-12.59-6.3-12.32,6.57,2.19-13.96-10.13-9.85,13.96-2.19,6.02-12.59,6.3,12.59,13.96,1.92-9.85,9.85Z"/>
    <path class="cls-1" d="m110.14,254.91c-21.35,0-38.87,17.25-38.87,38.87s17.25,38.87,38.87,38.87,38.87-17.25,38.87-38.87-17.25-38.87-38.87-38.87Zm0,63.23c-13.41,0-24.36-10.95-24.36-24.36s10.95-24.36,24.36-24.36,24.36,10.95,24.36,24.36c.27,13.41-10.68,24.36-24.36,24.36Z"/>
    <path class="cls-1" d="m166.51,264.17l-4.11-16.06-5.47-19.38-1.37-12.46v-5.14H23.99l-16.51.53-.55,3.43-.55,8.44-1.38,7.38v18.45l4.13,15.82,2.75,2.11,4.13,3.16,6.06,9.23,1.38,3.95,5.5,1.32,19.82,2.64,16.51,2.11,1.38-3.95,4.95-15.82,4.95-7.91,4.95-4.74,6.88-5.27,6.61-3.16,10.46-2.11h12.59l10.95,2.21,5.47,2.77,6.84,4.98,6.84,6.92,4.93,8.86,4.93,13.29.55,9.69.55.55h15.6v-2.21l-2.74-13.29-5.47-16.33Zm-145.88-25.95l-3.28,19.71-8.76,2.19-2.74-15.88.55-19.71.55-4.11,5.47.55,6.02,2.19,3.28,2.74.55,3.28-1.64,9.03Z"/>
    <path class="cls-1" d="m419.47,254.37c-21.35,0-38.87,17.25-38.87,38.87s17.25,38.87,38.87,38.87,38.87-17.25,38.87-38.87c0-21.35-17.52-38.87-38.87-38.87Zm0,63.23c-13.41,0-24.36-10.95-24.36-24.36s10.95-24.36,24.36-24.36,24.36,10.95,24.36,24.36c0,13.41-10.95,24.36-24.36,24.36Z"/>
    <path class="cls-1" d="m494.45,262.1l-2.76-4.13-10.2-30.03-10.47-4.41-8.82-3.31-33.62-6.89-24.8-3.31-35.27-1.38-2.76-.55-4.96-2.75-5.51-4.96-6.89-3.31-6.06-4.13-8.27-4.13-11.02-6.89-9.65-4.13-17.09-7.71-8.27-1.38-24.25-1.38h-88.14l-7.71.55-4.96,1.38-.55,3.31-2.75,22.04-1.38,16.53v12.4l.55,6.89,3.31,16.53,6.06,19.83,4.96,21.49,3.31,10.47h194.79l.55-3.58v-2.75c0-25.07,20.67-45.73,46.3-45.73s46.3,20.38,46.3,45.73c0,1.93-.28,3.58-.28,5.51l.55.83h3.31l9.65-1.38,7.72-4.13,3.31-4.13,4.13-8.26,2.2-8.81v-7.71l-.55-2.2Zm-302.73-25.8c-4.11,0-7.12-.82-7.12-1.92s3.28-1.92,7.12-1.92,7.12.82,7.12,1.92c0,1.37-3.28,1.92-7.12,1.92Zm51.98-19.68l-13.09-.54-50.45-4.05-6.82-2.16-1.36-1.35v-8.1l3.27-15.67,2.18-5.4,3.27-3.24,10.91-.54h36.81l14.18.54.55.54v39.98h.55Zm41.64,22.42c-7.12,0-12.87.27-12.87-3.01s5.75-4.93,12.87-4.93,12.87,1.64,12.87,4.93c0,3.01-5.75,3.01-12.87,3.01Zm66.3-21.08l-13.39,1.39h-36.27l-39.61-1.39-.56-.56-2.23-30.69v-11.16h13.39l22.32,2.23,8.93,2.79,17.3,8.37,6.14,3.35,14.51,9.76,7.81,6.14,4.18,2.79.56,5.02-3.07,1.95Zm132.71,31.51l-18.61-8.21-6.84-4.11-2.74-4.93-6.84-4.11-.55-2.74,1.37-.55h6.02l4.11.55,15.06,4.11,5.47,2.74,6.84,18.61-3.28-1.37Z"/>
  </g>
</svg>