<?xml version="1.0" encoding="UTF-8"?>
<svg id="Layer_1" data-name="Layer 1" xmlns="http://www.w3.org/2000/svg" viewBox="0 0 500 500">
  <defs>
    <style>
      .cls-1 {
        fill: #fff;
      }
    </style>
  </defs>
  <path class="cls-1" d="m479.92,259.97l3.23.54,1.35,2.69v15.62l-.54,2.16-5.93.54-4.04-.54,2.16-6.73,3.77-14.28Z"/>
  <path class="cls-1" d="m447.35,270.27h3.37l2.24,3.37-.56,5.05-4.21,5.05h-1.4v-12.63l.56-.84Z"/>
  <path class="cls-1" d="m485.04,261.11l2.16.54v5.93h-2.16l-1.35-3.23,1.35-3.23Z"/>
  <g>
    <path class="cls-1" d="m86.2,239.76c-20.47,0-37.17,17.51-37.17,38.79s16.7,38.79,37.17,38.79,37.17-17.51,37.17-38.79-16.7-38.79-37.17-38.79Zm0,68.42c-15.62,0-28.29-13.2-28.29-29.63s12.66-29.63,28.29-29.63,28.29,13.2,28.29,29.63-12.66,29.63-28.29,29.63Z"/>
    <path class="cls-1" d="m386.83,237.61c-20.47,0-37.17,17.51-37.17,38.79s16.7,38.79,37.17,38.79,37.17-17.51,37.17-38.79-16.43-38.79-37.17-38.79Zm0,68.42c-15.62,0-28.29-13.2-28.29-29.63s12.66-29.63,28.29-29.63,28.29,13.2,28.29,29.63c.27,16.43-12.66,29.63-28.29,29.63Z"/>
    <path class="cls-1" d="m278.15,183.19l-5.93-.54-5.93,2.69-2.69,3.23v4.1l1.35,4.85,1.35,1.35,12.13,4.04,16.72,7.54,19.42,6.73.54,1.35-5.39.54h-20.22l-22.11-.54-31.01-2.16-22.92-2.69-6.74-2.16-2.7-2.69-4.04-9.43-2.16-5.93-2.16-.54-10.25,2.69-8.09,2.16-42.61,7.54-10.79,1.35-47.19,1.35-14.83.54-17.53,1.35-18.88,2.69-6.74,2.16-2.7,2.69-4.04,17.51-2.16,11.31-4.85.54v22.29l1.73,10.24,2.69,5.39,5.93,5.39,7.54,2.69,12.93,2.69,5.93,1.35-.27-1.62c-1.62-4.85-2.42-9.7-2.42-15.09,0-11.58,4.04-22.36,11.74-30.71v-.54l.65-1.35c8.35-9.43,20.2-15.35,33.4-15.35s24.24,5.39,32.6,14.28l1.35,1.08.81,1.35c7,8.35,11.04,19.13,11.04,31.25,0,6.2-1.08,11.85-3.23,17.04l80.81,2.69h54.34l78.28-.55c-1.92-5.2-3.01-10.95-3.01-16.97,0-12.04,4.11-22.99,11.22-31.48l-.27-2.19h2.19c8.48-9.03,20.25-14.78,33.39-14.78,9.58,0,18.61,3.01,26.28,8.48l.55.27,7.66,5.47,4.11,6.02,5.47,10.95,2.19,8.21v.37c.28,2.21.55,4.42.55,6.63s-.28,4.42-.55,6.63v.83l-.55,3.32-1.38,6.08h14.37l22.66-1.38,11.05-1.38,4.14-1.38,2.76-2.21,4.97-5.53,2.76-1.38,2.21-5.53,1.38-10.5-.55-8.84-1.38-1.38-4.14-1.38-5.53-3.32-6.08-2.21.55-1.38,2.76-.55-3.32-2.21-11.05-6.08-5.53-1.38-15.2-6.91-14.37-4.97-17.13-4.97-.55-.55h3.78l2.69,1.28-8.08-2.16-21.01-3.23-14.82-1.28h-14.82l-2.69-1.35-8.08-2.16-18.86-6.73-6.73-1.35"/>
  </g>
</svg>