<?xml version="1.0" encoding="UTF-8" standalone="no"?><!DOCTYPE svg PUBLIC "-//W3C//DTD SVG 1.1//EN" "http://www.w3.org/Graphics/SVG/1.1/DTD/svg11.dtd"><svg width="100%" height="100%" viewBox="0 0 800 800" version="1.1" xmlns="http://www.w3.org/2000/svg" xmlns:xlink="http://www.w3.org/1999/xlink" xml:space="preserve" xmlns:serif="http://www.serif.com/" style="fill-rule:evenodd;clip-rule:evenodd;stroke-linejoin:round;stroke-miterlimit:2;"><path d="M360,800l0,-68l0.4,-9.6l242.4,-242.4l117.6,0c44,0 79.6,35.6 79.6,80l0,160c0,43.887 -36.113,80 -80,80l-360,0Zm0,-133.6l0,-452.8l83.2,-82.8c14.931,-14.992 35.241,-23.429 56.4,-23.429c21.159,0 41.469,8.437 56.4,23.429l113.2,113.2c30.813,30.997 30.813,81.803 0,112.8l-309.2,309.6Zm-360,-586.8c0,-43.6 35.6,-79.6 80,-79.6l160,0c43.887,-0 80,36.113 80,80l0,640c0,43.887 -36.113,80 -80,80l-160,0c-43.887,0 -80,-36.113 -80,-80l0,-640.4Zm160,600.4c21.943,0 40,-18.057 40,-40c0,-21.943 -18.057,-40 -40,-40c-21.943,0 -40,18.057 -40,40c0,21.943 18.057,40 40,40Z" style="fill:#fff;fill-rule:nonzero;"/></svg>