<?xml version="1.0" encoding="UTF-8" standalone="no"?><!DOCTYPE svg PUBLIC "-//W3C//DTD SVG 1.1//EN" "http://www.w3.org/Graphics/SVG/1.1/DTD/svg11.dtd"><svg width="100%" height="100%" viewBox="0 0 256 256" version="1.1" xmlns="http://www.w3.org/2000/svg" xmlns:xlink="http://www.w3.org/1999/xlink" xml:space="preserve" xmlns:serif="http://www.serif.com/" style="fill-rule:evenodd;clip-rule:evenodd;stroke-linejoin:round;stroke-miterlimit:2;"><g><g><path d="M149,26.9l0,66.5c9.8,-0.6 32.8,6.9 29.5,93.6c4.2,25.3 33.7,25.3 40,-8.4c6.3,-25.3 -10.5,-25.3 -19,-101.1c0,-8.4 0,-33.7 -33.7,-50.6l0,-8.4c33.7,0 59,42.1 59,50.6c0,8.5 -8.4,8.4 -8.4,8.4c0,0 2.1,50.6 10.5,59c8.4,8.4 6.3,33.7 6.3,50.6c0,16.9 -25.3,33.7 -33.7,33.7c-8.4,0 -33.7,0 -33.7,-25.3c0,-23 -3.5,-74 -16.9,-82.9l0,108.2c4.6,0 8.4,3.8 8.4,8.4l0,16.8l-134.8,0l0,-16.9c0,-4.6 3.8,-8.4 8.4,-8.4l0,-193.8c0.1,-9.4 7.6,-16.9 16.9,-16.9l84.3,0c9.3,0 16.9,7.5 16.9,16.9Zm-90.6,75.8l63.2,-0c4.6,0 10.5,-5.9 10.5,-10.5l0,-54.8c0,-4.6 -5.9,-10.5 -10.5,-10.5l-63.2,0c-4.6,0 -10.5,5.9 -10.5,10.5l0,54.8c-0.1,4.6 5.8,10.5 10.5,10.5Z" style="fill:#fff;fill-rule:nonzero;"/></g></g></svg>