<?xml version="1.0" encoding="UTF-8" standalone="no"?>
<!DOCTYPE svg PUBLIC "-//W3C//DTD SVG 1.1//EN" "http://www.w3.org/Graphics/SVG/1.1/DTD/svg11.dtd">
<svg width="100%" height="100%" viewBox="0 0 500 500" version="1.1" xmlns="http://www.w3.org/2000/svg" xmlns:xlink="http://www.w3.org/1999/xlink" xml:space="preserve" xmlns:serif="http://www.serif.com/" style="fill-rule:evenodd;clip-rule:evenodd;stroke-linejoin:round;stroke-miterlimit:2;">
    <g id="Layer-1" serif:id="Layer 1">
        <g transform="matrix(1,0,0,1,262.2314,353.9078)">
            <path d="M0,-63.507C-10.704,-63.507 -19.462,-54.749 -19.462,-44.045L-19.462,-19.462C-19.462,-8.758 -10.704,0 0,0C10.704,0 19.462,-8.758 19.462,-19.462L19.462,-44.045C19.462,-54.749 10.704,-63.507 0,-63.507" style="fill:white;fill-rule:nonzero;"/>
        </g>
        <g transform="matrix(1,0,0,1,95.2699,305.7657)">
            <path d="M0,24.583L0,0C0,-10.704 -8.758,-19.462 -19.462,-19.462C-30.166,-19.462 -38.924,-10.704 -38.924,0L-38.924,24.583C-38.924,35.287 -30.166,44.045 -19.462,44.045C-8.758,44.045 0,35.287 0,24.583" style="fill:white;fill-rule:nonzero;"/>
        </g>
        <g transform="matrix(1,0,0,1,458.76,227.7893)">
            <path d="M0,54.486C-9.108,54.263 -13.405,49.584 -13.174,39.516C-12.915,28.198 -9.062,23.708 0.353,23.751C9.29,23.792 13.595,29.918 13.402,43.145C13.276,51.737 8.03,54.683 0,54.486M-95.69,54.417C-99.094,54.441 -102.498,54.421 -105.901,54.421C-106.008,54.932 -122.391,54.036 -129.012,50.407C-133.428,47.986 -136.438,41.052 -137.845,35.566C-139.772,28.053 -136.262,23.073 -127.439,23.722C-117.416,24.459 -107.158,24.003 -97.446,26.107C-92.694,27.137 -87.623,32.022 -85.003,36.508C-78.33,47.933 -82.535,54.324 -95.69,54.417M-195.839,146.604C-216.02,146.604 -232.379,122.299 -232.379,92.316C-232.379,62.334 -216.02,38.028 -195.839,38.028C-175.659,38.028 -159.299,62.334 -159.299,92.316C-159.299,122.299 -175.659,146.604 -195.839,146.604M-251.247,-11.178C-265.177,-11.13 -279.107,-11.117 -293.036,-11.212C-300,-11.26 -306.964,-11.335 -313.927,-11.447C-314.203,-11.451 -314.505,-11.518 -314.823,-11.635C-316.412,-12.221 -318.393,-14.08 -319.443,-15.842C-319.862,-16.547 -320.133,-17.236 -320.171,-17.822C-320.445,-22.124 -320.682,-26.43 -320.887,-30.737C-321.502,-43.66 -321.827,-56.601 -322.02,-69.537C-322.055,-71.834 -320.206,-74.773 -318.337,-76.37C-316.477,-77.959 -313.175,-78.821 -309.331,-79.069C-308.562,-79.119 -307.772,-79.144 -306.967,-79.145C-306.162,-79.147 -305.342,-79.125 -304.516,-79.08C-302.035,-78.945 -299.489,-78.606 -297.07,-78.088C-296.265,-77.915 -295.491,-77.641 -294.702,-77.51C-277.449,-74.645 -240.343,-41.798 -230.04,-14.457C-230.065,-14.186 -230.091,-13.855 -230.116,-13.511C-230.142,-13.154 -230.168,-12.783 -230.194,-12.448C-230.207,-12.283 -230.22,-12.127 -230.233,-11.986C-230.272,-11.561 -230.311,-11.269 -230.352,-11.269C-237.317,-11.236 -244.282,-11.203 -251.247,-11.178M-337.319,-18.347C-338.234,-14.966 -340.761,-13.367 -344.946,-13.306C-348.325,-13.256 -351.705,-13.227 -355.116,-13.211C-356.821,-13.204 -358.534,-13.199 -360.26,-13.198C-361.985,-13.196 -363.722,-13.196 -365.475,-13.198C-367.228,-13.201 -368.996,-13.204 -370.784,-13.209C-376.149,-13.222 -381.691,-13.241 -387.515,-13.241C-384.139,-20.433 -380.562,-27.176 -376.555,-33.358C-375.754,-34.594 -374.935,-35.808 -374.098,-36.998C-372.423,-39.379 -370.672,-41.666 -368.831,-43.853C-367.91,-44.946 -366.967,-46.014 -365.999,-47.056C-359.224,-54.349 -351.25,-60.363 -341.451,-64.786C-340.111,-64.617 -338.771,-64.448 -337.43,-64.278C-337.396,-64.274 -337.361,-64.269 -337.326,-64.265C-337.304,-60.77 -337.298,-57.275 -337.294,-53.78C-337.29,-50.284 -337.288,-46.789 -337.275,-43.294C-337.247,-36.303 -337.173,-29.315 -336.939,-22.332C-336.888,-20.799 -337.014,-19.474 -337.319,-18.347M25.65,37.884C24.441,13.083 1.597,-7.379 -16.924,-11.019C-36.996,-14.963 -57.278,-17.83 -77.371,-21.677C-82.039,-22.571 -87.516,-24.425 -90.549,-27.736C-101.541,-39.733 -110.868,-53.312 -122.278,-64.858C-139.575,-82.361 -159.233,-97.656 -183.916,-102.388C-202.659,-105.981 -222.097,-106.754 -241.259,-107.134C-262.301,-107.552 -283.377,-105.768 -304.445,-105.511C-332.496,-105.169 -355.18,-92.675 -375.906,-75.26C-399.75,-55.225 -416.098,-29.015 -433.709,-3.985C-438.866,3.346 -442.123,13.191 -442.897,22.173C-444.329,38.801 -443.657,55.653 -443.165,72.391C-442.725,87.386 -432.045,98.03 -418.558,98.518C-418.714,96.482 -418.802,94.415 -418.802,92.316C-418.802,62.334 -402.443,38.028 -382.262,38.028C-362.082,38.028 -345.722,62.334 -345.722,92.316C-345.722,118.552 -358.249,140.442 -374.901,145.502C-375.985,145.982 -377.098,146.444 -378.273,146.87C-356.787,162.038 -322.376,138.69 -319.492,107.655L-249.23,107.655C-248.664,109.437 -248.006,111 -247.676,112.629C-243.779,131.831 -232.348,144.391 -213.322,148.417C-202.885,150.626 -191.839,150.778 -181.095,150.554C-155.76,150.027 -140.46,140.306 -135.251,111.878C-120.154,111.878 -105.819,111.537 -91.527,112.161C-88.612,112.288 -84.042,115.547 -83.317,118.203C-78.056,137.492 -60.667,151.458 -41.198,150.819C-22.593,150.208 -5.626,138.402 -1.102,119.516C0.404,113.23 3.425,110.846 8.441,110.039C19.929,108.191 25.001,100.302 25.52,90.208C26.412,72.805 26.498,55.29 25.65,37.884" style="fill:white;fill-rule:nonzero;"/>
        </g>
    </g>
</svg>
