<?xml version="1.0" encoding="UTF-8" standalone="no"?><!DOCTYPE svg PUBLIC "-//W3C//DTD SVG 1.1//EN" "http://www.w3.org/Graphics/SVG/1.1/DTD/svg11.dtd"><svg width="100%" height="100%" viewBox="0 0 800 800" version="1.1" xmlns="http://www.w3.org/2000/svg" xmlns:xlink="http://www.w3.org/1999/xlink" xml:space="preserve" xmlns:serif="http://www.serif.com/" style="fill-rule:evenodd;clip-rule:evenodd;stroke-linejoin:round;stroke-miterlimit:2;"><g><path d="M399.988,185.099l-13.414,0l0,-95.381l26.842,0l0,95.381l-0.029,0l0,0.019l-13.398,-0.019Zm-336.828,321.23l66.935,-11.798l26.998,-4.757l0,-0.019l0.01,0l-2.36,-13.307l-2.303,-13.082l-0.01,0l0,-0.019l-93.937,16.555l4.667,26.428Zm593.533,-236.103l-48.267,27.843l0,0.019l7.446,12.911l5.964,10.302l82.602,-47.686l-13.421,-23.231l-34.324,19.841Zm-416.796,353.984l-10.575,-8.872l-61.319,73.05l20.565,17.253l26.682,-31.806l34.629,-41.263l-9.981,-8.362Zm450.8,-6.567l13.403,-23.247l-28.815,-16.64l-53.768,-31.07l0,0.019l-7.411,12.817l-5.993,10.401l0,0.019l82.583,47.7Zm-632.091,-230.776l33.5,5.886l60.421,10.682l0,-0.019l0.01,0l3.992,-22.698l0.647,-3.719l0,-0.019l-93.933,-16.578l-4.637,26.465Zm677.564,-25.746l-25.531,4.492l-68.407,12.043l0,0.019l-0.01,0l3.454,19.57l1.209,6.833l0,0.019l93.947,-16.554l-4.663,-26.422Zm-433.83,-156.569l0,0.019l21.773,-7.942l3.422,-1.245l0.01,0l-32.609,-89.642l-25.214,9.193l4.648,12.779l27.97,76.839Zm-194.057,412.486l82.592,-47.679l0,-0.019l-10.329,-17.885l-3.082,-5.343l-82.607,47.681l13.416,23.236l0.01,0l0,0.01Zm440.654,15.969l61.309,73.088l20.538,-17.253l0,-0.019l-61.292,-73.071l0,0.019l0,-0.019l-14.261,11.968l-6.294,5.287Zm-453.73,-359.973l82.602,47.705l11.618,-20.14l1.788,-3.091l0,-0.019l-82.602,-47.686l-13.406,23.231Zm645.493,207.548l-93.928,-16.573l-1,5.664l-3.663,20.764l93.937,16.573l4.653,-26.428Zm-551.631,-319.229l-20.547,17.248l22.529,26.842l38.787,46.223l12.137,-10.194l8.399,-7.045l0.01,-0.019l-61.314,-73.055Zm307.921,-33.288l-24.595,67.538l0.019,0.019l16.799,6.096l8.401,3.053l0.01,0l32.628,-89.62l-25.219,-9.169l-8.043,22.082Zm67.803,119.679l5.21,4.361l61.319,-73.079l-20.555,-17.229l-0.01,0l-61.309,73.055l0,0.019l15.345,12.873Zm-164.793,-204.597c-220.552,0 -399.999,179.433 -399.999,400.004c0,127.054 59.612,240.368 152.268,313.702l40.494,0c-101.69,-67.407 -168.908,-182.834 -168.908,-313.702c-0,-207.413 168.734,-376.145 376.144,-376.145c207.416,0 376.15,168.733 376.15,376.145c0,130.869 -67.219,246.295 -168.913,313.702l40.499,0c92.644,-73.334 152.264,-186.648 152.264,-313.702c0.003,-220.563 -179.444,-400.004 -399.998,-400.004Zm-78.081,575.173c8.391,0 12.576,-8.361 12.576,-25.066c0,-17.291 -4.1,-25.955 -12.316,-25.955c-8.659,0 -12.996,8.787 -12.996,26.38c0,16.432 4.252,24.641 12.736,24.641Zm-35.855,-80.675l71.14,0l0,111.292l-71.14,0l0,-111.292Zm16.008,56.364c0,9.779 1.68,17.234 5.054,22.406c3.369,5.162 8.06,7.757 14.082,7.757c6.437,0 11.439,-2.718 15.025,-8.116c3.586,-5.426 5.384,-13.251 5.384,-23.528c0,-20.736 -6.352,-31.108 -19.051,-31.108c-6.639,0 -11.704,2.727 -15.219,8.258c-3.521,5.493 -5.276,13.609 -5.276,24.331Zm64.482,-56.364l69.865,0l0,111.292l-69.865,0l0,-111.292Zm18.352,84.017c2.775,1.661 6.96,2.51 12.573,2.51c6.658,0 11.91,-1.793 15.723,-5.379c3.813,-3.586 5.739,-8.324 5.739,-14.195c0,-5.664 -1.774,-10.136 -5.324,-13.403c-3.566,-3.246 -8.587,-4.889 -15.081,-4.889c-1.586,0 -3.297,0.056 -5.162,0.169l0,-17.782l22.813,0l0,-6.267l-29.385,0l0,30.452c4.663,-0.34 7.838,-0.509 9.523,-0.509c5.007,0 8.843,1.113 11.519,3.34c2.681,2.229 4.03,5.343 4.03,9.306c0,4.022 -1.313,7.229 -3.946,9.665c-2.628,2.435 -6.079,3.642 -10.368,3.642c-4.294,0 -8.504,-1.34 -12.662,-4.021l0,7.361l0.008,0Zm58.753,-84.017l70.267,0l0,111.292l-70.267,0l0,-111.292Zm17.469,56.364c0,9.779 1.681,17.234 5.059,22.406c3.369,5.162 8.062,7.757 14.082,7.757c6.437,0 11.449,-2.718 15.025,-8.116c3.586,-5.426 5.379,-13.251 5.379,-23.528c0,-20.736 -6.361,-31.108 -19.057,-31.108c-6.633,0 -11.703,2.727 -15.222,8.258c-3.51,5.493 -5.266,13.609 -5.266,24.331Zm19.859,24.311c8.381,0 12.581,-8.361 12.581,-25.066c0,-17.291 -4.105,-25.955 -12.317,-25.955c-8.664,0 -12.996,8.787 -12.996,26.38c-0.01,16.432 4.238,24.641 12.733,24.641Zm-69.315,-138.134c-1.68,0 -3.152,0.605 -4.699,0.926l-183.321,-161.731l163.072,183.551c-0.109,0.925 -0.572,1.756 -0.572,2.671c0,14.13 11.407,25.548 25.519,25.548c14.026,0 25.427,-11.418 25.427,-25.548c0.019,-13.997 -11.399,-25.417 -25.427,-25.417Z" style="fill:#fff;fill-rule:nonzero;"/></g></svg>