<?xml version="1.0" encoding="UTF-8" standalone="no"?><!DOCTYPE svg PUBLIC "-//W3C//DTD SVG 1.1//EN" "http://www.w3.org/Graphics/SVG/1.1/DTD/svg11.dtd"><svg width="100%" height="100%" viewBox="0 0 256 256" version="1.1" xmlns="http://www.w3.org/2000/svg" xmlns:xlink="http://www.w3.org/1999/xlink" xml:space="preserve" xmlns:serif="http://www.serif.com/" style="fill-rule:evenodd;clip-rule:evenodd;stroke-linejoin:round;stroke-miterlimit:2;"><g><g><g><path d="M41.9,11c-3.5,1.7 -3.4,1.1 -3.4,26.3c0,21.2 0,22.3 0.9,23.7c1.6,2.6 2.8,2.9 11.4,2.9c7,0 7.9,-0.1 9.3,-0.9c2.4,-1.4 2.9,-3.2 2.9,-10.1l0,-6l47.7,0l1.6,2.2c0.9,1.2 2.6,2.9 3.8,3.8l2.2,1.6l0,77.9l-2.8,1.1c-6.3,2.4 -13,8.2 -16.5,14.1c-5.5,9.1 -6.1,21.6 -1.7,31.1c3.7,7.8 8.8,12.9 16.5,16.5l4.5,2.2l0,2.1c0,1.9 -0.1,2.2 -2.2,3.7c-1.2,0.9 -2.9,2.6 -3.8,3.8l-1.6,2.2l-47.7,0l0,-6c0,-6.9 -0.5,-8.7 -2.9,-10.1c-1.4,-0.8 -2.3,-0.9 -9.3,-0.9c-8.6,0 -9.8,0.3 -11.4,2.9c-0.9,1.4 -0.9,2.5 -0.9,23.7c0,25.3 0,24.8 3.4,26.4c1.6,0.7 3.1,0.9 8.7,0.9c7.4,0 8.9,-0.3 10.9,-2.5c1.1,-1.2 1.2,-1.6 1.3,-8.2l0.1,-6.9l47.3,0l1.9,2.4c4.4,5.5 10,8 16.7,7.7c6.3,-0.4 10.7,-2.7 14.8,-7.8l1.7,-2.2l47.4,0l0.1,6.9c0.1,6.6 0.2,7 1.3,8.2c2,2.1 3.5,2.5 10.9,2.5c5.9,0 7,-0.1 8.7,-0.9c3.5,-1.7 3.4,-1.1 3.4,-26.4c0,-21.3 0,-22.3 -0.9,-23.7c-1.6,-2.6 -2.8,-2.9 -11.4,-2.9c-7,0 -7.9,0.1 -9.3,0.9c-2.4,1.4 -2.9,3.2 -2.9,10.1l0,6l-47.7,0l-1.6,-2.2c-0.9,-1.2 -2.6,-3 -3.8,-3.8c-2,-1.5 -2.2,-1.8 -2.2,-3.7l0,-2.1l3.8,-1.7c4.8,-2.2 9.4,-5.6 12.4,-9.3c3,-3.6 6.1,-10.1 7.1,-14.8c1.7,-7.7 0,-17.3 -4,-24.1c-3.6,-5.9 -10.3,-11.7 -16.5,-14.1l-2.8,-1.1l0,-78l2.4,-1.8c1.3,-0.9 2.9,-2.6 3.8,-3.8l1.4,-2l48.1,0l0,6c0,6.9 0.5,8.7 2.9,10.1c1.4,0.8 2.3,0.9 9.4,0.9c7,0 8,-0.1 9.3,-0.9c3,-1.8 2.9,-1.3 2.9,-25.8c0,-25.2 0,-24.8 -3.4,-26.3c-1.6,-0.7 -3.1,-0.9 -8.7,-0.9c-7.4,0 -8.9,0.3 -10.9,2.5c-1.1,1.2 -1.2,1.6 -1.3,8.2l-0.1,6.9l-47.3,0l-1.8,-2.2c-4.5,-5.4 -9.4,-7.9 -15.9,-7.9c-6.2,0 -11.6,2.7 -15.7,7.7l-1.9,2.4l-47.4,0l-0.1,-6.9c-0.1,-6.6 -0.2,-7 -1.3,-8.2c-2,-2.1 -3.5,-2.5 -10.9,-2.5c-6,0.1 -7.1,0.2 -8.9,1.1Zm90.6,140.3c3.1,0.9 7,4.5 8.4,7.7c0.8,1.8 1.1,3.3 1.1,5.9c0,4.1 -1,6.6 -3.6,9.6c-5.4,6 -15.3,6 -20.7,0c-2.8,-3 -3.7,-5.5 -3.6,-9.8c0,-4.6 1.3,-7.4 4.8,-10.6c3.6,-3.3 8.5,-4.3 13.6,-2.8Z" style="fill:#fff;fill-rule:nonzero;"/></g></g></g></svg>