<?xml version="1.0" encoding="iso-8859-1"?>
<!-- Uploaded to: SVG Repo, www.svgrepo.com, Generator: SVG Repo Mixer Tools -->
<svg fill="#000000" height="800px" width="800px" version="1.1" id="Layer_1" xmlns="http://www.w3.org/2000/svg" xmlns:xlink="http://www.w3.org/1999/xlink" 
	 viewBox="0 0 512.001 512.001" xml:space="preserve">
<g>
	<g>
		<path d="M506.197,476.271l-21.838-139.856V243.11c0-17.06-13.879-30.939-30.939-30.939h-78.659
			c-15.554,0-28.459,11.539-30.616,26.505h-18.576c-2.454-15.011-15.508-26.505-31.202-26.505H243.09v-28.506
			c14.172-8.041,27.182-20.596,38.239-37.192c18.645-27.986,30.677-65.991,33.883-107.016c0.791-10.127-2.711-20.217-9.61-27.686
			C298.688,4.291,288.897,0,278.736,0H131.146c-10.173,0-19.967,4.285-26.873,11.758c-6.896,7.462-10.396,17.56-9.603,27.7
			c3.203,41.024,15.237,79.029,33.882,107.015c11.056,16.596,24.069,29.151,38.24,37.192v28.506h-39.518
			c-17.436,0-31.622,14.186-31.622,31.622v19.694H22.244c-9.285,0-16.813,7.528-16.813,16.813c0,9.285,7.528,16.813,16.813,16.813
			h73.408v19.693c0,17.438,14.186,31.623,31.622,31.623h60.617l-0.286,20.387l-34.14,49.239c-5.291,7.631-3.393,18.106,4.237,23.397
			c7.632,5.291,18.107,3.393,23.397-4.237l37.062-53.454c1.904-2.747,2.948-6.001,2.994-9.345l0.363-25.986h72.847
			c15.693,0,28.748-11.495,31.202-26.507h18.255v8.383l-22.892,145.941c-1.403,8.94,1.165,18.016,7.046,24.898
			c5.894,6.898,14.465,10.855,23.517,10.855h124.135c9.058,0,17.63-3.948,23.516-10.834
			C505.025,494.289,507.595,485.214,506.197,476.271z M128.193,36.838c-0.065-0.832,0.217-1.656,0.776-2.26
			c0.559-0.605,1.353-0.953,2.176-0.953h147.591c0.812,0,1.602,0.351,2.167,0.964c0.564,0.609,0.85,1.429,0.786,2.25
			c-3.615,46.264-25.753,114.664-69.186,122.866c-5.025,0.965-10.099,0.965-15.124,0c-0.063-0.012-0.124-0.025-0.187-0.038
			C160.342,152.419,132.862,96.591,128.193,36.838z M209.464,193.932v18.239h-9.046v-18.239
			C203.208,194.106,206.391,194.123,209.464,193.932z M292.363,255.49v49.62v9.693H129.278v-69.006c3.167,0,158.232,0,163.085,0
			V255.49z M343.824,288.297h-17.834v-15.994h17.834V288.297z M354.636,478.374l22.612-144.151
			c0.291-1.849,0.204,4.523,0.204-88.425h73.282c0,99.476-0.091,92.64,0.202,94.516l21.558,138.06H354.636z"/>
	</g>
</g>
</svg>