<?xml version="1.0" encoding="UTF-8" standalone="no"?>
<!DOCTYPE svg PUBLIC "-//W3C//DTD SVG 1.1//EN" "http://www.w3.org/Graphics/SVG/1.1/DTD/svg11.dtd">
<svg width="100%" height="100%" viewBox="0 0 800 800" version="1.1" xmlns="http://www.w3.org/2000/svg" xmlns:xlink="http://www.w3.org/1999/xlink" xml:space="preserve" xmlns:serif="http://www.serif.com/" style="fill-rule:evenodd;clip-rule:evenodd;stroke-linejoin:round;stroke-miterlimit:2;">
    <g transform="matrix(2.933682,0,0,2.933682,19.224154,53.488685)">
        <path d="M22.138,128.016C17.201,133.468 13.42,145.775 17.284,150.708C22.259,157.058 21.859,173.439 11.56,173.003C4.844,172.719 7.379,164.594 3.401,151.53C-1.162,136.544 6.209,137.226 11.117,117.404C15.528,99.595 47.48,116.825 48.408,108.483C50.069,93.557 49.339,93.175 57.012,80.214C65.419,66.011 61.552,47.939 56.739,52.74C51.246,58.221 51.33,58.359 44.395,61.266C42.427,62.09 38.882,73.386 27.734,67.098C24.679,65.375 20.176,58.496 25.878,49.752C31.449,41.209 29.342,37.454 38.031,24.194C43.474,15.888 36.911,9.016 41.683,5.783C43.503,4.55 43.183,1.159 47.756,4.115C56.713,9.904 55.362,12.73 59.493,12.399C72.585,11.35 81.503,11.513 96.09,22.994C100.335,26.335 95.8,28.383 97.889,30.074C99.643,31.494 116.324,44.992 114.889,52.59C114.658,53.817 111.723,54.645 112.635,56.441C124.096,79.021 116.094,81.471 119.477,85.518C125.783,93.063 153.878,82.708 175.79,104.205C182.444,110.732 193.093,97.416 214.123,127.763C228.09,147.918 235.358,137.924 238.062,141.836C241.844,147.309 221.164,147.676 223.308,149.589C229.839,155.412 256.662,160.578 257.487,162.507C259.871,168.082 229.622,172.846 220.468,171.829C179.616,167.288 198.301,128.374 187.491,125.53C182.142,124.122 191.263,132.873 176.182,152.256C166.664,164.489 155.237,162.385 160.419,182.524C160.65,183.422 165.842,193.591 160.027,200.079C153.556,207.298 145.831,200.108 132.324,220.388C128.401,226.277 124.629,222.066 121.184,228.33C115.584,238.513 100.06,230.704 101.252,225.46C101.824,222.948 102.202,222.986 101.541,220.488C100.73,217.43 104.023,210.998 109.394,209.202C116.699,206.759 117.978,209.817 123.624,204.637C131.815,197.121 143.04,198.83 135.716,183.396C132.201,175.989 131.344,176.52 122.569,160.457C120.582,156.818 105.449,162.376 77.815,141.08C73.705,137.913 68.584,131.176 65.505,131.55C54.494,132.889 54.455,133.252 43.563,131.223C30.943,128.871 34.214,151.146 35.608,152.397C37.751,154.32 41.753,154.614 41.015,167.49C40.318,179.66 30.03,175.021 27.834,167.397C23.583,152.64 17.202,153.511 20.523,144.509C23.023,137.732 22.183,137.558 23.977,130.601C24.705,127.78 26.242,125.574 23.578,126.731C23.437,126.792 23.472,126.826 22.138,128.016L86.429,21.58C66.313,12.74 65.314,18.336 56.532,17.276C53.098,16.861 51.377,8.164 48.123,13.169C47.931,13.465 45.126,14.405 44.928,15.581C43.843,22.013 44.595,22.325 40.943,27.801C39.685,29.687 27.688,56.034 27.906,58.484C28.558,65.804 36.298,65.624 38.136,61.351C40.693,55.407 43.042,58.032 48.251,54.168C54.964,49.188 57.574,40.793 64.332,51.599C73.073,65.575 56.266,89.845 55.279,93.433C51.183,108.33 56.748,114.051 45.451,115.142C31.937,116.446 17.958,108.831 15.502,118.501C12.937,128.605 12.302,128.308 7.827,137.662C4.448,144.725 8.722,147.106 9.971,161.462C10.018,162.012 10.973,172.984 15.003,166.181C16.358,163.893 17.18,156.651 12.668,153.227C7.836,149.56 13.402,112.503 33.721,123.077C47.246,130.115 66.632,130.114 81.251,120.123C86.14,116.782 85.873,115.469 88.562,116.353C90.158,116.877 92.069,120.845 75.373,128.224C70.286,130.473 74.396,131.851 78.44,135.566C93.083,149.017 120.334,157.818 119.579,152.491C116.637,131.729 123.279,132.489 124.2,133.731C126.901,137.369 115.239,141.921 133.966,171.208C148.723,194.287 143.017,198.581 132.685,203.863C126.154,207.202 124.726,211.539 121.533,211.787C104.745,213.093 106.6,217.588 107.28,218.656C109.542,222.213 106.641,222.236 106.355,225.48C106.162,227.66 114.867,230.581 117.105,226.261C119.52,221.6 119.431,221.059 124.574,219.782C130.602,218.285 132.132,207.969 147.573,200.662C150.925,199.076 161.659,199.875 157.069,186.651C146.395,155.893 171.744,161.593 179.757,136.586C182.724,127.327 177.578,118.643 188.379,120.965C207.596,125.097 177.591,175.011 237.438,166.068C238.133,165.965 245.954,164.796 246.002,164.118C246.121,162.421 243.091,163.345 231.416,158.715C209.496,150.021 210.906,140.469 215.394,141.866C218.951,142.973 218.677,143.59 222.428,144.209C222.626,143.943 222.824,143.676 223.021,143.41C222.869,143.234 223.362,142.913 223.209,142.738C222.902,142.386 222.343,142.385 221.933,142.161C208.533,134.863 205.564,111.394 179.507,110.27C173.582,110.014 174.026,108.768 170.189,104.827C155.743,89.985 113.904,97.602 114.166,84.498C114.707,57.532 105.64,57.187 101.839,49.346C99.825,45.189 108.292,47.078 106.431,44.537C98.104,33.16 80.002,26.27 86.347,23.344C86.943,23.068 86.403,22.946 86.465,22.498L86.429,21.58L22.138,128.016L28.053,155.859C31.567,161.81 35.256,175.76 36.276,168.439C38.115,155.229 31.094,157.174 30.206,154.565C29.921,153.726 30.859,153.684 29.435,143.508C28.399,136.107 34.428,129.227 34.206,128.639C33.986,128.054 30.479,125.756 29.446,128.475C26.104,137.27 27.696,137.661 24.723,146.571C23.403,150.528 24.91,151.662 28.053,155.859L22.138,128.016Z" style="fill:white;"/>
    </g>
</svg>
