<?xml version="1.0" encoding="UTF-8" standalone="no"?><!DOCTYPE svg PUBLIC "-//W3C//DTD SVG 1.1//EN" "http://www.w3.org/Graphics/SVG/1.1/DTD/svg11.dtd"><svg width="100%" height="100%" viewBox="0 0 256 256" version="1.1" xmlns="http://www.w3.org/2000/svg" xmlns:xlink="http://www.w3.org/1999/xlink" xml:space="preserve" xmlns:serif="http://www.serif.com/" style="fill-rule:evenodd;clip-rule:evenodd;stroke-linejoin:round;stroke-miterlimit:2;"><g><g><g><path d="M119.5,10.4c-18.6,2.1 -35.7,10.3 -48.7,23.3c-9.5,9.6 -16,20.3 -20,32.6c-3,9.4 -3.6,13.2 -3.6,24c0,9 0.1,10.1 2,17.2c5.6,21.8 18.3,49.3 38.3,82.9c16.3,27.5 36.9,55.6 40.5,55.6c3.6,0 24.2,-28.3 40.4,-55.5c20.1,-33.7 33.1,-61.9 38.5,-83.3c1.7,-6.7 1.9,-8 1.9,-16.9c0,-10.5 -0.7,-15 -3.8,-24.8c-7.5,-23.6 -27.2,-43.2 -51.4,-51.3c-10.4,-3.5 -23.7,-5 -34.1,-3.8Zm15.8,45.2c9,1.9 17.3,7.5 22.3,15c4.1,6.2 5.4,10.4 5.8,18.2c0.2,4.8 0.1,7.4 -0.6,10.2c-2.5,10.1 -9.4,18.8 -18.4,23.3c-11.1,5.4 -21.6,5.4 -32.7,0c-9,-4.5 -15.9,-13.2 -18.4,-23.3c-1.3,-5.2 -0.9,-15.2 0.9,-20.4c5.9,-16.5 23.8,-26.6 41.1,-23Z" style="fill:#fff;fill-rule:nonzero;"/></g></g></g></svg>