<?xml version="1.0" encoding="UTF-8" standalone="no"?><!DOCTYPE svg PUBLIC "-//W3C//DTD SVG 1.1//EN" "http://www.w3.org/Graphics/SVG/1.1/DTD/svg11.dtd"><svg width="100%" height="100%" viewBox="0 0 256 256" version="1.1" xmlns="http://www.w3.org/2000/svg" xmlns:xlink="http://www.w3.org/1999/xlink" xml:space="preserve" xmlns:serif="http://www.serif.com/" style="fill-rule:evenodd;clip-rule:evenodd;stroke-linejoin:round;stroke-miterlimit:2;"><g><g><path d="M139.9,166.3c0.5,6.2 0,14.6 -0.1,16.9c-0.5,7.9 -4.8,8.4 -4.8,9.4c0,0.5 0,1.1 2.2,1.4c7.3,1.1 10.8,-3.8 10.8,-9.8l0,-21.5l9.7,-0.1c6.1,0 12,1.2 12.8,7.8c5.7,32 4.3,16.5 9.5,52.7c0.3,1.5 -0.1,2.8 -1.3,4c-0.5,5.3 1.3,7 4.4,6.7l0.6,-0.1l1.7,11.6c0,0.4 0.4,0.7 0.8,0.6l7.3,-0.9c0.4,0 0.7,-0.4 0.7,-0.8l-0.8,-11.9l2.8,-1.2l4.9,6.7c0.3,0.6 0.9,0.8 1.5,0.5l5,-2.3c0.6,-0.3 0.8,-0.9 0.5,-1.5l-3,-7.6l2.4,-1.1c2.9,-42.3 -26.8,-60.8 -15,-63.7c6.5,-0.4 10.2,-3 11.2,-7.7c0.7,-3.4 0.6,-3.6 -2.6,-3.6l-14.9,0l-0.3,-7.2l11.1,0c0.8,0 1.4,-0.6 1.4,-1.4l0,-8.9c0,-0.8 -0.6,-1.4 -1.4,-1.4l-15,0c-0.3,-3.5 -0.4,-2.8 -0.7,-6.3c-0.8,-4.6 -2.5,-5 -7.6,-5l-41.9,0.1l1.4,-2l3.2,-0.5c14.7,-15.7 27.4,-1.4 40.9,-20.9l28.3,-41.1l2.2,1.5l5.8,-8.4c2.1,-3.1 1.3,-7.3 -1.8,-9.4l-42.1,-29c-3.1,-2.1 -7.3,-1.3 -9.4,1.7l-5.8,8.4l2,1.4l-28.3,41.1c-13.4,19.5 4.5,26.2 -4.9,45.6l0.6,3c0,0 -7.8,11.2 -8.6,12.2l-3.1,0c-2.2,-0.1 -3,1.3 -2.8,3.6l0,0.5l-11,0l-5.3,-5.4l-10.5,0l0,5.4l6.1,2.9l0,4.6l-2.4,0l0,6.9l2.4,0l0,4.2l-6.1,2.9l0,5.7l10.4,0l5.3,-5.5l11.1,0l0,2.5l7.4,5.8c2.6,2.1 5.7,2.7 9.1,1.7l7.5,-1.7c3.7,1.5 6.2,4 6.5,7.9Zm-93.5,-18c-2.9,0 -5.2,2.3 -5.2,5.2c0,2.9 2.3,5.3 5.2,5.3c2.9,0 5.2,-2.3 5.2,-5.3c0.1,-2.9 -2.3,-5.2 -5.2,-5.2Zm0,-14.1c-2.9,0 -5.2,2.3 -5.2,5.2c0,2.9 2.3,5.2 5.2,5.2c2.9,0 5.2,-2.3 5.2,-5.2c0.1,-2.9 -2.3,-5.2 -5.2,-5.2Zm0,-14.1c-2.9,0 -5.2,2.3 -5.2,5.2c0,2.9 2.3,5.2 5.2,5.2c2.9,0 5.2,-2.3 5.2,-5.2c0.1,-2.9 -2.3,-5.2 -5.2,-5.2Zm13,21.2c-2.9,0 -5.2,2.3 -5.2,5.2c0,2.9 2.3,5.2 5.2,5.2c2.9,0 5.2,-2.3 5.2,-5.2c0,-2.9 -2.3,-5.2 -5.2,-5.2Zm0,-14.2c-2.9,0 -5.2,2.4 -5.2,5.2c0,2.8 2.3,5.2 5.2,5.2c2.9,0 5.2,-2.3 5.2,-5.2c0,-2.9 -2.3,-5.2 -5.2,-5.2Zm12.9,7.1c-2.9,0 -5.2,2.3 -5.2,5.2c0,2.9 2.3,5.2 5.2,5.2c2.9,0 5.2,-2.3 5.2,-5.2c0,-2.9 -2.3,-5.2 -5.2,-5.2Z" style="fill:#fff;fill-rule:nonzero;"/></g></g></svg>