<?xml version="1.0" encoding="UTF-8" standalone="no"?><!DOCTYPE svg PUBLIC "-//W3C//DTD SVG 1.1//EN" "http://www.w3.org/Graphics/SVG/1.1/DTD/svg11.dtd"><svg width="100%" height="100%" viewBox="0 0 800 800" version="1.1" xmlns="http://www.w3.org/2000/svg" xmlns:xlink="http://www.w3.org/1999/xlink" xml:space="preserve" xmlns:serif="http://www.serif.com/" style="fill-rule:evenodd;clip-rule:evenodd;"><ellipse cx="398.57" cy="402.07" rx="372.844" ry="371.906" style="fill:#fff;fill-opacity:0;stroke:#fff;stroke-width:54.16px;"/><path d="M289.352,249.945l0,280.594" style="fill:none;fill-rule:nonzero;stroke:#fff;stroke-width:38.35px;stroke-linecap:round;"/><path d="M401.57,249.945l0,280.594" style="fill:none;fill-rule:nonzero;stroke:#fff;stroke-width:38.35px;stroke-linecap:round;"/><path d="M513.789,249.945l0,280.594" style="fill:none;fill-rule:nonzero;stroke:#fff;stroke-width:38.35px;stroke-linecap:round;"/><path d="M289.352,390.242l224.438,0" style="fill:none;fill-rule:nonzero;stroke:#fff;stroke-width:38.35px;"/><g transform="matrix(0.863014,0,0,1,38.313024,-0)"><text x="253.055px" y="208.776px" style="font-family:'Arial-BoldMT', 'Arial', sans-serif;font-weight:700;font-size:95.765px;fill:#fff;">1</text></g><g transform="matrix(0.863014,0,0,1,55.041874,-0)"><text x="375.176px" y="208.776px" style="font-family:'Arial-BoldMT', 'Arial', sans-serif;font-weight:700;font-size:95.765px;fill:#fff;">3</text></g><g transform="matrix(0.863014,0,0,1,71.770724,-0)"><text x="497.296px" y="208.776px" style="font-family:'Arial-BoldMT', 'Arial', sans-serif;font-weight:700;font-size:95.765px;fill:#fff;">5</text></g><g transform="matrix(0.863014,0,0,1,39.439419,0)"><text x="260.826px" y="648.305px" style="font-family:'Arial-BoldMT', 'Arial', sans-serif;font-weight:700;font-size:97.391px;fill:#fff;">2</text></g><g transform="matrix(0.863014,0,0,1,53.835007,0)"><text x="365.913px" y="648.305px" style="font-family:'Arial-BoldMT', 'Arial', sans-serif;font-weight:700;font-size:97.391px;fill:#fff;">4</text></g><g transform="matrix(0.863014,0,0,1,68.230596,0)"><text x="462.917px" y="648.305px" style="font-family:'Arial-BoldMT', 'Arial', sans-serif;font-weight:700;font-size:97.391px;fill:#fff;">R</text></g></svg>