<svg width="325" height="953" viewBox="0 0 325 953" fill="none" xmlns="http://www.w3.org/2000/svg">
<rect x="155" y="150" width="15" height="803" fill="#D9D9D9"/>
<path fill-rule="evenodd" clip-rule="evenodd" d="M324.189 450.682V518.047C324.189 536.637 309.108 551.729 290.532 551.729H33.6565C15.0809 551.729 0 536.637 0 518.047V450.682C0 432.092 15.081 417 33.6565 417H290.532C309.108 417 324.189 432.093 324.189 450.682Z" fill="#E21D24"/>
<path d="M161.869 299.969C244.64 299.969 311.739 232.818 311.739 149.984C311.739 67.1503 244.64 0 161.869 0C79.0988 0 12 67.1503 12 149.984C12 232.818 79.0988 299.969 161.869 299.969Z" fill="#E21D24"/>
<path d="M268.652 119.425H55.0875V180.544H268.652V119.425Z" fill="white"/>
<path d="M256.076 466.3C256.076 469.031 255.584 471.39 254.599 473.38C253.614 475.369 252.262 476.903 250.545 477.981C248.827 479.06 246.865 479.6 244.66 479.6C242.454 479.6 240.492 479.06 238.774 477.981C237.057 476.903 235.705 475.369 234.72 473.38C233.735 471.39 233.243 469.031 233.243 466.3C233.243 463.569 233.735 461.209 234.72 459.22C235.705 457.231 237.057 455.697 238.774 454.618C240.492 453.539 242.454 453 244.66 453C246.865 453 248.827 453.539 250.545 454.618C252.262 455.697 253.614 457.231 254.599 459.22C255.584 461.209 256.076 463.569 256.076 466.3ZM253.045 466.3C253.045 464.058 252.671 462.166 251.921 460.623C251.18 459.081 250.174 457.914 248.903 457.121C247.64 456.329 246.226 455.933 244.66 455.933C243.094 455.933 241.675 456.329 240.404 457.121C239.141 457.914 238.134 459.081 237.385 460.623C236.644 462.166 236.274 464.058 236.274 466.3C236.274 468.542 236.644 470.434 237.385 471.976C238.134 473.519 239.141 474.686 240.404 475.478C241.675 476.27 243.094 476.667 244.66 476.667C246.226 476.667 247.64 476.27 248.903 475.478C250.174 474.686 251.18 473.519 251.921 471.976C252.671 470.434 253.045 468.542 253.045 466.3Z" fill="white"/>
<path d="M216.673 479.246H208.692V453.354H217.027C219.536 453.354 221.683 453.872 223.468 454.909C225.253 455.937 226.621 457.416 227.572 459.347C228.524 461.268 228.999 463.569 228.999 466.249C228.999 468.946 228.52 471.268 227.56 473.215C226.6 475.154 225.202 476.646 223.367 477.691C221.531 478.727 219.3 479.246 216.673 479.246ZM211.824 476.464H216.471C218.61 476.464 220.382 476.051 221.788 475.225C223.194 474.399 224.242 473.224 224.933 471.698C225.623 470.173 225.968 468.356 225.968 466.249C225.968 464.159 225.627 462.36 224.945 460.851C224.263 459.334 223.245 458.171 221.889 457.362C220.534 456.544 218.846 456.135 216.825 456.135H211.824V476.464Z" fill="white"/>
<path d="M202.412 453.354V479.246H199.28V453.354H202.412Z" fill="white"/>
<path d="M176.15 479.246V453.354H185.192C186.994 453.354 188.48 453.666 189.65 454.29C190.82 454.905 191.692 455.735 192.264 456.78C192.837 457.817 193.123 458.967 193.123 460.231C193.123 461.344 192.925 462.263 192.53 462.988C192.142 463.712 191.629 464.285 190.989 464.707C190.357 465.128 189.671 465.44 188.93 465.642V465.895C189.722 465.946 190.517 466.224 191.317 466.73C192.117 467.235 192.786 467.96 193.325 468.904C193.864 469.848 194.134 471.003 194.134 472.368C194.134 473.666 193.839 474.833 193.25 475.87C192.66 476.907 191.73 477.729 190.458 478.335C189.187 478.942 187.533 479.246 185.495 479.246H176.15ZM179.282 476.464H185.495C187.541 476.464 188.993 476.068 189.852 475.276C190.719 474.475 191.153 473.506 191.153 472.368C191.153 471.492 190.93 470.683 190.484 469.941C190.037 469.191 189.402 468.592 188.577 468.146C187.752 467.69 186.775 467.463 185.647 467.463H179.282V476.464ZM179.282 464.732H185.091C186.034 464.732 186.884 464.547 187.642 464.176C188.408 463.805 189.015 463.283 189.461 462.608C189.915 461.934 190.143 461.142 190.143 460.231C190.143 459.094 189.747 458.129 188.956 457.336C188.164 456.536 186.91 456.135 185.192 456.135H179.282V464.732Z" fill="white"/>
<path d="M169.87 453.354V479.246H166.738V453.354H169.87Z" fill="white"/>
<path d="M140.412 479.246V453.354H143.544V464.884H157.335V453.354H160.467V479.246H157.335V467.665H143.544V479.246H140.412Z" fill="white"/>
<path d="M135.146 466.3C135.146 469.031 134.653 471.39 133.668 473.38C132.683 475.369 131.332 476.903 129.614 477.981C127.897 479.06 125.935 479.6 123.729 479.6C121.523 479.6 119.562 479.06 117.844 477.981C116.126 476.903 114.775 475.369 113.79 473.38C112.805 471.39 112.312 469.031 112.312 466.3C112.312 463.569 112.805 461.209 113.79 459.22C114.775 457.231 116.126 455.697 117.844 454.618C119.562 453.539 121.523 453 123.729 453C125.935 453 127.897 453.539 129.614 454.618C131.332 455.697 132.683 457.231 133.668 459.22C134.653 461.209 135.146 463.569 135.146 466.3ZM132.115 466.3C132.115 464.058 131.74 462.166 130.991 460.623C130.25 459.081 129.244 457.914 127.973 457.121C126.71 456.329 125.295 455.933 123.729 455.933C122.163 455.933 120.745 456.329 119.473 457.121C118.21 457.914 117.204 459.081 116.455 460.623C115.714 462.166 115.343 464.058 115.343 466.3C115.343 468.542 115.714 470.434 116.455 471.976C117.204 473.519 118.21 474.686 119.473 475.478C120.745 476.27 122.163 476.667 123.729 476.667C125.295 476.667 126.71 476.27 127.973 475.478C129.244 474.686 130.25 473.519 130.991 471.976C131.74 470.434 132.115 468.542 132.115 466.3Z" fill="white"/>
<path d="M90.5746 479.246V453.354H99.3139C101.335 453.354 102.993 453.7 104.29 454.391C105.586 455.073 106.546 456.013 107.169 457.21C107.792 458.407 108.104 459.768 108.104 461.293C108.104 462.819 107.792 464.172 107.169 465.352C106.546 466.532 105.591 467.459 104.302 468.133C103.014 468.799 101.368 469.132 99.3645 469.132H92.2921V466.3H99.2634C100.644 466.3 101.756 466.098 102.598 465.693C103.448 465.288 104.062 464.715 104.441 463.974C104.829 463.224 105.022 462.33 105.022 461.293C105.022 460.257 104.829 459.351 104.441 458.575C104.054 457.8 103.435 457.202 102.585 456.78C101.735 456.35 100.611 456.135 99.2129 456.135H93.7066V479.246H90.5746ZM102.749 467.615L109.114 479.246H105.477L99.2129 467.615H102.749Z" fill="white"/>
<path d="M68 479.246V453.354H76.7394C78.7684 453.354 80.4271 453.721 81.7152 454.454C83.0118 455.179 83.9716 456.161 84.5947 457.4C85.2177 458.639 85.5292 460.021 85.5292 461.546C85.5292 463.072 85.2177 464.458 84.5947 465.706C83.9801 466.953 83.0287 467.948 81.7405 468.689C80.4523 469.423 78.8021 469.789 76.7899 469.789H70.5258V467.008H76.6888C78.078 467.008 79.1936 466.768 80.0356 466.287C80.8775 465.807 81.4879 465.158 81.8668 464.34C82.2541 463.514 82.4477 462.583 82.4477 461.546C82.4477 460.51 82.2541 459.582 81.8668 458.765C81.4879 457.947 80.8733 457.307 80.0229 456.843C79.1726 456.371 78.0444 456.135 76.6383 456.135H71.132V479.246H68Z" fill="white"/>
<path d="M231.732 501.159C231.732 503.89 231.239 506.25 230.254 508.239C229.269 510.228 227.918 511.762 226.2 512.841C224.483 513.92 222.521 514.459 220.315 514.459C218.109 514.459 216.148 513.92 214.43 512.841C212.712 511.762 211.361 510.228 210.376 508.239C209.391 506.25 208.898 503.89 208.898 501.159C208.898 498.428 209.391 496.069 210.376 494.079C211.361 492.09 212.712 490.556 214.43 489.478C216.148 488.399 218.109 487.859 220.315 487.859C222.521 487.859 224.483 488.399 226.2 489.478C227.918 490.556 229.269 492.09 230.254 494.079C231.239 496.069 231.732 498.428 231.732 501.159ZM228.701 501.159C228.701 498.917 228.326 497.025 227.577 495.483C226.836 493.94 225.83 492.773 224.559 491.981C223.296 491.189 221.881 490.792 220.315 490.792C218.749 490.792 217.33 491.189 216.059 491.981C214.796 492.773 213.79 493.94 213.041 495.483C212.3 497.025 211.929 498.917 211.929 501.159C211.929 503.401 212.3 505.293 213.041 506.836C213.79 508.378 214.796 509.545 216.059 510.338C217.33 511.13 218.749 511.526 220.315 511.526C221.881 511.526 223.296 511.13 224.559 510.338C225.83 509.545 226.836 508.378 227.577 506.836C228.326 505.293 228.701 503.401 228.701 501.159Z" fill="white"/>
<path d="M201.375 494.686C201.223 493.405 200.608 492.411 199.531 491.703C198.453 490.995 197.131 490.641 195.565 490.641C194.42 490.641 193.418 490.826 192.56 491.197C191.709 491.568 191.044 492.078 190.564 492.727C190.093 493.376 189.857 494.113 189.857 494.939C189.857 495.63 190.021 496.224 190.349 496.722C190.686 497.211 191.116 497.619 191.638 497.948C192.16 498.268 192.707 498.534 193.279 498.744C193.852 498.947 194.378 499.111 194.858 499.238L197.485 499.946C198.158 500.123 198.908 500.367 199.733 500.679C200.566 500.991 201.362 501.416 202.12 501.956C202.886 502.487 203.517 503.169 204.014 504.004C204.511 504.838 204.759 505.862 204.759 507.076C204.759 508.475 204.393 509.739 203.661 510.869C202.936 511.998 201.876 512.896 200.478 513.561C199.089 514.227 197.401 514.56 195.414 514.56C193.561 514.56 191.958 514.261 190.602 513.663C189.255 513.064 188.194 512.23 187.419 511.159C186.653 510.089 186.22 508.846 186.119 507.43H189.352C189.436 508.408 189.764 509.217 190.337 509.857C190.918 510.489 191.65 510.961 192.534 511.273C193.427 511.577 194.387 511.728 195.414 511.728C196.609 511.728 197.683 511.534 198.634 511.147C199.586 510.751 200.339 510.203 200.895 509.503C201.45 508.795 201.728 507.969 201.728 507.025C201.728 506.166 201.488 505.466 201.008 504.927C200.528 504.387 199.897 503.949 199.114 503.612C198.331 503.275 197.485 502.98 196.576 502.727L193.393 501.817C191.372 501.235 189.773 500.405 188.594 499.326C187.415 498.247 186.826 496.835 186.826 495.091C186.826 493.641 187.217 492.377 188 491.298C188.792 490.211 189.853 489.368 191.183 488.77C192.522 488.163 194.016 487.859 195.666 487.859C197.333 487.859 198.815 488.159 200.112 488.757C201.408 489.347 202.435 490.156 203.193 491.184C203.959 492.213 204.364 493.38 204.406 494.686H201.375Z" fill="white"/>
<path d="M164.258 514.105H160.974L170.471 488.213H173.704L183.201 514.105H179.918L172.189 492.309H171.987L164.258 514.105ZM165.47 503.991H178.705V506.772H165.47V503.991Z" fill="white"/>
<path d="M143.262 514.105V488.213H152.001C154.03 488.213 155.689 488.58 156.977 489.313C158.273 490.038 159.233 491.02 159.856 492.259C160.479 493.498 160.791 494.88 160.791 496.406C160.791 497.931 160.479 499.318 159.856 500.565C159.242 501.812 158.29 502.807 157.002 503.549C155.714 504.282 154.064 504.648 152.051 504.648H145.787V501.867H151.95C153.34 501.867 154.455 501.627 155.297 501.147C156.139 500.666 156.75 500.017 157.128 499.2C157.516 498.374 157.709 497.442 157.709 496.406C157.709 495.369 157.516 494.442 157.128 493.624C156.75 492.807 156.135 492.166 155.285 491.703C154.434 491.231 153.306 490.995 151.9 490.995H146.394V514.105H143.262Z" fill="white"/>
<path d="M113.255 514.105V488.213H116.387V511.324H128.41V514.105H113.255Z" fill="white"/>
<path d="M92 514.105V488.213H107.61V490.995H95.132V499.743H106.801V502.525H95.132V511.324H107.812V514.105H92Z" fill="white"/>
</svg>
