<?xml version="1.0" encoding="UTF-8"?>
<svg id="Layer_1" data-name="Layer 1" xmlns="http://www.w3.org/2000/svg" viewBox="0 0 532.3 153.61">
  <defs>
    <style>
      .cls-1 {
        fill: #f15a29;
      }

      .cls-2 {
        fill: #fff;
      }

      .cls-3 {
        fill: #231f20;
        stroke: #808285;
        stroke-miterlimit: 10;
      }
    </style>
  </defs>
  <path class="cls-3" d="M-83.2,50.36l-39.97-4.21c1.5-6.99,3.68-12.48,6.52-16.49,2.84-4.01,6.94-7.48,12.28-10.43,3.84-2.12,9.11-3.77,15.82-4.93,6.71-1.16,13.98-1.75,21.79-1.75,12.54,0,22.61,.7,30.21,2.11,7.61,1.4,13.94,4.33,19.01,8.79,3.56,3.08,6.37,7.45,8.43,13.1,2.06,5.65,3.08,11.05,3.08,16.18v48.19c0,5.13,.32,9.16,.97,12.07s2.07,6.63,4.26,11.15H-40.05c-1.58-2.81-2.61-4.95-3.08-6.42-.48-1.47-.96-3.78-1.44-6.94-5.48,5.27-10.93,9.05-16.34,11.3-7.4,3.02-15.99,4.52-25.79,4.52-13.02,0-22.9-3.01-29.65-9.04-6.75-6.03-10.12-13.46-10.12-22.3,0-8.29,2.43-15.1,7.29-20.45,4.87-5.34,13.84-9.31,26.92-11.92,15.69-3.15,25.86-5.36,30.52-6.63,4.66-1.27,9.59-2.93,14.8-4.98,0-5.14-1.06-8.73-3.19-10.79-2.12-2.06-5.85-3.08-11.2-3.08-6.85,0-11.99,1.1-15.42,3.29-2.67,1.71-4.83,4.93-6.47,9.66Zm36.27,21.99c-5.75,2.06-11.75,3.87-17.98,5.45-8.49,2.26-13.87,4.48-16.13,6.68-2.33,2.26-3.49,4.83-3.49,7.71,0,3.29,1.15,5.98,3.44,8.07,2.29,2.09,5.67,3.13,10.12,3.13s8.99-1.13,13-3.39c4.01-2.26,6.85-5.02,8.53-8.27,1.68-3.25,2.52-7.48,2.52-12.69v-6.68Z"/>
  <path class="cls-2" d="M.2,.5H42.02V28.96H.2V.5ZM.2,42.01H42.02v109.12H.2V42.01Z"/>
  <path class="cls-2" d="M51.91,.5h42.75V78.26l31.24-36.24h51.48l-39.15,38.23,41.41,70.9h-47.12l-22.1-43.74-15.75,15.38v28.36H51.91V.5Z"/>
  <path class="cls-2" d="M290.42,151.13h-39.05v-17.67c-5.82,7.26-11.69,12.43-17.62,15.52-5.92,3.08-13.2,4.62-21.83,4.62-11.51,0-20.54-3.44-27.07-10.33-6.54-6.88-9.82-17.48-9.82-31.8V42.01h42.02v60.01c0,6.85,1.27,11.72,3.8,14.59,2.53,2.88,6.1,4.31,10.69,4.31,5,0,9.1-1.92,12.28-5.75,3.19-3.84,4.78-10.72,4.78-20.65V42.01h41.82v109.12Z"/>
  <path class="cls-2" d="M291.57,120.83l41.51-3.91c1.71,4.93,4.11,8.46,7.19,10.58,3.08,2.12,7.19,3.19,12.33,3.19,5.62,0,9.97-1.19,13.05-3.59,2.4-1.77,3.6-4,3.6-6.67,0-3.01-1.57-5.33-4.73-6.97-2.26-1.16-8.26-2.6-17.98-4.31-14.52-2.53-24.61-4.87-30.26-7.03-5.65-2.16-10.42-5.8-14.28-10.93-3.87-5.13-5.8-10.98-5.8-17.55,0-7.19,2.09-13.38,6.27-18.58,4.18-5.2,9.93-9.08,17.26-11.65,7.33-2.57,17.16-3.85,29.49-3.85,13.01,0,22.62,.99,28.82,2.98,6.2,1.99,11.37,5.07,15.52,9.25,4.14,4.18,7.59,9.83,10.33,16.96l-39.66,3.9c-1.03-3.49-2.74-6.06-5.14-7.71-3.29-2.19-7.26-3.29-11.92-3.29s-8.17,.84-10.33,2.51c-2.16,1.68-3.24,3.71-3.24,6.1,0,2.67,1.37,4.68,4.11,6.05,2.74,1.37,8.7,2.6,17.88,3.69,13.9,1.57,24.25,3.76,31.03,6.57,6.78,2.81,11.97,6.81,15.57,12.01,3.6,5.2,5.4,10.92,5.4,17.14s-1.9,12.42-5.7,18.38c-3.8,5.95-9.8,10.69-17.98,14.22-8.19,3.52-19.33,5.28-33.44,5.28-19.93,0-34.13-2.84-42.59-8.53-8.46-5.69-13.89-13.77-16.29-24.25Z"/>
  <path class="cls-2" d="M448.8,77.36l-39.97-4.21c1.5-6.99,3.68-12.48,6.52-16.49,2.84-4.01,6.94-7.48,12.28-10.43,3.84-2.12,9.11-3.77,15.82-4.93,6.71-1.16,13.98-1.75,21.79-1.75,12.54,0,22.61,.7,30.21,2.11,7.61,1.4,13.94,4.33,19.01,8.79,3.56,3.08,6.37,7.45,8.43,13.1,2.06,5.65,3.08,11.05,3.08,16.18v48.19c0,5.13,.32,9.16,.97,12.07,.65,2.91,2.07,6.63,4.26,11.15h-39.25c-1.58-2.81-2.61-4.95-3.08-6.42-.48-1.47-.96-3.78-1.44-6.94-5.48,5.27-10.93,9.05-16.34,11.3-7.4,3.02-15.99,4.52-25.79,4.52-13.02,0-22.9-3.01-29.65-9.04-6.75-6.03-10.12-13.46-10.12-22.3,0-8.29,2.43-15.1,7.29-20.45,4.87-5.34,13.84-9.31,26.92-11.92,15.69-3.15,25.86-5.36,30.52-6.63,4.66-1.27,9.59-2.93,14.8-4.98,0-5.14-1.06-8.73-3.19-10.79-2.12-2.06-5.85-3.08-11.2-3.08-6.85,0-11.99,1.1-15.42,3.29-2.67,1.71-4.83,4.93-6.47,9.66Zm36.27,21.99c-5.75,2.06-11.75,3.87-17.98,5.45-8.49,2.26-13.87,4.48-16.13,6.68-2.33,2.26-3.49,4.83-3.49,7.71,0,3.29,1.15,5.98,3.44,8.07,2.29,2.09,5.67,3.13,10.12,3.13s8.99-1.13,13-3.39c4.01-2.26,6.85-5.02,8.53-8.27,1.68-3.25,2.52-7.48,2.52-12.69v-6.68Z"/>
  <rect class="cls-1" x=".2" y=".5" width="41.83" height="28.46"/>
</svg>