<?xml version="1.0" encoding="utf-8"?>
<!-- Generator: Adobe Illustrator 27.6.1, SVG Export Plug-In . SVG Version: 6.00 Build 0)  -->
<svg version="1.1" id="Layer_1" xmlns="http://www.w3.org/2000/svg" xmlns:xlink="http://www.w3.org/1999/xlink" x="0px" y="0px"
	 viewBox="0 0 200 200" style="enable-background:new 0 0 200 200;" xml:space="preserve">
<style type="text/css">
  svg * {
    fill: #499BCC; /* o #15439A si prefieres fijo */
  }
</style>
<g>
	<path class="st0" d="M51.8,111.8l-1.8-2l-2.5-2l-3-1.2L42,106h-4.8l-2.2,0.5l-2.5,1.2l-2.5,1.8l-2,2.2l-1.8,3.2l-0.8,2.5v5.8
		L26,125l1.2,2.5L29,130l2.5,2.2l2.5,1.5l3.5,1h4.8l3.5-1l3-1.8l2.8-2.8l1.8-3l1-3.2v-5.2l-0.8-2.5L51.8,111.8z M48.2,121.8
		l-0.8,2.5l-1,1.5l-2,1.8l-2,1l-1.2,0.2h-2.8L36,128l-2-1.5l-1.5-2l-1-2.2v-4l1-2.2l2.2-2.5l2.5-1.2l1-0.2h3.5l2.5,1l2,1.8l1.5,2.2
		l0.5,2V121.8z"/>
	<path class="st0" d="M170.5,114l-2-3.2l-2.8-2.5l-2.8-1.5l-3.5-0.8h-4.8l-2,0.5l-2.5,1l-2.5,1.8l-2.2,2.5l-2,4l-0.8,3v3l0.2,1.8
		l0.8,2.2l2,3.5l2,2l2.8,2l3.2,1.2l3.5,0.5l2.8-0.2l2.5-0.8l3.5-1.8l3-3l1.8-3l1-3.2v-4.8l-0.2-1.5L170.5,114z M165.8,121.8
		l-0.8,2.5l-1.8,2.2l-2.5,1.8l-1.8,0.5h-3.5l-2.5-1l-2.2-2l-1.5-2.8l-0.2-1v-3.2l1-2.8l2.2-2.5l2.5-1.2l0.8-0.2h3.8l2.2,0.8l2.5,2.2
		l1.2,2l0.5,1.8V121.8z"/>
	<path class="st0" d="M187,106.5l-1-3.8l-2-4.2l-1.5-2.2L180,94l-3-1.8l-5-2l-8.8-2.5l-15.8-3.5l-5.5-1.5l-3.8-1.5l-4-2l-8-4.2
		l-8.2-4l-5-2l-5.5-1.8l-7-1.5l-8.2-1.2l-10-0.8H65L60.2,64l-9.8,0.8L40.8,66l-7.5,1.2l-2.8,1L28,70l-1.8,1.8l-2.8,4L21,80.5l-2,5.2
		l-1.2,6L16,95.2l-2.2,2.5L13.2,99l-0.8,3.8v7.8l0.8,4.5l0.8,2.5l1,1l3,1.8l4,2l1.2,0.5l0.2-4.2l0.8-3.8l1.5-3l2-2.8l2.5-2.2
		l3.2-1.8l4-1h4.8l2.8,0.5l2.5,1l3.2,2.2l2.8,3l2,4l0.8,3.5v3.2l-0.2,3l25,0.2h28.2l19.2-0.2l12.5-0.2v-6.5l0.2-1.2l1.2-3.5l2.2-3.5
		l3-2.8l3.2-1.8l3.8-1h5.2l1.5,0.2l3.5,1.2l3.2,2.2l2.8,3l1.5,2.8l1,3.2v7.2h1.2l3.2-0.8l4.5-1.2l3-1.5l1.2-1.2l0.8-3.5V110
		L187,106.5z M45.5,77.8l-1.8,6.8l-0.5,0.8l-2.5-0.8l-2-1.8l-1-1.2l-1-2.5l-0.2-2.5l0.8-2.5l1.5-2.2l2.8-1.8l1.8-0.8l4-0.8h1.2
		L45.5,77.8z M80,85.8h-8.8l-20-0.2L48,85.2l0.2-2.8l0.8-4.2l1.5-5.8l1.5-3.8l1.2-0.8l6.5-0.5l9-0.2h9.8l0.5,0.2l0.5,5.8l0.5,8.2
		V85.8z M130.5,89.5l-18-1.5l-21.8-1.5L89,86l-3.5-17.5v-0.8h3.8l6.8,0.8l7,1.2l6,1.5l6,2l5,2.2l4.2,2.2l4.5,3.2l3,2.8l2,2.2l1,2
		l0.2,1.8L130.5,89.5z"/>
</g>
</svg>
