<?xml version="1.0" encoding="utf-8"?>
<!-- Generator: Adobe Illustrator 27.6.1, SVG Export Plug-In . SVG Version: 6.00 Build 0)  -->
<svg version="1.1" id="Layer_1" xmlns="http://www.w3.org/2000/svg" xmlns:xlink="http://www.w3.org/1999/xlink" x="0px" y="0px"
	 viewBox="0 0 200 200" style="enable-background:new 0 0 200 200;" xml:space="preserve">
<style type="text/css">
  svg * {
    fill: #499BCC; /* o #15439A si prefieres fijo */
  }
</style>
<path class="st0" d="M36.4,119.1c-2,0-3.7,1.7-3.7,3.7s1.7,3.7,3.7,3.7c2,0,3.7-1.7,3.7-3.7S38.5,119.1,36.4,119.1z"/>
<circle class="st0" cx="162.2" cy="122.4" r="3.7"/>
<path class="st1" d="M-27.1,79.3l0.5-6.7c0.1-1.4-1-2.7-2.5-2.6l-26.4,0.5c-6.4,0-12.1,4.2-12.1,10.7l38.8-0.2
	C-27.9,81-27.2,80.3-27.1,79.3z"/>
<g>
	<path class="st0" d="M36.4,112.1c-5.9,0-10.7,4.8-10.7,10.7s4.8,10.7,10.7,10.7c5.9,0,10.7-4.8,10.7-10.7S42.4,112.1,36.4,112.1z
		 M36.4,130.5c-4.3,0-7.7-3.5-7.7-7.7s3.5-7.7,7.7-7.7c4.3,0,7.7,3.5,7.7,7.7S40.7,130.5,36.4,130.5z"/>
	<path class="st0" d="M162.2,111.7c-5.9,0-10.7,4.8-10.7,10.7s4.8,10.7,10.7,10.7c5.9,0,10.7-4.8,10.7-10.7S168.1,111.7,162.2,111.7
		z M162.2,130.2c-4.3,0-7.7-3.5-7.7-7.7s3.5-7.7,7.7-7.7s7.7,3.5,7.7,7.7S166.5,130.2,162.2,130.2z"/>
	<path class="st0" d="M190.2,117.6L189,113l-1.5-6.2c0,0,0-0.1,0-0.1l-1.4-4.7c-0.1-0.2-0.1-0.3-0.3-0.5l-0.5-0.7
		c-0.2-0.2-0.5-0.4-0.8-0.5l-4.7-1.1c0,0-0.1,0-0.1,0l-12.4-2l-2.6-0.5l-2.9-0.5l-1-0.1L148.8,94c0,0-0.1,0-0.1,0l-4-1
		c-0.1,0-0.2-0.1-0.3-0.1l-1.8-0.9c0,0-0.1,0-0.1,0l-4.2-2.4c0,0-0.1,0-0.1-0.1l-2.5-1.7L133,86l-4-2.5l-5.1-2.9
		c-0.1,0-0.2-0.1-0.3-0.1l-2.7-0.9c-0.1,0-0.2-0.1-0.3-0.1l-4-0.5c-0.1,0-0.1,0-0.2,0H97.7c-0.1,0-0.2,0-0.3,0l-0.8-0.2L96,78
		l-0.6-0.5l-0.2-0.3L95,77.2l-0.5-0.4c0,0-0.1-0.1-0.1-0.1l-0.8-0.8c0,0-0.1-0.1-0.2-0.1l-0.3-0.3h-0.6H80.5L66,75.8l-9.8,0.5v0.2
		l6.2,0.2H48L40.5,77v0l-5.2,0.2l-0.5,0.2l-0.9,1.1l-0.9,0.8c-0.1,0.1-0.2,0.2-0.4,0.2l-1.3,0.6c-0.2,0.1-0.3,0.1-0.5,0.1L23,80.5
		L22.8,81l4.8,0.2h-3.6c-0.1,0-0.2,0-0.3,0L20.8,82c-0.1,0-0.1,0-0.2,0.1l-2,0.8c-0.3,0.1-0.5,0.3-0.7,0.6l-0.4,0.6
		c-0.1,0.1-0.2,0.2-0.3,0.3l-1.7,1.5c-0.1,0.1-0.1,0.1-0.2,0.2L13.2,89l-2,2.7c0,0,0,0.1-0.1,0.1l-1.4,2.3c-0.1,0.1-0.1,0.2-0.1,0.3
		l-0.9,3c0,0,0,0.1,0,0.1l-1,4.8c0,0.1,0,0.2,0,0.3v4.2c0,0.1,0,0.2,0,0.3l0.4,2.4c0,0.1,0.1,0.3,0.1,0.4l1.3,2.6
		c0.1,0.2,0.1,0.3,0.1,0.5l0.2,2.7H9.2L9,116.2v3.5l0.2,0.8l1,0.4c0.2,0.1,0.3,0.2,0.5,0.3l0.5,0.5L12,122l7.6,0.2
		c0.1,0,0.2,0,0.2,0l1.6-0.2v0.8l1.8,0.5l1-0.2l0.2-3.4c0-0.1,0-0.1,0-0.2l0.2-1c0-0.1,0-0.2,0.1-0.3l0.7-1.5c0,0,0-0.1,0.1-0.1
		l1.1-2c0.1-0.1,0.2-0.3,0.3-0.4l2-1.7c0.1-0.1,0.2-0.1,0.3-0.2l2-1.1c0.1,0,0.2-0.1,0.3-0.1l2.2-0.6c0.1,0,0.3-0.1,0.4-0.1h4.7
		c0.1,0,0.2,0,0.2,0l1.2,0.2c0.1,0,0.3,0.1,0.4,0.1l2.6,1.3c0.1,0.1,0.2,0.1,0.3,0.2l1.8,1.5c0.1,0.1,0.1,0.1,0.2,0.2l1.5,2
		c0.1,0.1,0.1,0.2,0.2,0.3l1.1,2.6c0.1,0.1,0.1,0.2,0.1,0.4l0.5,4.1l0.2,0.2l1.8-0.3c0.6-0.1,1-0.5,1.1-1.1l0.1-0.3h95l0.2,1.2
		l0.8,0.2h0.9c0.8,0,1.4-0.6,1.4-1.3l0.2-3c0-0.1,0-0.3,0.1-0.4l0.6-1.9c0-0.1,0.1-0.2,0.1-0.3l1.3-2.2c0.1-0.1,0.2-0.2,0.3-0.3
		l1.7-1.5c0.1-0.1,0.2-0.1,0.3-0.2l2.4-1.3c0.1-0.1,0.3-0.1,0.4-0.1l2.1-0.4c0.1,0,0.2,0,0.3,0h4c0.1,0,0.2,0,0.2,0l1.2,0.2
		c0.1,0,0.2,0,0.3,0.1l2.2,0.9c0.1,0,0.2,0.1,0.3,0.2l2.2,1.5c0.1,0.1,0.2,0.2,0.3,0.3l1.8,2.2c0.1,0.1,0.1,0.2,0.2,0.3l0.8,1.9
		c0.1,0.1,0.1,0.3,0.1,0.4l0.5,5l0.2,0.2l2.5-0.5l0.5-0.8l10.8-0.2l0.8-0.5l1-1.4c0.2-0.2,0.3-0.5,0.3-0.8v-1.4
		C190.2,117.8,190.2,117.7,190.2,117.6z M55.5,91.9c0,0.3-0.1,0.5-0.2,0.7c-0.1,0.7-0.7,1.2-1.4,1.2H29.2l-7-0.1l-7.3,0
		c0-5,3.3-8.6,7.7-10l0.1-0.2l1.4-0.2c1-0.2,1.9-0.3,3-0.3l26.4-0.5c0.4,0,0.8,0.1,1.1,0.2c0.8,0,1.4,0.7,1.3,1.5l0,0.2
		c0.1,0.2,0.1,0.5,0.1,0.7L55.5,91.9z M68.4,98.2c0,0.5-0.4,0.9-0.9,0.9h-6.2c-0.5,0-0.9-0.4-0.9-0.9V98c0-0.5,0.4-0.9,0.9-0.9h6.2
		c0.5,0,0.9,0.4,0.9,0.9V98.2z M94.5,92.8c0,0.8-0.6,1.4-1.4,1.4H72L60,94l-0.2-0.2v-3.5l0.2-5.7c0,0,0-0.1,0-0.1l0.1-0.5
		c0.1-0.7,0.7-1.2,1.3-1.2l3.3-0.2l21-0.2H94l0.2,0.2l0.2,8.2V92.8z M109.9,98.2c0,0.5-0.4,0.9-0.9,0.9h-6.2c-0.5,0-0.9-0.4-0.9-0.9
		V98c0-0.5,0.4-0.9,0.9-0.9h6.2c0.5,0,0.9,0.4,0.9,0.9V98.2z M123,94.5l-22.7-0.2c-0.6,0-1.1-0.4-1.3-1l-0.1-0.4
		c0-0.1-0.1-0.2-0.1-0.3L98,83.4c0-0.1,0-0.3,0-0.4l0.2-1.1l8.2-0.2h11.1c0.1,0,0.2,0,0.3,0l4.2,0.9c0.1,0,0.2,0.1,0.3,0.1l2.8,1.4
		c0,0,0.1,0,0.1,0.1L128,86l4.2,3v0.5l1,0.2c0.2,0,0.3,0.1,0.5,0.2l6.3,3.9l0.2,0.8H123z"/>
</g>
</svg>
