<?xml version="1.0" encoding="utf-8"?>
<!-- Generator: Adobe Illustrator 27.6.1, SVG Export Plug-In . SVG Version: 6.00 Build 0)  -->
<svg version="1.1" id="Layer_1" xmlns="http://www.w3.org/2000/svg" xmlns:xlink="http://www.w3.org/1999/xlink" x="0px" y="0px"
	 viewBox="0 0 200 200" style="enable-background:new 0 0 200 200;" xml:space="preserve">
<style>
  svg * {
    fill: #499BCC; /* o #15439A si prefieres fijo */
  }
</style>	 
<g>
	<path d="M53.3,107.2c-9.1,0-16.4,7.4-16.4,16.4c0,9.1,7.4,16.4,16.4,16.4c9.1,0,16.4-7.4,16.4-16.4
		C69.8,114.6,62.4,107.2,53.3,107.2z M53.3,135.3c-6.4,0-11.7-5.2-11.7-11.7c0-6.4,5.2-11.7,11.7-11.7c6.4,0,11.7,5.2,11.7,11.7
		C65,130.1,59.8,135.3,53.3,135.3z"/>
	<path d="M181.8,90.8L181,89l-1-1.2l-2.2-1.8l-5.5-2.2l-17-5.8l-2.8-0.8v-0.5l-1.8-2.8l-7.5-12.5l-2.5-4.5l-2.8-3.8l-2.5-2.2
		l-2.5-1.2l-3.5-1l-6.2-0.5H30.8L29,48.5l-2,1l-2,1.8l-1.2,2L23,55.8v59l0.8,2.8l1.2,2l2.2,1.8l2.8,1h5.6
		c0.4-9.5,8.2-17.1,17.8-17.1c9.2,0,16.7,6.9,17.7,15.8l0.4,1.3h60.8l0.4-1.7c1.2-8.7,8.6-15.4,17.6-15.4c9.6,0,17.4,7.6,17.8,17.1
		l0,0h7l2.8-1l2.2-2l1.2-2l0.8-3V92L181.8,90.8z M142.8,79.2l-0.8,0.2h-39.8l-0.5-0.8V58l0.5-1l6.2-0.2H127l4.8,0.2l1.2,1.5l9,18
		l0.8,1.8V79.2z M180.5,106.2l-1,1.5l-0.8,0.5h-11.2l-1.5-1.8v-8.2l1.2-1.8l0.5-0.2h10.8l1.8,1.5l0.2,0.8V106.2z"/>
	<path d="M150.2,107.2c-9.1,0-16.4,7.4-16.4,16.4c0,9.1,7.4,16.4,16.4,16.4c9.1,0,16.4-7.4,16.4-16.4
		C166.6,114.6,159.2,107.2,150.2,107.2z M150.2,135.3c-6.4,0-11.7-5.2-11.7-11.7c0-6.4,5.2-11.7,11.7-11.7c6.4,0,11.7,5.2,11.7,11.7
		C161.8,130.1,156.6,135.3,150.2,135.3z"/>
</g>
</svg>
