<?xml version="1.0" encoding="utf-8"?>
<!-- Generator: Adobe Illustrator 27.6.1, SVG Export Plug-In . SVG Version: 6.00 Build 0)  -->
<svg version="1.1" id="Layer_2" xmlns="http://www.w3.org/2000/svg" xmlns:xlink="http://www.w3.org/1999/xlink" x="0px" y="0px"
	 viewBox="0 0 200 200" style="enable-background:new 0 0 200 200;" xml:space="preserve">
<style type="text/css">
  svg * {
    fill: #499BCC; /* o #15439A si prefieres fijo */
  }
</style>
<path class="st0" d="M163.9,107.5c-4.5,0-8.1,3.6-8.1,8.1c0,4.5,3.6,8.1,8.1,8.1c4.5,0,8.1-3.6,8.1-8.1
	C172,111.1,168.3,107.5,163.9,107.5z M167.6,116.9l0.9,5.1l-4.6-2.3l-4.5,2.4l0.8-5.1l-3.7-3.6l5.1-0.8l2.2-4.6l2.3,4.6l5.1,0.7
	L167.6,116.9z"/>
<path class="st1" d="M143.2,89.8l-0.5-2l-0.2-0.6l-0.2-0.9h-0.1l-0.2-0.4l0-0.1l-0.5-1l-0.8-0.7l-0.4-0.5l-0.7-0.5l-0.8-0.7
	l-0.3-0.1l-1.2-0.9l-4-2.8l-4.5-2.8l-0.5-0.2l-3.5-1.8l-0.5-0.2l-2-0.5l-4.5-1.5l-4.8-0.8l-6-0.8H79.2l-2.8,0.2l-0.8,0.2l-1.2,0.8
	l-0.8,1.2l-1,5l-1,3.5l-1,5.9l-0.1,3.7l0.4,2.5l1.2,3.8l1.2,5.5l1.5,5.2l0.1,0.4l0.1,0.4l0.3,0.7l1,2.6l0.2,0.1l0.6,1.4L78,114
	l41,0.2h12.2l10-0.2l0.2-0.2l0.8-2.2l1.2-10.5v-9L143.2,89.8z M142.8,101l-0.2,3l-1,7.8l-0.8,1.8h-37.2v-28L103.2,72h-0.5l0.2,1.8
	l0.2,8v27l-0.2,4.8H78.5l-0.8-0.2l-0.8-1.8l-2.4-7.1c-0.3-0.8-0.5-1.6-0.7-2.4l-1-4.3l-1.3-4.6c-0.3-1.1-0.4-2.2-0.4-3.3V88l0.8-4.2
	l0.9-4.8h0l0.5-2.8l0.7-2.7l0.6-1.7l0.2-0.1l2.1-0.4l0.3-0.3h12.5l13,0.2l0.2,0.2l0.2-0.5l0.8,0.2l5.8,0.2l8,1l2,0.5l0.2-0.2l0.1,0
	L120,73l1.5,0.5l3.8,1.5l5.5,3l2.8,1.8l3.5,2.5l0.2,0.2v0.1l2,1.3l0.5,0.4l1.4,1.4l0.2,0.3l0.2,0.3l0.2,1.2l1,5.8V101z"/>
<g>
	<path class="st0" d="M114.9,94.2c1.2,0,2.3-0.2,2.3-0.4c0-0.2-1-0.4-2.3-0.4c-1.2,0-2.3,0.2-2.3,0.4
		C112.7,94,113.7,94.2,114.9,94.2z"/>
	<rect x="111.1" y="94.4" class="st0" width="7.7" height="0.6"/>
</g>
<g>
	<path class="st0" d="M50.9,107.7c-4.5,0-8.1,3.6-8.1,8.1c0,4.5,3.6,8.1,8.1,8.1c4.5,0,8.1-3.6,8.1-8.1
		C59,111.3,55.4,107.7,50.9,107.7z M54.7,117l0.9,5.1l-4.6-2.3l-4.5,2.4l0.8-5.1l-3.7-3.6l5.1-0.8l2.2-4.6l2.3,4.6l5.1,0.7L54.7,117
		z"/>
	<path class="st0" d="M50.9,101.6c-7.8,0-14.2,6.3-14.2,14.2c0,7.8,6.3,14.2,14.2,14.2s14.2-6.3,14.2-14.2
		C65.1,107.9,58.8,101.6,50.9,101.6z M50.9,124.7c-4.9,0-8.9-4-8.9-8.9c0-4.9,4-8.9,8.9-8.9c4.9,0,8.9,4,8.9,8.9
		C59.9,120.7,55.9,124.7,50.9,124.7z"/>
	<path class="st0" d="M71,105.5l-1.5-5.8l-2-7L67,88.2v-2.5H19.2l-6,0.2L13,87.2l-0.2,3.2l-0.5,2.8v7l1.5,6l1,0.8l1.5,1.2l2.2,3.5
		l0.5,1.5l2,0.5l7.2,1l6,0.8l0.5-1.5l1.8-6l1.8-3l1.8-1.8l2.5-2L45,100l3.8-0.8h4.5l4,0.8l2,1l2.5,1.8l2.5,2.5l1.8,3.2l1.8,4.8
		l0.2,3.5l0.2,0.2H74v-0.8l-1-4.8L71,105.5z M18.2,95.5l-1.2,7.2l-3.2,0.8l-1-5.8l0.2-7.2l0.2-1.5l2,0.2l2.2,0.8l1.2,1l0.2,1.2
		L18.2,95.5z"/>
	<path class="st0" d="M163.9,101.4c-7.8,0-14.2,6.3-14.2,14.2c0,7.8,6.3,14.2,14.2,14.2s14.2-6.3,14.2-14.2
		C178.1,107.8,171.7,101.4,163.9,101.4z M163.9,124.5c-4.9,0-8.9-4-8.9-8.9c0-4.9,4-8.9,8.9-8.9c4.9,0,8.9,4,8.9,8.9
		C172.8,120.5,168.8,124.5,163.9,124.5z"/>
	<path class="st0" d="M191.1,104.2l-1-1.5l-3.7-10.9l-3.8-1.6l-3.2-1.2l-12.2-2.5l-9-1.2l-12.8-0.5l-1-0.2l-1.8-1l-2-1.8l-2.5-1.2
		l-2.2-1.5l-3-1.5l-4-2.5l-3.5-1.5l-6.2-2.8l-3-0.5l-8.8-0.5H74.9l-2.8,0.2l-1.8,0.5l-0.2,1.2l-1,8l-0.5,6v4.5l0.2,2.5l1.2,6
		l2.2,7.2l1.8,7.8l1.2,3.8h71.2l0.2-1.3c0-0.1,0-0.2,0-0.4c0-0.1,0-0.2,0-0.3c0-0.1,0-0.2,0-0.3c0-9.1,7.5-16.6,16.8-16.6
		c9.3,0,16.8,7.4,16.8,16.6c0,0.7-0.1,1.3-0.1,2l0.2,0.3h1.2l3.5-0.5l2.8-1.5l1.2-1.5l1.5-3l0.8-3.2v-2.8L191.1,104.2z M80.7,94.8
		c-1.5,0-2.6-0.3-2.6-0.7c0-0.4,1.2-0.7,2.6-0.7s2.6,0.3,2.6,0.7C83.3,94.6,82.1,94.8,80.7,94.8z M100.1,87.7l-4.8-0.2l-18.5-1.5
		l-2.5-0.8l-0.5-0.5v-3l1.2-5.8l0.8-2l1.2-1.2l4-0.2h13.5l5.2,0.2l0.2,0.2V87.7z M114.9,95.8c-2.6,0-4.7,0.1-4.7-1.1
		c0-1.2,2.1-1.8,4.7-1.8c2.6,0,4.7,0.6,4.7,1.8C119.6,95.8,117.5,95.8,114.9,95.8z M138.9,88.2l-4.8,0.5h-13l-14.2-0.5l-0.2-0.2
		l-0.8-11v-4h4.8l8,0.8l3.2,1l6.2,3l2.2,1.2l5.2,3.5l2.8,2.2l1.5,1l0.2,1.8L138.9,88.2z M187.6,99.9l-6.8-3l-2.5-1.5l-1-1.8
		l-2.5-1.5l-0.2-1l0.5-0.2h2.2l1.5,0.2l5.5,1.5l2,1l2.5,6.8L187.6,99.9z"/>
</g>
</svg>
