<?xml version="1.0" encoding="utf-8"?>
<!-- Generator: Adobe Illustrator 27.6.1, SVG Export Plug-In . SVG Version: 6.00 Build 0)  -->
<svg version="1.1" id="Layer_1" xmlns="http://www.w3.org/2000/svg" xmlns:xlink="http://www.w3.org/1999/xlink" x="0px" y="0px"
	 viewBox="0 0 200 200" style="enable-background:new 0 0 200 200;" xml:space="preserve">
<style type="text/css">
  svg * {
    fill: #499BCC; /* o #15439A si prefieres fijo */
  }
</style>
<path class="st0" d="M163.2,110l2.5,0.5l1.5,0.8l-0.5,1.2l-2,2.2h-1.2L163,113v-2.2L163.2,110z"/>
<path class="st0" d="M166.5,120h4l0.5,0.2l-0.2,1.8l-1,2l-0.8,0.5l-1.2-1.2l-1-1.8l-0.5-1.2L166.5,120z"/>
<path class="st0" d="M36.5,119.8l4.2,0.2l0.5,0.8l-2,3l-1.8,0.2l-1-3.2V119.8z"/>
<path class="st0" d="M42,110.2h1.5l0.2,1l0.2-1h0.5l0.2,2.8l-0.5,1.8H44v-2.2h-0.5l-0.2,2.5l-1-0.2l-0.8-1.5l-1.2-1.5l0.2-0.8
	L42,110.2z"/>
<path class="st0" d="M38,113l1,0.5l2.2,3L41,117l-1.2,0.2h-3.2l-0.2-0.5l1-2L38,113z"/>
<path class="st0" d="M46.2,110.2l2.2,0.2l2,0.8l-0.5,1.2l-1.8,0.8l-0.8,1.5L47,115l-0.5-0.2l-0.5-4.2L46.2,110.2z"/>
<path class="st0" d="M163.2,123l2.8,1l1.2,1.5l-0.2,0.8l-2.8,0.8h-1l-0.2-0.5V124L163.2,123z"/>
<path class="st0" d="M153.2,120h2.5l2.2,0.2l-0.2,1L156,124l-1,0.2l-0.5-2.5h-1L153.2,120z"/>
<path class="st0" d="M160,110.2h1v4.5h-1l-0.2-1.2L158,113l-1-1.2l0.2-0.8L160,110.2z"/>
<path class="st0" d="M168.8,113l1,0.2l1.2,3.5l-0.2,0.2l-3,0.2l-1.5-0.2l0.5-1L168.8,113z"/>
<path class="st0" d="M46.8,122.2h0.5L48,124l2,0.8l0.5,0.5l-0.2,1l-2.2,0.5h-2l0.2-2.8L46.8,122.2z"/>
<path class="st0" d="M160,123.2l1,0.2l0.2,2.2v1H159l-2-0.5l0.2-1l1.5-1.5L160,123.2z"/>
<path class="st0" d="M155.2,113l0.8,0.2l1.8,3v0.8h-4.2v-1l1.2-1.2L155.2,113z"/>
<path class="st0" d="M50.5,120h2.2l0.5,0.2v1.5l-1,2.5l-1-0.5l-1-2l-0.8-0.8v-0.8L50.5,120z"/>
<path class="st0" d="M51.5,113l1,0.2l1,2.8v1l-2.5,0.2l-1.5-0.2l1-2l0.8-1.2L51.5,113z"/>
<path class="st0" d="M42.5,122.2l0.8,0.2l0.2,3l-0.2,1.2h-1.8l-1.2-0.8l0.2-1l1.5-1.5L42.5,122.2z"/>
<path class="st0" d="M44.2,123.2h0.2l0.2,2.8l-0.2,0.8h-0.8l0.2-3.2L44.2,123.2z"/>
<path class="st1" d="M163.4,103c-8.4,0-15.2,6.8-15.2,15.2s6.8,15.2,15.2,15.2s15.2-6.8,15.2-15.2S171.7,103,163.4,103z
	 M155.9,111.9l4.3,4.3c-0.2,0.3-0.4,0.7-0.5,1.1h-6C153.8,115.3,154.7,113.4,155.9,111.9z M153.7,118.9h6c0.1,0.4,0.2,0.8,0.5,1.1
	l-4.2,4.2C154.7,122.8,153.8,120.9,153.7,118.9z M162.4,127.6c-2-0.2-3.9-1-5.4-2.2l4.2-4.2c0.4,0.2,0.8,0.4,1.2,0.5V127.6z
	 M162.4,114.5c-0.4,0.1-0.8,0.3-1.2,0.5l-4.2-4.2c1.5-1.3,3.3-2.1,5.4-2.2V114.5z M164,108.6c2,0.2,3.9,1,5.4,2.2l-4.1,4.1
	c-0.4-0.2-0.8-0.4-1.3-0.5V108.6z M164,127.6v-5.8c0.5-0.1,0.9-0.3,1.3-0.5l4.1,4.1C167.9,126.7,166.1,127.5,164,127.6z
	 M170.5,124.3l-4.1-4.1c0.3-0.4,0.5-0.8,0.6-1.3h5.7C172.6,120.9,171.8,122.8,170.5,124.3z M167,117.3c-0.1-0.5-0.3-0.9-0.6-1.3
	l4.1-4.1c1.3,1.5,2.1,3.3,2.2,5.4H167z"/>
<path class="st1" d="M45.4,103c-8.4,0-15.2,6.8-15.2,15.2s6.8,15.2,15.2,15.2s15.2-6.8,15.2-15.2S53.8,103,45.4,103z M37.9,111.9
	l4.3,4.3c-0.2,0.3-0.4,0.7-0.5,1.1h-6C35.9,115.3,36.7,113.4,37.9,111.9z M35.7,118.9h6c0.1,0.4,0.2,0.8,0.5,1.1l-4.2,4.2
	C36.7,122.8,35.9,120.9,35.7,118.9z M44.4,127.6c-2-0.2-3.9-1-5.4-2.2l4.2-4.2c0.4,0.2,0.8,0.4,1.2,0.5V127.6z M44.4,114.5
	c-0.4,0.1-0.8,0.3-1.2,0.5l-4.2-4.2c1.5-1.3,3.3-2.1,5.4-2.2V114.5z M46,108.6c2,0.2,3.9,1,5.4,2.2l-4.1,4.1
	c-0.4-0.2-0.8-0.4-1.3-0.5V108.6z M46,127.6v-5.8c0.5-0.1,0.9-0.3,1.3-0.5l4.1,4.1C49.9,126.7,48.1,127.5,46,127.6z M52.5,124.3
	l-4.1-4.1c0.3-0.4,0.5-0.8,0.6-1.3h5.7C54.6,120.9,53.8,122.8,52.5,124.3z M49,117.3c-0.1-0.5-0.3-0.9-0.6-1.3l4.1-4.1
	c1.3,1.5,2.1,3.3,2.2,5.4H49z"/>
<path d="M193.2,101.8l-0.5,1v-1.2l-0.8-1.8l-0.5-1.8l-1.8-1.2l-4-2.2l-4.2-1.2l-5-1.2l-7.5-1.8l-8.2-2.2l-9.2-1.5l-1.2-0.5l-1.5-1
	l-4.2-1.8l-3-1.2l-2.2-0.8l-2.2-1l-8.5-4l-11.5-5h0.2l-5.8-2.2l-8.8-1.5l-9.2-1H82.8l-3.5,0.2l-9,1l-8,1.2l-9.5,2.5L46,73.8
	l-4.8,1.8l-2.8,1.2L34,78.5l-4.8,1.2v0.8L27.5,81l-4.8,1L14,83.2L12.2,84l-0.5,2.2l-0.2,11l-1.8,1L9.5,99L9,100l-1,3.2v3l0.8,4.2
	l0.8,1.2l1,0.2l1,2.5l1.8,1.5l3.2,0.5l7,1.2l3.8,0.4c0-0.3-0.1-0.7-0.1-1c0-8.8,8-16,18-16c9.9,0,18,7.1,18,16c0,1.5-0.3,3-0.7,4.3
	l83.5,1.2l0-1.3c-0.4-1.4-0.7-2.8-0.7-4.3c0-5.6,3.3-10.5,8.2-13.4l0.1-0.3l0.2,0.1c2.8-1.5,6-2.4,9.5-2.4c9.9,0,18,7.1,18,16
	c0,1.5-0.3,3-0.7,4.3h1l3-0.5l4.8-0.8l1.8-0.8V119l1-1l0.8-1.8l0.5,0.5l0.8-1.2l1-5.2V108L193.2,101.8z M56.5,78.8l-3.2,4L52,84.2
	L51.5,86l-1.2,0.2h-7L42.8,86v-2l0.5-1.2L57.5,75l0.8-0.2L59,75l-0.8,1.5L56.5,78.8z M88.2,86.8L88,87l-15.5-0.2l-10.2-0.2l-2.8-0.2
	L58.8,83l-0.2-2.5l0.8-2l2.2-4.2l1-0.8l5.2-1.2l8.5-1.5l3.8-0.2h5.2l0.5,1.2l2.5,13.8V86.8z M126.5,88h-10.8l-14-0.2l-7.2-0.2
	l-4-16.2v-0.8l4,0.2L113,74l4.2,1.2l7,3.8l1.5,1.5L127,84L126.5,88z"/>
</svg>
