<?xml version="1.0" encoding="UTF-8"?>
<svg id="Layer_1" data-name="Layer 1" xmlns="http://www.w3.org/2000/svg" viewBox="0 0 500 500">
  <defs>
    <style>
      .cls-1 {
        fill: #fff;
      }
    </style>
  </defs>
  <path class="cls-1" d="m118.4,337.93h31.73l33.99.67-1.62,3.36,1.62.67v1.68l-2.59,1.68,33.99.67v.67h-93.88l-5.83-.67-1.29-5.38.65-2.69,3.24-.67Z"/>
  <path class="cls-1" d="m17.68,328.39l.19,2.51,1.57,7.03h24.49l-2.51,8.67-.63.75h-10.05l-12.56-1.69-.63-4.59h1.57l-1.45-9.54v-3.14Z"/>
  <g>
    <polygon class="cls-1" points="144.01 127.53 144.92 123.91 142.8 117.87 137.97 112.43 114.72 111.83 83.02 111.83 67.32 112.43 62.48 116.96 59.47 124.51 60.37 127.53 144.01 127.53"/>
    <polygon class="cls-1" points="100.9 337.3 94.62 332.59 85.2 328.51 72.01 328.51 67.3 330.39 58.5 335.73 53.17 342.95 49.08 352.37 49.08 363.99 50.03 367.13 53.79 374.98 58.5 380.63 66.35 385.97 74.21 388.17 83.63 388.17 86.77 387.54 95.56 383.78 100.9 378.75 106.55 371.21 108.75 363.05 108.75 353 106.55 346.09 100.9 337.3"/>
    <polygon class="cls-1" points="459.83 336.36 454.8 330.7 447.9 325.37 440.05 322.23 428.43 322.23 421.2 324.42 413.35 330.08 408.64 336.36 404.56 345.78 403.93 354.57 405.5 360.85 409.58 369.33 415.87 375.61 422.15 379.69 429.68 381.89 439.1 381.89 442.24 380.95 451.04 377.18 457.94 370.27 461.09 364.62 463.6 355.83 463.6 347.35 462.97 344.21 459.83 336.36"/>
    <path class="cls-1" d="m493.43,290.05l-5.66-6.23-6.29-3.11-10.7-4.67-27.68-10.9-11.01-5.6-3.78-4.67-6.29-9.34-9.44-13.08-10.07-14.01-8.81-12.46-5.66-6.23h-65.12l-.63,29.58v115.5l.63,2.51h73.8l4.71-11.93,5.65-6.91,6.91-5.65,10.05-3.77h16.69l2.54.64,7.94,3.81,6.35,4.76,6.35,8.89,3.81,10.16h21.63l3.15-1.56,2.52-6.23v-46.08l-1.57-3.43Zm-81.64-33.15l-3.14,2.51h-70.66l-3.77-3.77-2.51-5.65v-28.89l.63-8.79,4.71-5.65,2.51-.63h44.59l4.71,3.14,9.42,13.19,10.05,15.07,5.65,8.79.63,5.65-2.83,5.02Z"/>
    <path class="cls-1" d="m424.82,190.97l7.82-3.76,7.82-4.7,6.88-6.27,9.38-10.97,3.75-7.83v-8.97l-2.51-6-6.28-7.33-11.93-11.66-10.05-8.33-8.79-3.33h-182.14l-9.42.67-.63,1.67-4.4,2.33-21.35,13.32-6.28,4-150.1.67-10.05,1.67-7.85,5-5.34,9.66-2.51,15.99-3.14,19.98-3.14,21.65-3.77,24.65-5.65,41.63v-2.83l-.12,6.91,4.71,23.55,6.28,28.89,2.51,9.85h-1.57l.63,3.96,12.56,2.32h10.48l3.14-6.91,3.77-6.28,6.28-6.28,8.79-5.65,10.99-3.14h12.25l4.71.63,6.91,2.51,8.79,5.65,6.91,7.85,5.65,10.99,5.65.63,93.58.63,3.77-.63.62-165.54.62-2.49,4.03-3.12,6.2-1.56h48.98l6.2.62,3.1,3.12,2.48,6.24.62,162.74h27.64v-153.87h90.03l12.5-2.51Zm-231.29,57.93l-2.5,5.57-3.75,4.33-12.51.62H62.23l-5.63-2.48-3.75-4.33-.63-2.48v-47.68l1.56-3.72,3.75-4.64,1.56-.62h126.62l5.63,4.64,2.19,4.95v45.82Zm212.94-80.54h-66.31l-4.69-3.84-.63-2.56v-21.75l2.5-3.84,4.69-2.56h55.67l3.13,2.56,9.38,14.39,3.13,5.76v5.44l-4.69,5.76-2.19.64Z"/>
    <path class="cls-1" d="m288.04,177.77h-57.44l-1.58.63-.95,5.02v162.36l.63,1.57h54.28l7.89-.63v-163.93l-.63-3.13-2.21-1.88Zm-28.56,81.65h-18.84v-6.28h18.84v6.28Z"/>
  </g>
</svg>