<?xml version="1.0" encoding="UTF-8"?>
<svg id="Layer_1" data-name="Layer 1" xmlns="http://www.w3.org/2000/svg" viewBox="0 0 500 500">
  <defs>
    <style>
      .cls-1 {
        fill: #fff;
      }
    </style>
  </defs>
  <path class="cls-1" d="m115.32,284.61l-5.04-5.66-7-5.66-8.4-3.4-7-1.7h-13.44l-6.16,1.41-7,3.4-7,5.09-5.6,6.22-5.04,9.05-2.24,7.07v16.41l1.68,5.09,3.36,7.07,5.04,7.07,7,6.22,7,4.24,9.8,2.83h13.44l9.8-2.83,8.4-5.09,7.84-7.92,5.04-8.49,2.8-9.05v-14.71l-2.24-7.07-5.04-9.62Zm-9.52,27.92l-2.28,7.17-2.85,4.3-5.7,5.16-5.7,2.87-3.42.57h-7.98l-6.84-2.29-5.7-4.3-4.28-5.73-2.85-6.31v-11.47l2.85-6.31,6.27-7.17,7.13-3.44,2.85-.57h9.98l7.13,2.87,5.7,5.16,4.28,6.31,1.43,5.73v7.46Z"/>
  <path class="cls-1" d="m446.85,290.6l-5.58-8.96-7.81-7-7.81-4.2-9.77-2.24h-13.39l-5.58,1.4-6.98,2.8-6.98,5.04-6.14,7-5.58,11.2-2.23,8.4v8.4l.56,5.04,2.23,6.16,5.58,9.8,5.58,5.6,7.81,5.6,8.93,3.36,9.77,1.4,7.81-.56,6.98-2.24,9.77-5.04,8.37-8.4,5.02-8.4,2.79-8.96v-13.44l-.56-4.2-2.79-7.56Zm-10.37,22.4l-2.24,7-5.04,6.16-7,5.04-5.04,1.4h-10.32l-7.13-2.85-6.27-5.7-4.28-7.98-.57-2.85v-9.12l2.85-7.98,6.27-7.13,7.13-3.42,2.28-.57h10.83l6.27,2.28,7.13,6.27,3.42,5.7,1.43,5.13v8.62h.28Z"/>
  <path class="cls-1" d="m494.44,270.24l-2.82-10.62-5.64-11.74-4.23-6.15-7.05-6.43-8.46-5.03-14.1-5.59-24.82-6.99-44.56-9.78-15.51-4.19-10.72-4.19-11.28-5.59-22.56-11.74-23.13-11.18-14.1-5.59-15.51-5.03-19.74-4.19-23.13-3.35-28.2-2.24h-46.27l-13.47.83-27.5,2.22-26.94,3.33-21.05,3.33-7.86,2.77-7.02,4.99-5.05,4.99-7.86,11.09-6.74,13.03-5.61,14.42-3.37,16.63-5.05,9.7-6.17,6.93-1.68,3.6-2.25,10.53v21.62l2.25,12.48,2.25,6.93,2.81,2.77,8.42,4.99,11.23,5.54,3.37,1.39.56-11.64,2.25-10.53,4.21-8.32,5.61-7.76,7.02-6.1,8.98-4.99,11.23-2.77h13.47l7.86,1.39,7.02,2.77,8.98,6.1,7.86,8.32,5.61,11.09,2.25,9.7v9.01l-.31,7.63,70,2.8h78.96l53.76-2.8,35.59-.55v-17.76l.55-3.28,3.33-9.56,6.1-9.56,8.32-7.65,8.88-4.92,10.54-2.73h14.42l4.16.55,9.71,3.28,8.88,6.01,7.77,8.2,4.16,7.65,2.77,8.74v21.58h3.38l9.02-2.24,12.69-3.35,8.46-4.19,3.38-3.35,2.26-9.78v-15.65l-.56-9.78ZM98.21,187.84l-5.04,19.04-1.4,2.24-7-2.24-5.6-5.04-2.8-3.36-2.8-7-.56-7,2.24-7,4.2-6.16,7.84-5.04,5.04-2.24,11.2-2.24h3.36l-8.68,26.04Zm97.19,24.36h-25.04l-56.9-.57-9.1-1.14.57-7.97,2.28-11.95,4.27-16.5,4.27-10.81,3.41-2.28,18.49-1.42,25.6-.57h27.88l1.42.57,1.42,16.5,1.42,23.33v12.8Zm140,7.84l-50.4-4.2-61.04-4.2-4.76-1.4-9.8-49v-2.24h10.64l19.04,2.24,19.6,3.36,16.8,4.2,16.8,5.6,14,6.16,11.76,6.16,12.6,8.96,8.4,7.84,5.6,6.16,2.8,5.6.56,5.04-12.6-.28Z"/>
</svg>