<?xml version="1.0" encoding="UTF-8"?>
<svg id="Layer_1" data-name="Layer 1" xmlns="http://www.w3.org/2000/svg" viewBox="0 0 500 500">
  <defs>
    <style>
      .cls-1 {
        fill: #fff;
      }
    </style>
  </defs>
  <path class="cls-1" d="m409.51,276.37l6.52,1.3,3.91,2.09-1.3,3.13-5.21,5.73h-3.13l-1.3-4.43v-5.73l.52-2.09Z"/>
  <path class="cls-1" d="m418.86,301.65h10.43l1.3.52-.52,4.69-2.61,5.21-2.09,1.3-3.13-3.13-2.61-4.69-1.3-3.13.52-.78Z"/>
  <path class="cls-1" d="m80.85,301.65l10.95.52,1.3,2.09-5.21,7.82-4.69.52-2.61-8.34v-2.61h.26Z"/>
  <path class="cls-1" d="m94.36,275.59h3.05l.57,2.83.57-2.83h1.42l.57,7.93-1.42,5.1h-.28v-7.82h-.56l-.52,7.99-2.61-.52-2.09-3.91-3.13-3.91.52-2.09,3.91-2.78Z"/>
  <path class="cls-1" d="m83.94,282.88l2.61,1.3,5.73,7.82-.52,1.3-3.13.52h-8.34l-.52-1.3,2.61-5.21,1.56-4.43Z"/>
  <path class="cls-1" d="m105.31,276.02l5.73.52,5.21,2.09-1.3,3.13-4.69,2.09-2.09,3.91-.78.78-1.3-.52-1.3-10.95.52-1.04Z"/>
  <path class="cls-1" d="m409.51,309.21l7.3,2.61,3.13,3.91-.52,2.09-7.3,2.09h-2.61l-.52-1.3v-6.78l.52-2.61Z"/>
  <path class="cls-1" d="m384.19,301.65h6.52l5.73.43-.52,2.61-4.43,7.3-2.61.52-1.3-5.65h-2.61l-.78-5.21Z"/>
  <path class="cls-1" d="m401.91,275.59h1.86v13.03h-1.86l-.52-4-4.69-1.3-2.61-3.13.52-2.09,7.3-2.52Z"/>
  <path class="cls-1" d="m424.85,283.32l2.61.52,3.13,9.12-.52.52-7.82.52-3.91-.52,1.3-2.61,5.21-7.56Z"/>
  <path class="cls-1" d="m106.53,306.86h1.42l1.98,5.1,5.67,2.27,1.42,1.42-.57,2.83-6.23,1.42h-5.67l.57-7.93,1.42-5.1Z"/>
  <path class="cls-1" d="m400.65,311.03l2.61.52.52,5.73v2.61h-5.73l-5.21-1.3.52-2.61,3.91-3.91,3.39-1.04Z"/>
  <path class="cls-1" d="m389.5,283.41l1.99.52,4.47,7.82v2.09h-10.43v-2.61l2.98-3.13.99-4.69Z"/>
  <path class="cls-1" d="m117.49,301.65h6.04l1.37.52v3.91l-2.74,6.52-2.74-1.3-2.74-5.21-2.19-2.09v-2.09l3.02-.26Z"/>
  <path class="cls-1" d="m119.68,283.32l2.61.52,2.61,7.3v2.61l-6.52.52-3.91-.52,2.61-5.21,2.09-3.13.52-2.09Z"/>
  <path class="cls-1" d="m95.66,308.43l2.09.52.52,7.82-.52,3.13h-4.69l-3.13-2.09.52-2.61,3.91-3.91,1.3-2.87Z"/>
  <path class="cls-1" d="m100.1,309.47h.52l.52,7.73-.52,2.69h-2.09l.52-8.95,1.04-1.48Z"/>
  <path class="cls-1" d="m410.78,257.25c-21.89,0-39.62,17.72-39.62,39.62s17.72,39.62,39.62,39.62,39.62-17.72,39.62-39.62-17.98-39.62-39.62-39.62Zm-19.55,22.5l11.21,11.21c-.52.78-1.04,1.82-1.3,2.87h-15.64c.26-5.21,2.61-10.16,5.73-14.07Zm-5.73,19.29h15.64c.26,1.04.52,2.09,1.3,2.87l-10.95,10.95c-3.39-3.65-5.73-8.6-5.99-13.81Zm23.49,22.33c-5.21-.52-10.16-2.61-14.07-5.73l10.95-10.95c1.04.52,2.09,1.04,3.13,1.3v15.38Zm0-34.14c-1.04.26-2.09.78-3.13,1.3l-10.95-10.95c3.91-3.39,8.6-5.47,14.07-5.73v15.38Zm2.61-15.38c5.21.52,10.16,2.61,14.07,5.73l-10.69,10.69c-1.04-.52-2.09-1.04-3.39-1.3v-15.12h0Zm0,49.52v-15.12c1.3-.26,2.35-.78,3.39-1.3l10.69,10.69c-3.91,3.39-8.6,5.47-14.07,5.73Zm17.69-8.25l-10.69-10.69c.78-1.04,1.3-2.09,1.56-3.39h14.86c-.26,5.21-2.35,10.16-5.73,14.07Zm-9.12-19.29c-.26-1.3-.78-2.35-1.56-3.39l10.69-10.69c3.39,3.91,5.47,8.6,5.73,14.07h-14.86Z"/>
  <path class="cls-1" d="m103.22,257.25c-21.89,0-39.62,17.72-39.62,39.62s17.72,39.62,39.62,39.62,39.62-17.72,39.62-39.62-17.72-39.62-39.62-39.62Zm-19.55,22.5l11.21,11.21c-.52.78-1.04,1.82-1.3,2.87h-15.64c.52-5.21,2.61-10.16,5.73-14.07Zm-5.73,19.29h15.64c.26,1.04.52,2.09,1.3,2.87l-10.95,10.95c-3.39-3.65-5.47-8.6-5.99-13.81Zm23.49,22.33c-5.21-.52-10.16-2.61-14.07-5.73l10.95-10.95c1.04.52,2.09,1.04,3.13,1.3v15.38Zm0-34.14c-1.04.26-2.09.78-3.13,1.3l-10.95-10.95c3.91-3.39,8.6-5.47,14.07-5.73v15.38Zm2.61-15.38c5.21.52,10.16,2.61,14.07,5.73l-10.69,10.69c-1.04-.52-2.09-1.04-3.39-1.3,0,0,0-15.12,0-15.12Zm0,49.52v-15.12c1.3-.26,2.35-.78,3.39-1.3l10.69,10.69c-3.91,3.39-8.6,5.47-14.07,5.73Zm17.69-8.25l-10.69-10.69c.78-1.04,1.3-2.09,1.56-3.39h14.86c-.26,5.21-2.35,10.16-5.73,14.07Zm-9.12-19.29c-.26-1.3-.78-2.35-1.56-3.39l10.69-10.69c3.39,3.91,5.47,8.6,5.73,14.07h-14.86Z"/>
  <path class="cls-1" d="m488.45,254.13l-1.27,2.61v-3.13l-2.12-4.69-1.3-4.69-4.69-3.13-10.43-5.73-10.95-3.13-13.03-3.13-19.55-4.69-21.37-5.73-23.98-3.91-3.13-1.3-3.91-2.61-10.95-4.69-7.82-3.13-5.73-2.09-5.73-2.61-22.15-10.43-29.97-11.38h-2.91l-14.97-6.1-22.72-4.16-23.75-2.77h-27.88l-9.04.55-23.24,2.77-20.65,3.33-24.53,6.93-17.56,6.1-12.39,4.99-7.23,3.33-11.36,4.71-12.39,3.33v2.22l-4.39,1.39-12.39,2.77-22.46,3.33-4.65,2.22-1.29,6.1-.52,30.5-4.65,2.77-.52,2.22-1.29,2.77-2.58,8.87v.88l2.83,10.95,2.09,3.13,2.61.52,2.61,6.52,4.69,3.91,8.34,1.3,18.24,3.13,9.9,1.04c0-.78-.26-1.82-.26-2.61,0-22.94,20.85-41.7,46.91-41.7s46.91,18.51,46.91,41.7c0,3.91-.78,7.82-1.82,10.77h216.63v.17c-.04-3.65-.82-7.3-.82-11.21,0-14.6,8.6-27.37,21.37-34.93l.26-.78.52.26c7.3-3.91,15.64-6.26,24.76-6.26,25.8,0,46.91,18.51,46.91,41.7,0,3.91-1.82,13.64-1.82,13.64h2.61l7.82-3.74,12.51-2.09,4.69-2.09h0s2.61-2.61,2.61-2.61l2.09-4.69,1.3,1.3,2.09-3.13,3.43-13.55v-5.99l-6.55-16.16Zm-356.52-60.38l-8.34,10.43-3.39,3.65-1.3,4.69-3.13.52h-18.24l-1.3-.52v-5.21l1.3-3.13,37.01-20.33,2.09-.52,1.82.52-2.09,3.91-4.43,5.99Zm82.85,19.29l-.52,2.61-38.31-.51-25.94-.51-7.12-.51-1.78-8.65-.51-6.36,2.03-5.09,5.59-10.68,2.54-2.03,13.22-3.05,21.61-3.81,9.66-.51h13.22l1.27,3.05,6.36,35.09v.95h-1.34Zm100.38,5.21h-28.15l-36.49-.52-18.77-.52-10.43-42.22v-2.09l10.43.52,48.22,8.34,10.95,3.13,18.24,9.9,3.91,3.91,3.39,9.12-1.3,10.43Z"/>
</svg>