<?xml version="1.0" encoding="UTF-8"?>
<svg id="Layer_1" data-name="Layer 1" xmlns="http://www.w3.org/2000/svg" viewBox="0 0 500 500">
  <defs>
    <style>
      .cls-1 {
        fill: #fff;
      }
    </style>
  </defs>
  <path class="cls-1" d="m98.96,290.88c-28.04,0-50.54,22.81-50.54,50.54s22.81,50.54,50.54,50.54,50.54-22.81,50.54-50.54c.31-27.74-22.5-50.54-50.54-50.54Zm0,86.6c-19.72,0-36.06-16.03-36.06-36.06s16.03-36.06,36.06-36.06,36.06,16.03,36.06,36.06-16.03,36.06-36.06,36.06Z"/>
  <path class="cls-1" d="m494.06,238.7l-2.5-5.55-3.12-3.7-6.87-5.55-17.18-6.78-53.1-17.87-8.75-2.47v-1.16l-5.53-8.61-23.02-38.42-7.67-13.83-8.6-11.68-7.67-6.76-7.67-3.69-10.74-3.07-19.03-1.54H28.94l-5.53.92-6.14,3.07-6.14,5.53-3.68,6.15-2.46,7.68v181.33l2.46,8.61,3.68,6.15,6.75,5.53,8.6,3.07h10.93c1.25-29.28,25.61-52.7,55.6-52.7s52.16,21.26,55.28,48.69l1.25,4.01h189.9l1.25-5.24c3.75-26.81,26.86-47.46,54.97-47.46,29.98,0,54.35,23.42,55.6,52.7h21.86l8.75-3.08,6.87-6.16,3.75-6.16,2.5-9.25v-69.03l-.94-3.7Zm-119.25-32.68l-2.46.63h-122.36l-1.54-2.51v-64.61l1.54-3.14,19.06-.63h57.18l14.76.63,3.69,4.7,27.67,56.45,2.46,5.65v2.82Zm117.11,80.75l-3.19,4.62-2.55,1.54h-35.71l-4.78-5.55v-25.27l3.83-5.55,1.59-.62h34.43l5.74,4.62.64,2.47v23.73Z"/>
  <path class="cls-1" d="m397.59,290.88c-28.04,0-50.54,22.81-50.54,50.54s22.81,50.54,50.54,50.54,50.54-22.81,50.54-50.54c0-27.74-22.81-50.54-50.54-50.54Zm0,86.6c-19.72,0-36.06-16.03-36.06-36.06s16.03-36.06,36.06-36.06,36.06,16.03,36.06,36.06c-.31,20.03-16.33,36.06-36.06,36.06Z"/>
</svg>