<?xml version="1.0" encoding="UTF-8"?>
<svg id="Layer_1" data-name="Layer 1" xmlns="http://www.w3.org/2000/svg" viewBox="0 0 500 500">
  <defs>
    <style>
      .cls-1 {
        fill: #fff;
      }
    </style>
  </defs>
  <path class="cls-1" d="m494.13,272.63l-1.45-2.91-4.36-5.24-5.24-8.15-4.36-5.82-5.82-5.24-15.13-9.31-8.15-5.24-13.97-4.36-19.79-6.4-15.13-4.36-13.09-2.91-3.49-2.91-8.73-5.82-2.91-1.45v-.72l-8.75-3.47-12.25-8.68-12.25-6.36-8.17-5.21-20.42-9.25-9.33-5.78-7.29-2.89-16.04-2.89-34.42-3.47-16.92-1.16h-95.67l-36.46,1.45-35.58,2.31-8.17,2.31-3.5,2.02-2.92,4.34-5.83,8.1-4.38,7.23-7.29,13.01-4.96,7.81-7.29,14.46-5.83,13.01-1.46,8.68-.58,17.35-1.75,27.47v11.57l.58,2.31,2.92,4.34,7.29,6.36,7.29,2.89,14.58,3.47,1.75-.58c-.29-2.02-.58-4.05-.58-6.07,0-14.17,7-26.89,17.5-34.7h0c7.29-5.21,16.04-8.39,25.67-8.39s18.96,3.18,25.96,8.68l2.04,1.16.58.87c9.04,7.81,14.87,19.37,14.87,32.39,0,2.89-.29,5.78-.87,8.68l58.33,1.74,15.17.58,49.58,1.45,35.58,1.45,52.5,1.45h21.69c-1.96-5.27-2.83-10.55-2.61-16.64.61-16.87,11.45-31.78,27.14-38.02,13.34-5.3,16.76-4.49,22.39-3.68h3.52l3.52.59,11.73,4.44,5.28,3.55,7.33,8.29,4.4,8.88,2.35,11.25v11.25l-.59,5.92,4.4-.59,24.05-3.55,11.15-1.48,5.28-2.96,3.52-4.44,2.35-4.44,2.35-15.4v-6.62l-.87-5.53ZM120.04,180.61l-2.37,21.95-.59,12.46-1.78,1.78-45.08-.59-15.42-.59-5.93-1.48-4.45-6.53-1.48-3.56v-5.93l4.45-11.27,6.53-11.86,7.42-7.42,1.48-.59,31.14-2.08,16.31-.59h11.27l-1.48,16.31Zm100.8,39.1l-2.92.58-77.29-3.5-2.92-.58.58-11.67,2.92-40.83.87-1.75,7.29-.58h70.58l.88.58v57.75Zm113.45-8.75l-.61.61-12.15,2.43-2.43,2.43-3.04,9.11h-12.38l-40.83-2.31-18.08-.58-.58-3.47v-54.89h7.29l17.5,2.31,11.08,2.31,18.96,6.36,5.83,2.89,7.29,4.33,11.67,5.78,10.21,6.36.58,5.2v11.13h-.3Zm28.71,14.58h-11.67l-2.15-3.87v-1.96h-2.22l-.69-4.75v-11.08l2.15.58,11.67,8.17,5.83,4.38.58,2.33-3.5,6.21Z"/>
  <path class="cls-1" d="m401.19,268.63c-21.58,0-39.38,17.5-39.38,39.38s17.5,39.37,39.38,39.37,39.38-17.5,39.38-39.37-17.79-39.37-39.38-39.37Zm-19.25,21.67l11.08,11.08c-.58.88-.88,1.75-1.17,2.92h-15.75c.29-5.25,2.62-10.21,5.83-14Zm-5.83,19.83h15.46c.29,1.17.58,2.04,1.17,2.92l-11.08,11.08c-2.92-3.79-5.25-8.75-5.54-14Zm22.64,22.38c-5.25-.29-10.21-2.63-14-5.83l10.79-10.79c.88.58,2.04,1.17,3.21,1.46v15.17Zm0-34.13c-1.17.29-2.04.58-2.92,1.17l-11.08-11.08c3.79-3.21,8.75-5.25,14-5.83v15.75Zm2.92-15.17c5.25.29,10.21,2.63,14,5.83l-10.79,10.79c-.88-.58-2.04-.88-3.21-1.17v-15.46Zm0,49.29v-15.17c1.17-.29,2.33-.58,3.5-1.17l10.5,10.5c-4.08,3.21-8.75,5.25-14,5.83Zm17.9-8.38l-10.5-10.5c.58-1.17,1.17-2.33,1.46-3.5h14.88c-.29,5.25-2.33,10.21-5.83,14Zm-9.04-19.83c-.29-1.17-.88-2.33-1.46-3.5l10.5-10.5c3.21,3.79,5.25,8.75,5.83,14,0,0-14.88,0-14.88,0Z"/>
  <path class="cls-1" d="m84.15,268.63c-21.58,0-39.38,17.5-39.38,39.38s17.5,39.37,39.38,39.37,39.38-17.5,39.38-39.37-17.79-39.37-39.38-39.37Zm-19.25,21.67l11.08,11.08c-.58.88-.87,1.75-1.17,2.92h-15.75c.29-5.25,2.63-10.21,5.83-14Zm-5.83,19.83h15.46c.29,1.17.58,2.04,1.17,2.92l-11.08,11.08c-2.92-3.79-5.25-8.75-5.54-14Zm21.76,22.38c-5.25-.29-10.21-2.63-14-5.83l10.79-10.79c.87.58,2.04,1.17,3.21,1.46v15.17Zm0-34.13c-1.17.29-2.04.58-2.92,1.17l-11.08-11.08c3.79-3.21,8.75-5.25,14-5.83v15.75Zm5.83-15.17c5.25.29,10.21,2.63,14,5.83l-10.79,10.79c-.87-.58-2.04-.88-3.21-1.17v-15.46Zm0,49.29v-15.17c1.17-.29,2.33-.58,3.5-1.17l10.5,10.5c-4.08,3.21-8.75,5.25-14,5.83Zm15.86-8.38l-10.5-10.5c.58-1.17,1.17-2.33,1.46-3.5h14.87c-.29,5.25-2.33,10.21-5.83,14Zm-9.04-19.83c-.29-1.17-.87-2.33-1.46-3.5l10.5-10.5c3.21,3.79,5.25,8.75,5.83,14,0,0-14.87,0-14.87,0Z"/>
</svg>