<?xml version="1.0" encoding="UTF-8"?>
<svg id="Layer_1" data-name="Layer 1" xmlns="http://www.w3.org/2000/svg" viewBox="0 0 500 500">
  <defs>
    <style>
      .cls-1 {
        fill: #fff;
      }
    </style>
  </defs>
  <path class="cls-1" d="m81.54,289.03c-5.38,0-9.96,4.58-9.96,9.96s4.58,9.96,9.96,9.96,9.96-4.58,9.96-9.96-4.31-9.96-9.96-9.96Z"/>
  <circle class="cls-1" cx="420.23" cy="297.91" r="9.96"/>
  <g>
    <path class="cls-1" d="m81.54,270.18c-15.88,0-28.81,12.92-28.81,28.81s12.92,28.81,28.81,28.81,28.81-12.92,28.81-28.81-12.65-28.81-28.81-28.81Zm0,49.54c-11.58,0-20.73-9.42-20.73-20.73s9.42-20.73,20.73-20.73,20.73,9.42,20.73,20.73-9.15,20.73-20.73,20.73Z"/>
    <path class="cls-1" d="m420.23,269.1c-15.88,0-28.81,12.92-28.81,28.81s12.92,28.81,28.81,28.81,28.81-12.92,28.81-28.81-12.92-28.81-28.81-28.81Zm0,49.81c-11.58,0-20.73-9.42-20.73-20.73s9.42-20.73,20.73-20.73,20.73,9.42,20.73,20.73-9.15,20.73-20.73,20.73Z"/>
    <path class="cls-1" d="m494.44,286.24l-3.34-12.48-4.18-16.82v-3.4l-3.62-12.17c-.26-.52-.26-.78-.78-1.29l-1.29-1.81c-.52-.52-1.29-1.04-2.07-1.29l-12.17-2.85h-.26l-32.1-5.18-6.73-1.29-7.51-1.29-2.59-.26-31.07-5.44h-2.85l-10.77-2.69c-.27,0-.54-.27-.81-.27l-4.85-2.42h-.27l-11.31-6.46s-.27,0-.27-.27l-6.73-4.58-7.27-4.85-10.77-6.73-13.73-7.81c-.27,0-.54-.27-.81-.27l-7.27-2.42c-.27,0-.54-.27-.81-.27l-10.77-1.35h-51.69l-2.15.25-1.62-2.15-1.62-1.35-.54.56h-.54l-1.35-2.45-.27-.27-2.15-2.15s-.27-.27-.54-.27l-.81-.25h-33.92l-39.04.25-27,1.35v.54l17.31.56h-38.77l-20.19.78h0l-14,.54-1.35.54-2.42,2.96-2.42,2.15c-.27.27-.54.54-1.08.54l-3.5,1.62c-.54.27-.81.27-1.35.27l-21,.81-.54,1.35,12.92,1.91h-9.77l-7.81,2.12q-.27,0-.54.27l-5.38,2.12c-.81.27-1.35.8-1.88,1.59l-1.08,1.59c-.27.27-.54.53-.81.8l-4.57,3.98-.74.8-5.46,7.42-5.38,7.16s0,.27-.27.27l-3.77,6.1c-.27.27-.27.53-.27.8l-2.42,7.96v.27l-2.69,12.74v12.74l1.16,6.86.19.57,3.5,6.89c.27.53.27.8.27,1.33l.54,7.16h-2.44l-.52,1.24v8.7l.52,1.99,2.61.99c.52.25.78.5,1.3.75l1.3,1.24,2.08.75,19.8.5h.52l4.17-.5v3.09l4.85,1.3,2.69-.52.54-8.83v-.52l.54-2.6c0-.26,0-.52.27-.78l1.88-3.9s0-.26.27-.26l2.96-5.2c.27-.26.54-.78.81-1.04l5.38-4.42c.27-.26.54-.26.81-.52l5.38-2.86c.27,0,.54-.26.81-.26l5.92-1.56c.27,0,.81-.26,1.08-.26h13.19l3.23.52c.27,0,.81.26,1.08.26l7,3.38c.27.26.54.26.81.52l4.85,3.9q.27.26.54.52l4.04,5.2c.27.26.27.52.54.78l2.96,6.75c.27.26.27.52.27,1.04l1.35,10.65.54.52,4.85-.78c1.62-.26,2.69-1.3,2.96-2.86l.27-.78h256.92l.54,3.48,2.15,1.91h-2.57c2.23,0,3.9-1.63,3.9-3.53l.56-8.14c0-.27,0-.81.28-1.09l1.67-5.16c0-.27.28-.54.28-.81l3.62-5.97.3-.35,5.28-4.54.64-.44,6.87-3.62c.28-.27.84-.27,1.11-.27l5.85-1.09h12.53l3.34.54c.28,0,.56,0,.84.27l6.13,2.44c.28,0,.56.27.84.54l5.85,3.88,1.11.99,5.02,5.98c.28.27.28.54.56.81l2.23,5.16c.28.27.28.81.28,1.09l1.39,13.57.56.54,6.96-1.36,1.39-2.17,30.08-.54,2.23-1.36,2.79-3.8c.56-.54.84-1.36.84-2.17v-3.8c-.56-.27-.56-.54-.56-.81Zm-361.48-70.45c0,.81-.27,1.35-.54,1.88-.27,1.88-1.88,3.23-3.77,2.99H62.15l-18.85,2.69h-19.65c0-16.18,8.88-25.87,20.73-29.64l.27-.54,3.77-.54c2.69-.54,5.12-.81,8.08-.81l71.08-1.35c1.08,0,2.15.27,2.96.54,2.15,0,3.77,1.88,3.69,4.04v.54c.08.54.08,1.35.08,1.88l-1.35,18.31Zm33.58,15.91c0,1.35-1.08,2.42-2.42,2.42h-16.69c-1.35,0-2.42-1.08-2.42-2.42v-.54c0-1.35,1.08-2.42,2.42-2.42h16.69c1.35,0,2.42,1.08,2.42,2.42v.54Zm71.42-13.73c0,2.4-3.77,2.69-3.77,2.69h-89.12l-2.77.25v-9.42l2.69-15.35v-.27l.35-1.35c.27-1.88,1.88-3.23,3.5-3.23l8.88-2.94,56.54,2.69h22.35l.54-.29-.62,22.08v5.14h1.42Zm41.65,13.73c0,1.35-1.08,2.42-2.42,2.42h-16.69c-1.35,0-2.42-1.08-2.42-2.42v-.54c0-1.35,1.08-2.42,2.42-2.42h16.69c1.35,0,2.42,1.08,2.42,2.42v.54Zm35-8.35l-61.15-.55c-1.61,0-2.94-1.09-3.48-2.73l-.27-1.09c0-.27-.27-.55-.27-.82l-2.14-25.18.06-1.42.47-2.66,21.95-.55h30.51l11.24,2.46c.27,0,.54.27.8.27l7.49,3.83s.27,0,.27.27l7.49,4.92,11.24,8.2v1.02l3.31.54c.54,0,.81.27,1.35.54l16.96,10.5.54-.25h-46.38v2.69Z"/>
  </g>
</svg>