<?xml version="1.0" encoding="UTF-8"?>
<svg id="Layer_1" data-name="Layer 1" xmlns="http://www.w3.org/2000/svg" viewBox="0 0 500 500">
  <defs>
    <style>
      .cls-1 {
        fill: #fff;
      }
    </style>
  </defs>
  <g id="JEJ1kn.tif">
    <path class="cls-1" d="m230.86,178.3c1.46.89,3.09.53,4.64.55,13.98.2,27.77,1.8,41.15,6.01,9.64,3.03,18.38,8.05,27.16,12.95,8.06,4.5,15.21,10.48,23.61,14.45,10.31,4.87,21.02,8.38,32.38,9.69,14.36,1.66,28.7,3.44,42.74,7.04,10.89,2.79,21.66,5.99,31.7,11.2,4.23,2.2,8.06,5.01,11.3,8.57,2.87,3.14,4.5,6.83,4.47,11.05-.05,7.39-.6,14.75-3,21.81-1.66,4.9-4.35,9.16-8.57,12.31-1.9,1.42-3.88,2.33-6.4,2.29-8.27-.12-16.55-.02-24.82-.07-1.65-.01-2.42.34-3.15,2.13-5.23,12.87-14.29,21.03-28.48,23.05-15.77,2.25-32.03-7.67-37.19-23-.62-1.83-1.46-2.18-3.19-2.18-57.26.04-114.51.04-171.77,0-2.08,0-3.1.37-3.99,2.66-4.79,12.22-13.82,20-26.68,22.32-17.1,3.1-32.61-6.35-38.73-22.73-.64-1.7-1.32-2.3-3.1-2.25-4.68.12-9.37-.18-14.04.08-11.41.65-20.58-7.53-24.08-16.81-2.44-6.48-3.16-13.21-2.69-20.08.39-5.75.18-11.51.58-17.28.42-6.14,1.35-12.15,2.79-18.09.96-3.96,5.9-7.27,10.49-7.55,8-.48,15.99-.81,24-1.02,8.9-.24,16.89-2.9,24.23-8.33,11.37-8.4,24.22-14.08,37.52-18.8,8.86-3.14,17.89-5.62,27.11-7.32,7.75-1.44,15.59-2.31,23.51-2.16,1.14.02,2.35.23,3.4-.49h27.08Zm188.6,109.36h0c3.76,0,7.53-.09,11.28.05,1.68.06,2.93-.45,3.98-1.63,1.27-1.43,2.5-2.88,3.31-4.66,3.05-6.75,3.3-13.94,3.51-21.16.08-2.7-.93-4.86-2.77-6.7-2.56-2.56-5.61-4.46-8.83-6.05-9.67-4.78-19.82-8.12-30.31-10.63-9.48-2.26-19.02-4.13-28.67-5.33-7.63-.95-15.35-1.26-22.86-3.1-13.14-3.21-25.54-8.17-36.76-15.84-10.4-7.1-21.26-13.46-32.91-18.2-14.65-5.96-30.27-6.97-45.85-7.53-9.68-.35-19.38-.12-29.07-.05-7.99.06-15.96.81-23.83,2.09-9.12,1.48-18.05,3.88-26.73,7.06-13.22,4.85-25.92,10.75-37.42,18.99-2.97,2.13-5.95,4.23-9.45,5.49-6.7,2.41-13.62,3.42-20.72,3.48-7.09.06-14.17.33-21.24.98-1.3.12-2.32.57-2.64,1.85-.61,2.39-1.32,4.8-1.59,7.24-1.16,10.54-1.53,21.13-1.45,31.71.03,4.7,1.04,9.4,3.51,13.56,2.6,4.39,6.15,7.91,11.45,8.29,5.57.4,11.19.04,16.79.13,1.5.02,1.78-.5,1.81-1.87.06-2.72.62-5.39,1.32-8.03,4.2-15.8,20.63-28.66,40.23-24.79,14.1,2.78,27.2,15.23,28.04,32,.11,2.23.61,2.71,2.79,2.7,55.08-.06,110.15-.05,165.23-.04,1.67,0,3.34-.05,5.01.01,1.2.05,1.76-.24,1.85-1.62.15-2.48.29-5.01.93-7.39,4.77-17.9,21.14-28.59,39.18-26.02,16.35,2.32,29.17,16.83,29.31,33.18.01,1.39.36,1.89,1.81,1.86,3.93-.09,7.86-.03,11.78-.03Zm-22.05-.78c.85-12.37-9.97-26.41-26.45-26.24-14.15.15-26.26,11.51-26.2,26.5.06,15.19,12.72,26.16,26.82,26.08,14.13-.08,26.54-12.07,25.83-26.33Zm-244.29.14c.87-12.82-11.29-26.62-26.74-26.42-14.78.19-25.62,12.43-25.93,25.41-.37,15.68,11.68,27.15,26.57,27.23,13.64.07,26.78-12.33,26.11-26.22Z"/>
  </g>
</svg>