<?xml version="1.0" encoding="UTF-8"?>
<svg id="Layer_1" data-name="Layer 1" xmlns="http://www.w3.org/2000/svg" viewBox="0 0 500 500">
  <defs>
    <style>
      .cls-1 {
        fill: #fff;
      }
    </style>
  </defs>
  <g id="GjLfpM">
    <g>
      <path class="cls-1" d="m235.02,449.97c-38.34,0-76.67-.05-115.01.03-10.88.02-21.3-1.95-30.78-7.3-6.64-3.75-12.57-8.57-17.31-14.71-5.96-7.71-9.97-16.33-11.64-25.88-1.09-6.26-.27-12.68-.53-19.01-.43-10.36,3.91-18.84,11.16-25.49,5.84-5.36,13.03-8.88,21.43-8.86,30.42.04,60.84,0,91.26.08,2.67,0,3.27-.55,2.81-3.33-1.79-10.97-1.61-22.24-4.13-33.07-1.65-7.09,1.63-12.75,3.59-18.84,2.2-6.85,4.75-13.59,7.29-20.33,1.96-5.2,3.77-10.47,5.8-15.63,3.16-8.04,5.95-16.22,8.98-24.3,3.79-10.13,7.5-20.29,11.21-30.45,2.4-6.58,4.38-13.33,7.21-19.72,3.21-7.25,7.37-14.04,12.48-20.17,5.26-6.32,11.39-11.75,18.28-16.14,6.49-4.13,13.3-7.81,21-9.41,1.71-.36,3.31-1.32,5.02-1.66,2.52-.5,2.04-1.51.73-2.84-2.17-2.2-3.75-4.79-5.22-7.51-3.46-6.42-5.44-13.14-5.02-20.51.4-7.05-.91-14.22.69-21.16,2.24-9.68,7.01-17.77,14.99-24.19,8.34-6.7,17.67-9.48,28.05-9.52,18.23-.07,36.46-.03,54.69-.01,8.23,0,15.82,2.41,22.23,7.45,7.94,6.24,12.93,14.51,13.71,24.76,1,13.1.42,26.23.3,39.35-.04,4.33-1.13,8.61-3.56,12.39-1.01,1.57-1.14,2.73,1.08,3.46,9.73,3.2,17.28,9.38,23.59,17.32,5.22,6.57,8.44,14.11,10.02,22.18,1.26,6.42,1.02,13.12.13,19.6-1.69,12.32-3.66,24.61-5.98,36.82-1.53,8.04-2.61,16.15-3.97,24.21-2.01,11.85-4.01,23.72-5.78,35.61-1.73,11.57-3.81,23.09-5.58,34.65-1.79,11.69-3.54,23.37-5.65,35.01-.57,3.13-.39,6.4.15,9.63,1.92,11.63-1.22,21.5-10.1,29.57-3.54,3.22-7.6,5.19-11.95,6.74-1.72.62-2.37,1.41-2.35,3.35.1,8.16-1.02,15.98-6.09,22.88-5.79,7.87-13.13,12.97-22.9,14.4-2.37.35-4.73.6-7.14.6-39.07-.02-78.13-.02-117.2-.01Zm62.39-13.86s0,.05,0,.08c18.54,0,37.08-.02,55.62,0,6.65,0,12.4-2.31,16.71-7.26,4.55-5.23,5.18-11.75,4.67-18.4-.09-1.15-1.09-1.35-1.98-1.69-2.22-.84-4.59-1.48-6.57-2.72-7.92-4.93-13.21-11.74-15.54-21.01-1.69-6.74-.94-13.26,1.62-19.22,3.86-8.98,10.65-15.31,20.3-18.35,9.05-2.85,17.38-1.3,25.45,3.12,1.56.86,3.37,2.26,3.43-1.16.13-7.94,2.53-15.54,3.53-23.36,1.47-11.49,3.59-22.93,5.45-34.39,1.74-10.73,3.45-21.46,5.08-32.2,1.4-9.22,3.39-18.36,4.72-27.59,1.69-11.79,3.78-23.5,5.67-35.25.96-5.98,1.24-12.02.06-17.95-1.57-7.98-5.52-14.8-11.45-20.39-4.89-4.62-10.66-7.96-17.14-9.49-5.64-1.33-11.52-1.1-17.37-1.08-25.83.11-51.66-.07-77.49-.09-10.91,0-21.43,2.16-31.16,7.1-8.22,4.17-15.52,9.79-21.38,16.99-4.07,5-7.53,10.42-10.08,16.42-2.18,5.13-3.66,10.51-5.85,15.62-2.68,6.27-4.79,12.75-7.15,19.12-3.07,8.29-6.04,16.64-9.02,24.97-3.63,10.16-7.22,20.36-11.13,30.42-3.51,9.03-6.43,18.27-10.3,27.16-.34.77-.61,1.5-.45,2.39,2.36,12.78,2.83,25.79,4.76,38.63.22,1.44.45,2.31,2.16,2.29,4.89-.07,9.79-.04,14.69-.02,1.27,0,1.91-.34,1.73-1.82-1.31-10.96-.81-22.04-2.01-33.02-.42-3.88-1.34-7.91-.06-11.78,2.33-7.01,4.84-13.97,7.31-20.94,3.71-10.49,7.4-21,11.17-31.47,3.22-8.92,6.8-17.71,9.7-26.73,1.05-3.26,2.67-6.29,3.47-9.58,1.59-6.58,4.52-12.6,8.72-17.7,9.81-11.92,22.7-17.64,38.22-17.55,17.19.11,34.37.03,51.56.03,4.31,0,8.26.92,12,3.32,5.5,3.53,9.05,12.33,7.37,18.5-1.57,5.77-3.45,11.46-5.25,17.17-2.92,9.24-5.9,18.46-8.81,27.69-2.54,8.04-4.89,16.15-7.59,24.14-2.48,7.32-4.85,14.7-7.12,22.07-2.4,7.78-5.04,15.49-7.25,23.33-1.29,4.6-3.36,8.89-1.46,14.11,1.1,3.01,1.9,6.29,2.71,9.48,3.08,11.99,6.05,24,9.17,35.97.73,2.81.2,5.5-1.69,7.18-2.02,1.79-4.81,2.81-7.76,1.08-6.64-3.89-12.81-8.45-19.17-12.75-6.01-4.06-12.38-7.06-19.86-7.04-17.08.03-34.17.08-51.25-.03-8.71-.05-16.27,3.23-22.56,8.68-6.34,5.5-10.57,12.54-12.08,21.22-1.71,9.89-.09,18.83,5.41,27.14,7.16,10.82,17.33,16.4,30.2,16.55,18.43.22,36.87.06,55.31.06Zm25.45-76.52c-2.48-9.13-5.13-18.21-7.35-27.4-.9-3.73-2.61-7.39-1.65-11.51,1.17-5.04,3.17-9.79,4.67-14.71,3.6-11.84,7.53-23.57,11.09-35.43,2.94-9.77,6.26-19.42,9.36-29.15,2.66-8.33,5.22-16.7,7.86-25.04,1.96-6.18,4.04-12.31,5.94-18.51.74-2.41-.24-4.26-2.58-5.32-1.28-.58-2.63-.52-3.99-.52-15.93,0-31.86.01-47.79,0-6.57,0-13.02.37-19.06,3.49-6.44,3.33-11.27,8.13-14.58,14.55-3.28,6.35-4.85,13.35-7.56,19.93-2.19,5.32-3.99,10.85-5.85,16.31-2.29,6.71-4.77,13.35-7.07,20.06-1.33,3.89-3,7.7-4.21,11.6-1.86,6.01-4.19,11.83-6.18,17.78-1.7,5.08-4.09,9.93-3.36,15.56.89,6.91,1.19,13.87,1.27,20.85.05,4.56.78,9.12.9,13.68.07,2.49.99,3.01,3.33,3,18.64-.1,37.28,0,55.91-.08,7.41-.03,14.23,1.78,20.78,5.23,3.36,1.77,6.57,3.68,10.11,5.63Zm-116,2.93c-1.37,0-2.39,0-3.4,0-36.24,0-72.49.27-108.73-.19-10.47-.13-22.49,10.42-21.22,21.33.42,3.6.12,7.28.1,10.93-.09,11.43,5,20.78,12.6,28.62,8.82,9.11,20.07,13.01,32.74,12.99,28.74-.05,57.49-.01,86.23-.02.57,0,1.26.31,1.6-.28-19.93-24.33-20.21-48.57.07-73.39Zm145.51-228.78c-12.04-23.22-12.69-46.3-1.87-69.82-12.42,0-24.46-.17-36.5.07-6.73.13-12.87,2.8-17.59,7.43-5.77,5.67-9.43,12.61-9.06,21.16.2,4.67.13,9.37.01,14.04-.16,6.43,2.58,11.94,6.28,16.67,4.83,6.16,11.71,9.98,19.52,10.3,12.86.54,25.76.15,39.19.15Zm42.12-30.69s-.07,0-.11,0c0-6.25.15-12.5-.05-18.74-.16-5-2.2-9.46-5.52-13.14-5.39-5.98-12.5-7.59-20.24-7.39-1.7.04-2.77.86-3.42,2.25-2.25,4.8-4.52,9.56-6.16,14.67-2.69,8.37-2.93,16.83-1.66,25.29,1.09,7.31,3.71,14.19,7.25,20.84,2.6,4.88,5.17,8.1,11.11,7.03,1.41-.25,2.91-.08,4.37-.02,8.27.32,14.65-5.66,14.45-14.22-.13-5.52-.02-11.04-.02-16.56Zm-12.76,256.96c-10.54.02-18.33,8.09-18.35,18.1-.01,10,7.5,18,18.1,18.06,10.47.05,18.1-8.29,18.12-17.94.02-10.49-7.96-17.94-17.87-18.21Z"/>
      <path class="cls-1" d="m362.34,329.67c-.21-2.57.72-4.92,1.26-7.35,2.24-10.1,4.48-20.2,6.66-30.31,1.88-8.68,3.84-17.35,5.63-26.05,1.79-8.7,3.86-17.34,5.65-26.03,1.78-8.61,3.84-17.15,5.59-25.75,1.8-8.81,3.47-17.63,5.77-26.33.9-3.39,4.26-5.89,7.53-5.31,3.58.63,6.62,4.51,5.93,7.95-1.3,6.39-2.8,12.73-4.25,19.09-2.21,9.67-4.13,19.4-6.4,29.06-1.95,8.34-3.84,16.73-5.43,25.14-1.73,9.14-3.8,18.21-5.66,27.32-1.45,7.06-3.24,14.11-4.63,21.19-1.22,6.19-3.37,12.18-3.89,18.52-.22,2.77-3.05,5.86-5.57,6.54-3.2.87-5.4-.88-7.39-2.89-1.3-1.31-.54-3.19-.81-4.79Z"/>
      <path class="cls-1" d="m249.74,422.48c-4.76,0-9.52.25-14.16-1.33-8.76-3-14.07-8.92-15.69-18.07-.32-1.83-.79-3.61-.18-5.52,1.13-3.51,2.92-4.99,6.53-5.04,3.25-.05,5.42,1.49,6.52,4.66.2.58.3,1.21.42,1.81,1.45,7.36,4.24,9.68,11.66,9.69,4.16,0,8.31-.04,12.47.02,4.43.06,7.57,2.97,7.59,6.89.01,3.74-3.35,6.79-7.67,6.88-2.49.05-4.99,0-7.48.01Z"/>
      <path class="cls-1" d="m286.03,256.88c6.25,0,12.49-.02,18.74,0,3.88.02,6.6,2.85,6.57,6.72-.03,3.58-3.09,6.95-6.59,6.97-12.49.05-24.99.04-37.48-.01-3.3-.01-6.63-3.6-6.7-6.99-.07-3.39,3.21-6.68,6.72-6.69,6.25-.02,12.49,0,18.74,0Z"/>
      <path class="cls-1" d="m276.5,293.09c5.93,0,11.88.22,17.79-.07,4.45-.22,7.25,2.63,7.18,6.83-.08,4.26-2.79,6.94-7.35,6.98-6.35.06-12.7.01-19.04.01-5.41,0-10.82-.07-16.23.02-4.49.07-8.83-3.46-7.67-9.23.39-1.96,3.45-4.47,5.66-4.49,6.56-.04,13.11-.01,19.67-.01,0-.01,0-.03,0-.04Z"/>
      <path class="cls-1" d="m270.83,339.47c-5.93,0-11.86.06-17.79-.02-4.77-.07-7.55-2.79-7.53-7.15.02-3.7,2.84-6.55,6.97-6.58,12.17-.09,24.35-.19,36.52.04,5.36.1,6.58,2.6,6.89,6.96.28,3.89-2.87,6.69-7.27,6.74-5.93.07-11.86.02-17.79.02Z"/>
      <path class="cls-1" d="m298.66,219.2c6.04,0,12.08-.07,18.11.03,2.87.05,5.54,1.26,6.49,4,.85,2.45,1.13,5.34-1.16,7.53-1.66,1.58-3.73,2.25-5.97,2.25-11.76.02-23.53.05-35.29-.03-4.77-.03-7.35-2.59-7.34-6.94,0-4.51,2.34-6.75,7.36-6.82,5.93-.08,11.87-.02,17.8-.03Z"/>
      <path class="cls-1" d="m133.66,391.4c-13.11,0-26.21.04-39.32-.02-6.55-.03-9.51-4.42-6.89-10.33,1.21-2.74,3.95-3.38,6.69-3.42,5.1-.09,10.19-.03,15.29-.03,21.01,0,42.03.03,63.04-.01,2.73,0,5.15.58,7.03,2.6,1.75,1.88,2.56,4.21,1.5,6.59-1.3,2.92-3.71,4.63-7.07,4.62-6.55,0-13.11-.02-19.66-.02-6.87,0-13.73,0-20.6,0h0Z"/>
    </g>
  </g>
</svg>